<svg width="308" height="141" viewBox="0 0 308 141" fill="none" xmlns="http://www.w3.org/2000/svg">
<path d="M161.739 1.64378C1.2424 -4.90693 0.150481 33.3063 0.150391 69.3362C0.150281 113.009 42.0762 136.81 161.739 140.304C311.318 144.671 306.951 82.4377 306.951 69.3362C306.951 56.2346 322.236 8.19449 161.739 1.64378Z" fill="#E5E5FF"/>
<rect x="33.6855" y="31.7964" width="238" height="34" rx="17" fill="white" fill-opacity="0.85"/>
<path d="M59.7309 55.7964C59.4429 55.7964 59.2089 55.7124 59.0289 55.5444C58.8609 55.3644 58.7769 55.1424 58.7769 54.8784V44.0964H60.7029V54.8784C60.7029 55.1424 60.6069 55.3644 60.4149 55.5444C60.2349 55.7124 60.0069 55.7964 59.7309 55.7964ZM55.6449 44.9244C55.3929 44.9244 55.1769 44.8464 54.9969 44.6904C54.8169 44.5224 54.7269 44.3064 54.7269 44.0424C54.7269 43.7904 54.8169 43.5864 54.9969 43.4304C55.1769 43.2744 55.3929 43.1964 55.6449 43.1964H63.8349C64.0869 43.1964 64.2969 43.2804 64.4649 43.4484C64.6449 43.6044 64.7349 43.8084 64.7349 44.0604C64.7349 44.3244 64.6449 44.5344 64.4649 44.6904C64.2969 44.8464 64.0869 44.9244 63.8349 44.9244H55.6449ZM66.4012 55.7964C66.1372 55.7964 65.9212 55.7124 65.7532 55.5444C65.5852 55.3644 65.5012 55.1424 65.5012 54.8784V47.2464C65.5012 46.9824 65.5852 46.7664 65.7532 46.5984C65.9212 46.4184 66.1372 46.3284 66.4012 46.3284C66.6532 46.3284 66.8632 46.4184 67.0312 46.5984C67.2112 46.7664 67.3012 46.9824 67.3012 47.2464V49.2624L67.1212 48.4884C67.2172 48.1524 67.3612 47.8404 67.5532 47.5524C67.7572 47.2644 67.9972 47.0124 68.2732 46.7964C68.5492 46.5804 68.8552 46.4124 69.1912 46.2924C69.5392 46.1724 69.8992 46.1124 70.2712 46.1124C70.5832 46.1124 70.8532 46.1964 71.0812 46.3644C71.3092 46.5324 71.4232 46.7424 71.4232 46.9944C71.4232 47.3184 71.3392 47.5584 71.1712 47.7144C71.0032 47.8584 70.8172 47.9304 70.6132 47.9304C70.4332 47.9304 70.2592 47.8944 70.0912 47.8224C69.9232 47.7384 69.7252 47.6964 69.4972 47.6964C69.2452 47.6964 68.9872 47.7624 68.7232 47.8944C68.4592 48.0264 68.2192 48.2244 68.0032 48.4884C67.7872 48.7404 67.6132 49.0404 67.4812 49.3884C67.3612 49.7364 67.3012 50.1264 67.3012 50.5584V54.8784C67.3012 55.1424 67.2112 55.3644 67.0312 55.5444C66.8632 55.7124 66.6532 55.7964 66.4012 55.7964ZM80.5717 46.1844C80.8357 46.1844 81.0517 46.2744 81.2197 46.4544C81.3877 46.6224 81.4717 46.8384 81.4717 47.1024V54.8784C81.4717 55.1424 81.3877 55.3644 81.2197 55.5444C81.0517 55.7124 80.8357 55.7964 80.5717 55.7964C80.3197 55.7964 80.1037 55.7124 79.9237 55.5444C79.7557 55.3644 79.6717 55.1424 79.6717 54.8784V53.5824L80.0497 53.6364C80.0497 53.8524 79.9597 54.0924 79.7797 54.3564C79.6117 54.6204 79.3777 54.8784 79.0777 55.1304C78.7777 55.3704 78.4237 55.5744 78.0157 55.7424C77.6077 55.8984 77.1697 55.9764 76.7017 55.9764C75.8737 55.9764 75.1297 55.7664 74.4697 55.3464C73.8097 54.9144 73.2877 54.3264 72.9037 53.5824C72.5197 52.8384 72.3277 51.9924 72.3277 51.0444C72.3277 50.0724 72.5197 49.2204 72.9037 48.4884C73.2877 47.7444 73.8037 47.1624 74.4517 46.7424C75.1117 46.3224 75.8437 46.1124 76.6477 46.1124C77.1637 46.1124 77.6377 46.1964 78.0697 46.3644C78.5137 46.5324 78.8977 46.7484 79.2217 47.0124C79.5457 47.2764 79.7917 47.5584 79.9597 47.8584C80.1397 48.1464 80.2297 48.4224 80.2297 48.6864L79.6717 48.7404V47.1024C79.6717 46.8504 79.7557 46.6344 79.9237 46.4544C80.1037 46.2744 80.3197 46.1844 80.5717 46.1844ZM76.8997 54.3204C77.4637 54.3204 77.9617 54.1764 78.3937 53.8884C78.8257 53.6004 79.1617 53.2104 79.4017 52.7184C79.6417 52.2144 79.7617 51.6564 79.7617 51.0444C79.7617 50.4204 79.6417 49.8624 79.4017 49.3704C79.1617 48.8784 78.8257 48.4884 78.3937 48.2004C77.9617 47.9124 77.4637 47.7684 76.8997 47.7684C76.3477 47.7684 75.8557 47.9124 75.4237 48.2004C75.0037 48.4884 74.6677 48.8784 74.4157 49.3704C74.1757 49.8624 74.0557 50.4204 74.0557 51.0444C74.0557 51.6564 74.1757 52.2144 74.4157 52.7184C74.6677 53.2104 75.0037 53.6004 75.4237 53.8884C75.8557 54.1764 76.3477 54.3204 76.8997 54.3204ZM88.8714 46.1124C89.7234 46.1124 90.3834 46.2924 90.8514 46.6524C91.3194 47.0004 91.6434 47.4744 91.8234 48.0744C92.0154 48.6624 92.1114 49.3224 92.1114 50.0544V54.8784C92.1114 55.1424 92.0214 55.3644 91.8414 55.5444C91.6734 55.7124 91.4634 55.7964 91.2114 55.7964C90.9474 55.7964 90.7314 55.7124 90.5634 55.5444C90.3954 55.3644 90.3114 55.1424 90.3114 54.8784V50.0724C90.3114 49.6404 90.2514 49.2564 90.1314 48.9204C90.0114 48.5724 89.8014 48.2964 89.5014 48.0924C89.2134 47.8764 88.8054 47.7684 88.2774 47.7684C87.7854 47.7684 87.3534 47.8764 86.9814 48.0924C86.6094 48.2964 86.3154 48.5724 86.0994 48.9204C85.8954 49.2564 85.7934 49.6404 85.7934 50.0724V54.8784C85.7934 55.1424 85.7034 55.3644 85.5234 55.5444C85.3554 55.7124 85.1454 55.7964 84.8934 55.7964C84.6294 55.7964 84.4134 55.7124 84.2454 55.5444C84.0774 55.3644 83.9934 55.1424 83.9934 54.8784V47.2464C83.9934 46.9824 84.0774 46.7664 84.2454 46.5984C84.4134 46.4184 84.6294 46.3284 84.8934 46.3284C85.1454 46.3284 85.3554 46.4184 85.5234 46.5984C85.7034 46.7664 85.7934 46.9824 85.7934 47.2464V48.2544L85.4694 48.4344C85.5534 48.1704 85.6974 47.9064 85.9014 47.6424C86.1174 47.3664 86.3754 47.1144 86.6754 46.8864C86.9754 46.6464 87.3114 46.4604 87.6834 46.3284C88.0554 46.1844 88.4514 46.1124 88.8714 46.1124ZM94.0526 54.3204C93.9446 54.1524 93.8966 53.9604 93.9086 53.7444C93.9206 53.5164 94.0466 53.3244 94.2866 53.1684C94.4546 53.0604 94.6286 53.0184 94.8086 53.0424C95.0006 53.0544 95.1806 53.1444 95.3486 53.3124C95.6846 53.6844 96.0566 53.9784 96.4646 54.1944C96.8846 54.4104 97.3886 54.5184 97.9766 54.5184C98.2166 54.5064 98.4626 54.4704 98.7146 54.4104C98.9666 54.3384 99.1826 54.2184 99.3626 54.0504C99.5426 53.8704 99.6326 53.6124 99.6326 53.2764C99.6326 52.9764 99.5366 52.7364 99.3446 52.5564C99.1526 52.3764 98.9006 52.2324 98.5886 52.1244C98.2766 52.0044 97.9406 51.8964 97.5806 51.8004C97.1966 51.6924 96.8066 51.5724 96.4106 51.4404C96.0266 51.3084 95.6786 51.1404 95.3666 50.9364C95.0546 50.7204 94.7966 50.4444 94.5926 50.1084C94.4006 49.7724 94.3046 49.3584 94.3046 48.8664C94.3046 48.3024 94.4606 47.8164 94.7726 47.4084C95.0966 47.0004 95.5106 46.6824 96.0146 46.4544C96.5306 46.2264 97.0886 46.1124 97.6886 46.1124C98.0366 46.1124 98.4026 46.1604 98.7866 46.2564C99.1706 46.3404 99.5426 46.4784 99.9026 46.6704C100.263 46.8624 100.575 47.1144 100.839 47.4264C100.959 47.5824 101.025 47.7684 101.037 47.9844C101.061 48.2004 100.965 48.3924 100.749 48.5604C100.605 48.6804 100.431 48.7344 100.227 48.7224C100.023 48.7104 99.8546 48.6444 99.7226 48.5244C99.4946 48.2364 99.2006 48.0144 98.8406 47.8584C98.4806 47.6904 98.0726 47.6064 97.6166 47.6064C97.3886 47.6064 97.1486 47.6424 96.8966 47.7144C96.6566 47.7744 96.4526 47.8884 96.2846 48.0564C96.1166 48.2244 96.0326 48.4704 96.0326 48.7944C96.0326 49.0944 96.1286 49.3344 96.3206 49.5144C96.5246 49.6944 96.7886 49.8444 97.1126 49.9644C97.4366 50.0844 97.7906 50.1924 98.1746 50.2884C98.5466 50.3844 98.9126 50.4984 99.2726 50.6304C99.6446 50.7624 99.9746 50.9364 100.263 51.1524C100.563 51.3564 100.803 51.6264 100.983 51.9624C101.175 52.2864 101.271 52.7004 101.271 53.2044C101.271 53.7924 101.097 54.2964 100.749 54.7164C100.413 55.1244 99.9806 55.4364 99.4526 55.6524C98.9366 55.8684 98.3906 55.9764 97.8146 55.9764C97.1306 55.9764 96.4466 55.8564 95.7626 55.6164C95.0906 55.3644 94.5206 54.9324 94.0526 54.3204ZM105.15 54.8784C105.15 55.1424 105.06 55.3644 104.88 55.5444C104.712 55.7124 104.502 55.7964 104.25 55.7964C103.998 55.7964 103.782 55.7124 103.602 55.5444C103.434 55.3644 103.35 55.1424 103.35 54.8784V43.3944C103.35 43.1304 103.44 42.9144 103.62 42.7464C103.8 42.5664 104.016 42.4764 104.268 42.4764C104.532 42.4764 104.742 42.5664 104.898 42.7464C105.066 42.9144 105.15 43.1304 105.15 43.3944V54.8784ZM115.587 46.1844C115.851 46.1844 116.067 46.2744 116.235 46.4544C116.403 46.6224 116.487 46.8384 116.487 47.1024V54.8784C116.487 55.1424 116.403 55.3644 116.235 55.5444C116.067 55.7124 115.851 55.7964 115.587 55.7964C115.335 55.7964 115.119 55.7124 114.939 55.5444C114.771 55.3644 114.687 55.1424 114.687 54.8784V53.5824L115.065 53.6364C115.065 53.8524 114.975 54.0924 114.795 54.3564C114.627 54.6204 114.393 54.8784 114.093 55.1304C113.793 55.3704 113.439 55.5744 113.031 55.7424C112.623 55.8984 112.185 55.9764 111.717 55.9764C110.889 55.9764 110.145 55.7664 109.485 55.3464C108.825 54.9144 108.303 54.3264 107.919 53.5824C107.535 52.8384 107.343 51.9924 107.343 51.0444C107.343 50.0724 107.535 49.2204 107.919 48.4884C108.303 47.7444 108.819 47.1624 109.467 46.7424C110.127 46.3224 110.859 46.1124 111.663 46.1124C112.179 46.1124 112.653 46.1964 113.085 46.3644C113.529 46.5324 113.913 46.7484 114.237 47.0124C114.561 47.2764 114.807 47.5584 114.975 47.8584C115.155 48.1464 115.245 48.4224 115.245 48.6864L114.687 48.7404V47.1024C114.687 46.8504 114.771 46.6344 114.939 46.4544C115.119 46.2744 115.335 46.1844 115.587 46.1844ZM111.915 54.3204C112.479 54.3204 112.977 54.1764 113.409 53.8884C113.841 53.6004 114.177 53.2104 114.417 52.7184C114.657 52.2144 114.777 51.6564 114.777 51.0444C114.777 50.4204 114.657 49.8624 114.417 49.3704C114.177 48.8784 113.841 48.4884 113.409 48.2004C112.977 47.9124 112.479 47.7684 111.915 47.7684C111.363 47.7684 110.871 47.9124 110.439 48.2004C110.019 48.4884 109.683 48.8784 109.431 49.3704C109.191 49.8624 109.071 50.4204 109.071 51.0444C109.071 51.6564 109.191 52.2144 109.431 52.7184C109.683 53.2104 110.019 53.6004 110.439 53.8884C110.871 54.1764 111.363 54.3204 111.915 54.3204ZM118.883 46.4364H123.113C123.353 46.4364 123.551 46.5204 123.707 46.6884C123.875 46.8444 123.959 47.0424 123.959 47.2824C123.959 47.5104 123.875 47.7024 123.707 47.8584C123.551 48.0144 123.353 48.0924 123.113 48.0924H118.883C118.643 48.0924 118.439 48.0144 118.271 47.8584C118.115 47.6904 118.037 47.4924 118.037 47.2644C118.037 47.0244 118.115 46.8264 118.271 46.6704C118.439 46.5144 118.643 46.4364 118.883 46.4364ZM120.773 44.0964C121.037 44.0964 121.253 44.1864 121.421 44.3664C121.589 44.5344 121.673 44.7504 121.673 45.0144V53.3664C121.673 53.5824 121.709 53.7564 121.781 53.8884C121.853 54.0204 121.949 54.1104 122.069 54.1584C122.201 54.2064 122.333 54.2304 122.465 54.2304C122.597 54.2304 122.711 54.2064 122.807 54.1584C122.915 54.1104 123.041 54.0864 123.185 54.0864C123.329 54.0864 123.461 54.1524 123.581 54.2844C123.701 54.4164 123.761 54.5964 123.761 54.8244C123.761 55.1124 123.605 55.3464 123.293 55.5264C122.981 55.7064 122.645 55.7964 122.285 55.7964C122.081 55.7964 121.841 55.7784 121.565 55.7424C121.289 55.7064 121.019 55.6164 120.755 55.4724C120.503 55.3284 120.293 55.1004 120.125 54.7884C119.957 54.4644 119.873 54.0144 119.873 53.4384V45.0144C119.873 44.7504 119.957 44.5344 120.125 44.3664C120.305 44.1864 120.521 44.0964 120.773 44.0964ZM127.644 54.8784C127.644 55.1424 127.56 55.3644 127.392 55.5444C127.224 55.7124 127.008 55.7964 126.744 55.7964C126.492 55.7964 126.276 55.7124 126.096 55.5444C125.928 55.3644 125.844 55.1424 125.844 54.8784V47.1744C125.844 46.9104 125.928 46.6944 126.096 46.5264C126.276 46.3464 126.492 46.2564 126.744 46.2564C127.008 46.2564 127.224 46.3464 127.392 46.5264C127.56 46.6944 127.644 46.9104 127.644 47.1744V54.8784ZM126.726 45.0684C126.378 45.0684 126.126 45.0084 125.97 44.8884C125.814 44.7564 125.736 44.5404 125.736 44.2404V43.9524C125.736 43.6524 125.82 43.4424 125.988 43.3224C126.156 43.2024 126.408 43.1424 126.744 43.1424C127.104 43.1424 127.362 43.2084 127.518 43.3404C127.674 43.4604 127.752 43.6644 127.752 43.9524V44.2404C127.752 44.5524 127.668 44.7684 127.5 44.8884C127.344 45.0084 127.086 45.0684 126.726 45.0684ZM139.138 51.0624C139.138 52.0224 138.928 52.8744 138.508 53.6184C138.088 54.3504 137.518 54.9264 136.798 55.3464C136.078 55.7664 135.268 55.9764 134.368 55.9764C133.468 55.9764 132.658 55.7664 131.938 55.3464C131.218 54.9264 130.642 54.3504 130.21 53.6184C129.79 52.8744 129.58 52.0224 129.58 51.0624C129.58 50.0904 129.79 49.2384 130.21 48.5064C130.642 47.7624 131.218 47.1804 131.938 46.7604C132.658 46.3284 133.468 46.1124 134.368 46.1124C135.268 46.1124 136.078 46.3284 136.798 46.7604C137.518 47.1804 138.088 47.7624 138.508 48.5064C138.928 49.2384 139.138 50.0904 139.138 51.0624ZM137.338 51.0624C137.338 50.4024 137.206 49.8324 136.942 49.3524C136.678 48.8604 136.318 48.4764 135.862 48.2004C135.418 47.9124 134.92 47.7684 134.368 47.7684C133.816 47.7684 133.312 47.9124 132.856 48.2004C132.4 48.4764 132.04 48.8604 131.776 49.3524C131.512 49.8324 131.38 50.4024 131.38 51.0624C131.38 51.6984 131.512 52.2624 131.776 52.7544C132.04 53.2464 132.4 53.6304 132.856 53.9064C133.312 54.1824 133.816 54.3204 134.368 54.3204C134.92 54.3204 135.418 54.1824 135.862 53.9064C136.318 53.6304 136.678 53.2464 136.942 52.7544C137.206 52.2624 137.338 51.6984 137.338 51.0624ZM146.053 46.1124C146.905 46.1124 147.565 46.2924 148.033 46.6524C148.501 47.0004 148.825 47.4744 149.005 48.0744C149.197 48.6624 149.293 49.3224 149.293 50.0544V54.8784C149.293 55.1424 149.203 55.3644 149.023 55.5444C148.855 55.7124 148.645 55.7964 148.393 55.7964C148.129 55.7964 147.913 55.7124 147.745 55.5444C147.577 55.3644 147.493 55.1424 147.493 54.8784V50.0724C147.493 49.6404 147.433 49.2564 147.313 48.9204C147.193 48.5724 146.983 48.2964 146.683 48.0924C146.395 47.8764 145.987 47.7684 145.459 47.7684C144.967 47.7684 144.535 47.8764 144.163 48.0924C143.791 48.2964 143.497 48.5724 143.281 48.9204C143.077 49.2564 142.975 49.6404 142.975 50.0724V54.8784C142.975 55.1424 142.885 55.3644 142.705 55.5444C142.537 55.7124 142.327 55.7964 142.075 55.7964C141.811 55.7964 141.595 55.7124 141.427 55.5444C141.259 55.3644 141.175 55.1424 141.175 54.8784V47.2464C141.175 46.9824 141.259 46.7664 141.427 46.5984C141.595 46.4184 141.811 46.3284 142.075 46.3284C142.327 46.3284 142.537 46.4184 142.705 46.5984C142.885 46.7664 142.975 46.9824 142.975 47.2464V48.2544L142.651 48.4344C142.735 48.1704 142.879 47.9064 143.083 47.6424C143.299 47.3664 143.557 47.1144 143.857 46.8864C144.157 46.6464 144.493 46.4604 144.865 46.3284C145.237 46.1844 145.633 46.1124 146.053 46.1124ZM159.55 46.1844C159.814 46.1844 160.03 46.2744 160.198 46.4544C160.366 46.6224 160.45 46.8384 160.45 47.1024V54.8784C160.45 55.1424 160.366 55.3644 160.198 55.5444C160.03 55.7124 159.814 55.7964 159.55 55.7964C159.298 55.7964 159.082 55.7124 158.902 55.5444C158.734 55.3644 158.65 55.1424 158.65 54.8784V53.5824L159.028 53.6364C159.028 53.8524 158.938 54.0924 158.758 54.3564C158.59 54.6204 158.356 54.8784 158.056 55.1304C157.756 55.3704 157.402 55.5744 156.994 55.7424C156.586 55.8984 156.148 55.9764 155.68 55.9764C154.852 55.9764 154.108 55.7664 153.448 55.3464C152.788 54.9144 152.266 54.3264 151.882 53.5824C151.498 52.8384 151.306 51.9924 151.306 51.0444C151.306 50.0724 151.498 49.2204 151.882 48.4884C152.266 47.7444 152.782 47.1624 153.43 46.7424C154.09 46.3224 154.822 46.1124 155.626 46.1124C156.142 46.1124 156.616 46.1964 157.048 46.3644C157.492 46.5324 157.876 46.7484 158.2 47.0124C158.524 47.2764 158.77 47.5584 158.938 47.8584C159.118 48.1464 159.208 48.4224 159.208 48.6864L158.65 48.7404V47.1024C158.65 46.8504 158.734 46.6344 158.902 46.4544C159.082 46.2744 159.298 46.1844 159.55 46.1844ZM155.878 54.3204C156.442 54.3204 156.94 54.1764 157.372 53.8884C157.804 53.6004 158.14 53.2104 158.38 52.7184C158.62 52.2144 158.74 51.6564 158.74 51.0444C158.74 50.4204 158.62 49.8624 158.38 49.3704C158.14 48.8784 157.804 48.4884 157.372 48.2004C156.94 47.9124 156.442 47.7684 155.878 47.7684C155.326 47.7684 154.834 47.9124 154.402 48.2004C153.982 48.4884 153.646 48.8784 153.394 49.3704C153.154 49.8624 153.034 50.4204 153.034 51.0444C153.034 51.6564 153.154 52.2144 153.394 52.7184C153.646 53.2104 153.982 53.6004 154.402 53.8884C154.834 54.1764 155.326 54.3204 155.878 54.3204ZM164.916 54.8784C164.916 55.1424 164.826 55.3644 164.646 55.5444C164.478 55.7124 164.268 55.7964 164.016 55.7964C163.764 55.7964 163.548 55.7124 163.368 55.5444C163.2 55.3644 163.116 55.1424 163.116 54.8784V43.3944C163.116 43.1304 163.206 42.9144 163.386 42.7464C163.566 42.5664 163.782 42.4764 164.034 42.4764C164.298 42.4764 164.508 42.5664 164.664 42.7464C164.832 42.9144 164.916 43.1304 164.916 43.3944V54.8784ZM173.883 55.7964C173.595 55.7964 173.343 55.7124 173.127 55.5444C172.911 55.3644 172.803 55.1424 172.803 54.8784V44.1144C172.803 43.8504 172.893 43.6344 173.073 43.4664C173.253 43.2864 173.469 43.1964 173.721 43.1964H178.797C179.445 43.1964 180.039 43.3584 180.579 43.6824C181.119 43.9944 181.551 44.4324 181.875 44.9964C182.211 45.5484 182.379 46.1844 182.379 46.9044C182.379 47.3844 182.283 47.8464 182.091 48.2904C181.899 48.7224 181.641 49.1064 181.317 49.4424C180.993 49.7784 180.627 50.0304 180.219 50.1984L180.021 49.8564C180.393 49.9884 180.717 50.1804 180.993 50.4324C181.269 50.6724 181.485 50.9604 181.641 51.2964C181.809 51.6204 181.899 51.9924 181.911 52.4124C181.947 52.7844 181.977 53.0964 182.001 53.3484C182.037 53.5884 182.085 53.7864 182.145 53.9424C182.205 54.0984 182.313 54.2184 182.469 54.3024C182.685 54.4224 182.817 54.6024 182.865 54.8424C182.925 55.0824 182.877 55.2984 182.721 55.4904C182.613 55.6344 182.475 55.7304 182.307 55.7784C182.151 55.8144 181.989 55.8204 181.821 55.7964C181.653 55.7604 181.509 55.7124 181.389 55.6524C181.197 55.5324 180.999 55.3644 180.795 55.1484C180.603 54.9204 180.447 54.6084 180.327 54.2124C180.207 53.8164 180.147 53.2944 180.147 52.6464C180.147 52.3464 180.099 52.0884 180.003 51.8724C179.907 51.6564 179.775 51.4824 179.607 51.3504C179.439 51.2064 179.241 51.1044 179.013 51.0444C178.785 50.9724 178.533 50.9364 178.257 50.9364H174.441L174.693 50.5764V54.8784C174.693 55.1424 174.621 55.3644 174.477 55.5444C174.333 55.7124 174.135 55.7964 173.883 55.7964ZM174.459 49.3704H178.761C179.037 49.3584 179.301 49.2504 179.553 49.0464C179.817 48.8304 180.027 48.5424 180.183 48.1824C180.351 47.8224 180.435 47.4144 180.435 46.9584C180.435 46.3824 180.261 45.9024 179.913 45.5184C179.577 45.1224 179.175 44.9244 178.707 44.9244H174.495L174.693 44.4564V49.7484L174.459 49.3704ZM189.179 55.9764C188.183 55.9764 187.319 55.7724 186.587 55.3644C185.855 54.9444 185.285 54.3744 184.877 53.6544C184.481 52.9224 184.283 52.0884 184.283 51.1524C184.283 50.0964 184.493 49.1964 184.913 48.4524C185.345 47.6964 185.903 47.1204 186.587 46.7244C187.271 46.3164 187.997 46.1124 188.765 46.1124C189.353 46.1124 189.911 46.2324 190.439 46.4724C190.967 46.7004 191.435 47.0244 191.843 47.4444C192.263 47.8524 192.593 48.3384 192.833 48.9024C193.073 49.4544 193.199 50.0604 193.211 50.7204C193.199 50.9604 193.103 51.1584 192.923 51.3144C192.743 51.4704 192.533 51.5484 192.293 51.5484H185.291L184.859 50.0184H191.627L191.285 50.3424V49.8924C191.261 49.4724 191.123 49.1064 190.871 48.7944C190.619 48.4704 190.307 48.2244 189.935 48.0564C189.563 47.8764 189.173 47.7864 188.765 47.7864C188.405 47.7864 188.057 47.8464 187.721 47.9664C187.397 48.0744 187.103 48.2544 186.839 48.5064C186.587 48.7584 186.383 49.0944 186.227 49.5144C186.083 49.9224 186.011 50.4324 186.011 51.0444C186.011 51.7044 186.149 52.2804 186.425 52.7724C186.701 53.2644 187.073 53.6484 187.541 53.9244C188.009 54.1884 188.525 54.3204 189.089 54.3204C189.533 54.3204 189.899 54.2784 190.187 54.1944C190.475 54.0984 190.715 53.9844 190.907 53.8524C191.099 53.7204 191.267 53.5944 191.411 53.4744C191.591 53.3664 191.771 53.3124 191.951 53.3124C192.167 53.3124 192.347 53.3904 192.491 53.5464C192.635 53.6904 192.707 53.8644 192.707 54.0684C192.707 54.3324 192.575 54.5724 192.311 54.7884C191.987 55.1004 191.537 55.3764 190.961 55.6164C190.397 55.8564 189.803 55.9764 189.179 55.9764ZM194.687 54.3204C194.579 54.1524 194.531 53.9604 194.543 53.7444C194.555 53.5164 194.681 53.3244 194.921 53.1684C195.089 53.0604 195.263 53.0184 195.443 53.0424C195.635 53.0544 195.815 53.1444 195.983 53.3124C196.319 53.6844 196.691 53.9784 197.099 54.1944C197.519 54.4104 198.023 54.5184 198.611 54.5184C198.851 54.5064 199.097 54.4704 199.349 54.4104C199.601 54.3384 199.817 54.2184 199.997 54.0504C200.177 53.8704 200.267 53.6124 200.267 53.2764C200.267 52.9764 200.171 52.7364 199.979 52.5564C199.787 52.3764 199.535 52.2324 199.223 52.1244C198.911 52.0044 198.575 51.8964 198.215 51.8004C197.831 51.6924 197.441 51.5724 197.045 51.4404C196.661 51.3084 196.313 51.1404 196.001 50.9364C195.689 50.7204 195.431 50.4444 195.227 50.1084C195.035 49.7724 194.939 49.3584 194.939 48.8664C194.939 48.3024 195.095 47.8164 195.407 47.4084C195.731 47.0004 196.145 46.6824 196.649 46.4544C197.165 46.2264 197.723 46.1124 198.323 46.1124C198.671 46.1124 199.037 46.1604 199.421 46.2564C199.805 46.3404 200.177 46.4784 200.537 46.6704C200.897 46.8624 201.209 47.1144 201.473 47.4264C201.593 47.5824 201.659 47.7684 201.671 47.9844C201.695 48.2004 201.599 48.3924 201.383 48.5604C201.239 48.6804 201.065 48.7344 200.861 48.7224C200.657 48.7104 200.489 48.6444 200.357 48.5244C200.129 48.2364 199.835 48.0144 199.475 47.8584C199.115 47.6904 198.707 47.6064 198.251 47.6064C198.023 47.6064 197.783 47.6424 197.531 47.7144C197.291 47.7744 197.087 47.8884 196.919 48.0564C196.751 48.2244 196.667 48.4704 196.667 48.7944C196.667 49.0944 196.763 49.3344 196.955 49.5144C197.159 49.6944 197.423 49.8444 197.747 49.9644C198.071 50.0844 198.425 50.1924 198.809 50.2884C199.181 50.3844 199.547 50.4984 199.907 50.6304C200.279 50.7624 200.609 50.9364 200.897 51.1524C201.197 51.3564 201.437 51.6264 201.617 51.9624C201.809 52.2864 201.905 52.7004 201.905 53.2044C201.905 53.7924 201.731 54.2964 201.383 54.7164C201.047 55.1244 200.615 55.4364 200.087 55.6524C199.571 55.8684 199.025 55.9764 198.449 55.9764C197.765 55.9764 197.081 55.8564 196.397 55.6164C195.725 55.3644 195.155 54.9324 194.687 54.3204ZM208.251 55.9764C207.255 55.9764 206.391 55.7724 205.659 55.3644C204.927 54.9444 204.357 54.3744 203.949 53.6544C203.553 52.9224 203.355 52.0884 203.355 51.1524C203.355 50.0964 203.565 49.1964 203.985 48.4524C204.417 47.6964 204.975 47.1204 205.659 46.7244C206.343 46.3164 207.069 46.1124 207.837 46.1124C208.425 46.1124 208.983 46.2324 209.511 46.4724C210.039 46.7004 210.507 47.0244 210.915 47.4444C211.335 47.8524 211.665 48.3384 211.905 48.9024C212.145 49.4544 212.271 50.0604 212.283 50.7204C212.271 50.9604 212.175 51.1584 211.995 51.3144C211.815 51.4704 211.605 51.5484 211.365 51.5484H204.363L203.931 50.0184H210.699L210.357 50.3424V49.8924C210.333 49.4724 210.195 49.1064 209.943 48.7944C209.691 48.4704 209.379 48.2244 209.007 48.0564C208.635 47.8764 208.245 47.7864 207.837 47.7864C207.477 47.7864 207.129 47.8464 206.793 47.9664C206.469 48.0744 206.175 48.2544 205.911 48.5064C205.659 48.7584 205.455 49.0944 205.299 49.5144C205.155 49.9224 205.083 50.4324 205.083 51.0444C205.083 51.7044 205.221 52.2804 205.497 52.7724C205.773 53.2644 206.145 53.6484 206.613 53.9244C207.081 54.1884 207.597 54.3204 208.161 54.3204C208.605 54.3204 208.971 54.2784 209.259 54.1944C209.547 54.0984 209.787 53.9844 209.979 53.8524C210.171 53.7204 210.339 53.5944 210.483 53.4744C210.663 53.3664 210.843 53.3124 211.023 53.3124C211.239 53.3124 211.419 53.3904 211.563 53.5464C211.707 53.6904 211.779 53.8644 211.779 54.0684C211.779 54.3324 211.647 54.5724 211.383 54.7884C211.059 55.1004 210.609 55.3764 210.033 55.6164C209.469 55.8564 208.875 55.9764 208.251 55.9764ZM222.146 46.1844C222.41 46.1844 222.626 46.2744 222.794 46.4544C222.962 46.6224 223.046 46.8384 223.046 47.1024V54.8784C223.046 55.1424 222.962 55.3644 222.794 55.5444C222.626 55.7124 222.41 55.7964 222.146 55.7964C221.894 55.7964 221.678 55.7124 221.498 55.5444C221.33 55.3644 221.246 55.1424 221.246 54.8784V53.5824L221.624 53.6364C221.624 53.8524 221.534 54.0924 221.354 54.3564C221.186 54.6204 220.952 54.8784 220.652 55.1304C220.352 55.3704 219.998 55.5744 219.59 55.7424C219.182 55.8984 218.744 55.9764 218.276 55.9764C217.448 55.9764 216.704 55.7664 216.044 55.3464C215.384 54.9144 214.862 54.3264 214.478 53.5824C214.094 52.8384 213.902 51.9924 213.902 51.0444C213.902 50.0724 214.094 49.2204 214.478 48.4884C214.862 47.7444 215.378 47.1624 216.026 46.7424C216.686 46.3224 217.418 46.1124 218.222 46.1124C218.738 46.1124 219.212 46.1964 219.644 46.3644C220.088 46.5324 220.472 46.7484 220.796 47.0124C221.12 47.2764 221.366 47.5584 221.534 47.8584C221.714 48.1464 221.804 48.4224 221.804 48.6864L221.246 48.7404V47.1024C221.246 46.8504 221.33 46.6344 221.498 46.4544C221.678 46.2744 221.894 46.1844 222.146 46.1844ZM218.474 54.3204C219.038 54.3204 219.536 54.1764 219.968 53.8884C220.4 53.6004 220.736 53.2104 220.976 52.7184C221.216 52.2144 221.336 51.6564 221.336 51.0444C221.336 50.4204 221.216 49.8624 220.976 49.3704C220.736 48.8784 220.4 48.4884 219.968 48.2004C219.536 47.9124 219.038 47.7684 218.474 47.7684C217.922 47.7684 217.43 47.9124 216.998 48.2004C216.578 48.4884 216.242 48.8784 215.99 49.3704C215.75 49.8624 215.63 50.4204 215.63 51.0444C215.63 51.6564 215.75 52.2144 215.99 52.7184C216.242 53.2104 216.578 53.6004 216.998 53.8884C217.43 54.1764 217.922 54.3204 218.474 54.3204ZM226.468 55.7964C226.204 55.7964 225.988 55.7124 225.82 55.5444C225.652 55.3644 225.568 55.1424 225.568 54.8784V47.2464C225.568 46.9824 225.652 46.7664 225.82 46.5984C225.988 46.4184 226.204 46.3284 226.468 46.3284C226.72 46.3284 226.93 46.4184 227.098 46.5984C227.278 46.7664 227.368 46.9824 227.368 47.2464V49.2624L227.188 48.4884C227.284 48.1524 227.428 47.8404 227.62 47.5524C227.824 47.2644 228.064 47.0124 228.34 46.7964C228.616 46.5804 228.922 46.4124 229.258 46.2924C229.606 46.1724 229.966 46.1124 230.338 46.1124C230.65 46.1124 230.92 46.1964 231.148 46.3644C231.376 46.5324 231.49 46.7424 231.49 46.9944C231.49 47.3184 231.406 47.5584 231.238 47.7144C231.07 47.8584 230.884 47.9304 230.68 47.9304C230.5 47.9304 230.326 47.8944 230.158 47.8224C229.99 47.7384 229.792 47.6964 229.564 47.6964C229.312 47.6964 229.054 47.7624 228.79 47.8944C228.526 48.0264 228.286 48.2244 228.07 48.4884C227.854 48.7404 227.68 49.0404 227.548 49.3884C227.428 49.7364 227.368 50.1264 227.368 50.5584V54.8784C227.368 55.1424 227.278 55.3644 227.098 55.5444C226.93 55.7124 226.72 55.7964 226.468 55.7964ZM236.881 46.1124C237.529 46.1124 238.105 46.1844 238.609 46.3284C239.113 46.4604 239.503 46.6524 239.779 46.9044C240.067 47.1444 240.211 47.4264 240.211 47.7504C240.211 47.9544 240.151 48.1464 240.031 48.3264C239.911 48.4944 239.731 48.5784 239.491 48.5784C239.323 48.5784 239.179 48.5484 239.059 48.4884C238.951 48.4284 238.849 48.3564 238.753 48.2724C238.657 48.1884 238.537 48.1044 238.393 48.0204C238.261 47.9484 238.063 47.8884 237.799 47.8404C237.547 47.7924 237.319 47.7684 237.115 47.7684C236.479 47.7684 235.927 47.9124 235.459 48.2004C235.003 48.4884 234.643 48.8784 234.379 49.3704C234.127 49.8624 234.001 50.4204 234.001 51.0444C234.001 51.6684 234.127 52.2264 234.379 52.7184C234.643 53.2104 234.997 53.6004 235.441 53.8884C235.897 54.1764 236.425 54.3204 237.025 54.3204C237.385 54.3204 237.679 54.2964 237.907 54.2484C238.135 54.1884 238.333 54.1164 238.501 54.0324C238.681 53.9244 238.831 53.8164 238.951 53.7084C239.083 53.5884 239.263 53.5284 239.491 53.5284C239.755 53.5284 239.953 53.6124 240.085 53.7804C240.229 53.9364 240.301 54.1344 240.301 54.3744C240.301 54.6384 240.139 54.8964 239.815 55.1484C239.503 55.3884 239.083 55.5864 238.555 55.7424C238.027 55.8984 237.445 55.9764 236.809 55.9764C235.873 55.9764 235.057 55.7604 234.361 55.3284C233.677 54.8964 233.143 54.3084 232.759 53.5644C232.387 52.8204 232.201 51.9804 232.201 51.0444C232.201 50.0964 232.399 49.2564 232.795 48.5244C233.191 47.7804 233.743 47.1924 234.451 46.7604C235.159 46.3284 235.969 46.1124 236.881 46.1124ZM246.791 46.1664C247.619 46.1664 248.261 46.3464 248.717 46.7064C249.173 47.0544 249.491 47.5284 249.671 48.1284C249.863 48.7284 249.959 49.3884 249.959 50.1084V54.8784C249.959 55.1424 249.869 55.3644 249.689 55.5444C249.521 55.7124 249.311 55.7964 249.059 55.7964C248.795 55.7964 248.579 55.7124 248.411 55.5444C248.243 55.3644 248.159 55.1424 248.159 54.8784V50.1084C248.159 49.6884 248.099 49.3044 247.979 48.9564C247.871 48.6084 247.673 48.3324 247.385 48.1284C247.109 47.9244 246.719 47.8224 246.215 47.8224C245.747 47.8224 245.327 47.9244 244.955 48.1284C244.595 48.3324 244.313 48.6084 244.109 48.9564C243.917 49.3044 243.821 49.6884 243.821 50.1084V54.8784C243.821 55.1424 243.731 55.3644 243.551 55.5444C243.383 55.7124 243.173 55.7964 242.921 55.7964C242.657 55.7964 242.441 55.7124 242.273 55.5444C242.105 55.3644 242.021 55.1424 242.021 54.8784V43.3944C242.021 43.1304 242.105 42.9144 242.273 42.7464C242.441 42.5664 242.657 42.4764 242.921 42.4764C243.173 42.4764 243.383 42.5664 243.551 42.7464C243.731 42.9144 243.821 43.1304 243.821 43.3944V48.3084L243.497 48.4884C243.581 48.2244 243.719 47.9544 243.911 47.6784C244.115 47.4024 244.361 47.1504 244.649 46.9224C244.949 46.6944 245.279 46.5144 245.639 46.3824C245.999 46.2384 246.383 46.1664 246.791 46.1664Z" fill="black"/>
<rect x="51.6855" y="75.7964" width="202" height="34" rx="17" fill="white" fill-opacity="0.85"/>
<path d="M78.775 87.1964C79.879 87.1964 80.713 87.4664 81.277 88.0064C81.853 88.5464 82.141 89.3324 82.141 90.3644C82.141 90.9044 82.009 91.3964 81.745 91.8404C81.493 92.2724 81.115 92.6144 80.611 92.8664C80.119 93.1184 79.501 93.2504 78.757 93.2624L78.793 92.5964C79.189 92.5964 79.615 92.6504 80.071 92.7584C80.539 92.8664 80.977 93.0524 81.385 93.3164C81.793 93.5804 82.129 93.9404 82.393 94.3964C82.657 94.8404 82.789 95.3984 82.789 96.0704C82.789 96.8024 82.669 97.4144 82.429 97.9064C82.189 98.3864 81.871 98.7644 81.475 99.0404C81.079 99.3164 80.641 99.5144 80.161 99.6344C79.693 99.7424 79.231 99.7964 78.775 99.7964H74.167C73.915 99.7964 73.699 99.7124 73.519 99.5444C73.339 99.3644 73.249 99.1424 73.249 98.8784V88.1144C73.249 87.8504 73.339 87.6344 73.519 87.4664C73.699 87.2864 73.915 87.1964 74.167 87.1964H78.775ZM78.523 88.9604H74.977L75.193 88.6724V92.5424L74.995 92.3444H78.559C78.991 92.3324 79.369 92.1884 79.693 91.9124C80.029 91.6244 80.197 91.2044 80.197 90.6524C80.197 90.0884 80.047 89.6684 79.747 89.3924C79.447 89.1044 79.039 88.9604 78.523 88.9604ZM78.649 94.1084H75.067L75.193 93.9824V98.2304L75.049 98.0684H78.757C79.381 98.0684 79.885 97.9064 80.269 97.5824C80.653 97.2464 80.845 96.7424 80.845 96.0704C80.845 95.5064 80.731 95.0864 80.503 94.8104C80.275 94.5344 79.993 94.3484 79.657 94.2524C79.321 94.1564 78.985 94.1084 78.649 94.1084ZM89.2208 99.9764C88.2248 99.9764 87.3608 99.7724 86.6288 99.3644C85.8968 98.9444 85.3268 98.3744 84.9188 97.6544C84.5228 96.9224 84.3248 96.0884 84.3248 95.1524C84.3248 94.0964 84.5348 93.1964 84.9548 92.4524C85.3868 91.6964 85.9448 91.1204 86.6288 90.7244C87.3128 90.3164 88.0388 90.1124 88.8068 90.1124C89.3948 90.1124 89.9528 90.2324 90.4808 90.4724C91.0088 90.7004 91.4768 91.0244 91.8848 91.4444C92.3048 91.8524 92.6348 92.3384 92.8748 92.9024C93.1148 93.4544 93.2408 94.0604 93.2528 94.7204C93.2408 94.9604 93.1448 95.1584 92.9648 95.3144C92.7848 95.4704 92.5748 95.5484 92.3348 95.5484H85.3328L84.9008 94.0184H91.6688L91.3268 94.3424V93.8924C91.3028 93.4724 91.1648 93.1064 90.9128 92.7944C90.6608 92.4704 90.3488 92.2244 89.9768 92.0564C89.6048 91.8764 89.2148 91.7864 88.8068 91.7864C88.4468 91.7864 88.0988 91.8464 87.7628 91.9664C87.4388 92.0744 87.1448 92.2544 86.8808 92.5064C86.6288 92.7584 86.4248 93.0944 86.2688 93.5144C86.1248 93.9224 86.0528 94.4324 86.0528 95.0444C86.0528 95.7044 86.1908 96.2804 86.4668 96.7724C86.7428 97.2644 87.1148 97.6484 87.5828 97.9244C88.0508 98.1884 88.5668 98.3204 89.1308 98.3204C89.5748 98.3204 89.9408 98.2784 90.2288 98.1944C90.5168 98.0984 90.7568 97.9844 90.9488 97.8524C91.1408 97.7204 91.3088 97.5944 91.4528 97.4744C91.6328 97.3664 91.8128 97.3124 91.9928 97.3124C92.2088 97.3124 92.3888 97.3904 92.5328 97.5464C92.6768 97.6904 92.7488 97.8644 92.7488 98.0684C92.7488 98.3324 92.6168 98.5724 92.3528 98.7884C92.0288 99.1004 91.5788 99.3764 91.0028 99.6164C90.4388 99.8564 89.8448 99.9764 89.2208 99.9764ZM100.057 90.1664C100.885 90.1664 101.527 90.3464 101.983 90.7064C102.439 91.0544 102.757 91.5284 102.937 92.1284C103.129 92.7284 103.225 93.3884 103.225 94.1084V98.8784C103.225 99.1424 103.135 99.3644 102.955 99.5444C102.787 99.7124 102.577 99.7964 102.325 99.7964C102.061 99.7964 101.845 99.7124 101.677 99.5444C101.509 99.3644 101.425 99.1424 101.425 98.8784V94.1084C101.425 93.6884 101.365 93.3044 101.245 92.9564C101.137 92.6084 100.939 92.3324 100.651 92.1284C100.375 91.9244 99.9853 91.8224 99.4813 91.8224C99.0133 91.8224 98.5933 91.9244 98.2213 92.1284C97.8613 92.3324 97.5793 92.6084 97.3753 92.9564C97.1833 93.3044 97.0873 93.6884 97.0873 94.1084V98.8784C97.0873 99.1424 96.9973 99.3644 96.8173 99.5444C96.6493 99.7124 96.4393 99.7964 96.1873 99.7964C95.9233 99.7964 95.7073 99.7124 95.5393 99.5444C95.3713 99.3644 95.2873 99.1424 95.2873 98.8784V87.3944C95.2873 87.1304 95.3713 86.9144 95.5393 86.7464C95.7073 86.5664 95.9233 86.4764 96.1873 86.4764C96.4393 86.4764 96.6493 86.5664 96.8173 86.7464C96.9973 86.9144 97.0873 87.1304 97.0873 87.3944V92.3084L96.7633 92.4884C96.8473 92.2244 96.9853 91.9544 97.1773 91.6784C97.3813 91.4024 97.6273 91.1504 97.9153 90.9224C98.2153 90.6944 98.5453 90.5144 98.9053 90.3824C99.2653 90.2384 99.6493 90.1664 100.057 90.1664ZM113.487 90.1844C113.751 90.1844 113.967 90.2744 114.135 90.4544C114.303 90.6224 114.387 90.8384 114.387 91.1024V98.8784C114.387 99.1424 114.303 99.3644 114.135 99.5444C113.967 99.7124 113.751 99.7964 113.487 99.7964C113.235 99.7964 113.019 99.7124 112.839 99.5444C112.671 99.3644 112.587 99.1424 112.587 98.8784V97.5824L112.965 97.6364C112.965 97.8524 112.875 98.0924 112.695 98.3564C112.527 98.6204 112.293 98.8784 111.993 99.1304C111.693 99.3704 111.339 99.5744 110.931 99.7424C110.523 99.8984 110.085 99.9764 109.617 99.9764C108.789 99.9764 108.045 99.7664 107.385 99.3464C106.725 98.9144 106.203 98.3264 105.819 97.5824C105.435 96.8384 105.243 95.9924 105.243 95.0444C105.243 94.0724 105.435 93.2204 105.819 92.4884C106.203 91.7444 106.719 91.1624 107.367 90.7424C108.027 90.3224 108.759 90.1124 109.563 90.1124C110.079 90.1124 110.553 90.1964 110.985 90.3644C111.429 90.5324 111.813 90.7484 112.137 91.0124C112.461 91.2764 112.707 91.5584 112.875 91.8584C113.055 92.1464 113.145 92.4224 113.145 92.6864L112.587 92.7404V91.1024C112.587 90.8504 112.671 90.6344 112.839 90.4544C113.019 90.2744 113.235 90.1844 113.487 90.1844ZM109.815 98.3204C110.379 98.3204 110.877 98.1764 111.309 97.8884C111.741 97.6004 112.077 97.2104 112.317 96.7184C112.557 96.2144 112.677 95.6564 112.677 95.0444C112.677 94.4204 112.557 93.8624 112.317 93.3704C112.077 92.8784 111.741 92.4884 111.309 92.2004C110.877 91.9124 110.379 91.7684 109.815 91.7684C109.263 91.7684 108.771 91.9124 108.339 92.2004C107.919 92.4884 107.583 92.8784 107.331 93.3704C107.091 93.8624 106.971 94.4204 106.971 95.0444C106.971 95.6564 107.091 96.2144 107.331 96.7184C107.583 97.2104 107.919 97.6004 108.339 97.8884C108.771 98.1764 109.263 98.3204 109.815 98.3204ZM116.914 90.2384C117.094 90.2384 117.262 90.2864 117.418 90.3824C117.586 90.4784 117.706 90.6224 117.778 90.8144L120.604 97.3484L120.262 97.5104L123.124 90.8324C123.292 90.4364 123.562 90.2444 123.934 90.2564C124.174 90.2564 124.372 90.3344 124.527 90.4904C124.696 90.6344 124.78 90.8264 124.78 91.0664C124.78 91.1384 124.768 91.2164 124.744 91.3004C124.72 91.3724 124.69 91.4444 124.654 91.5164L121.234 99.2204C121.078 99.5804 120.82 99.7724 120.46 99.7964C120.28 99.8204 120.1 99.7844 119.92 99.6884C119.752 99.5804 119.62 99.4244 119.524 99.2204L116.122 91.5164C116.098 91.4684 116.074 91.4084 116.05 91.3364C116.026 91.2524 116.014 91.1564 116.014 91.0484C116.014 90.8684 116.092 90.6884 116.248 90.5084C116.416 90.3284 116.638 90.2384 116.914 90.2384ZM128.304 98.8784C128.304 99.1424 128.22 99.3644 128.052 99.5444C127.884 99.7124 127.668 99.7964 127.404 99.7964C127.152 99.7964 126.936 99.7124 126.756 99.5444C126.588 99.3644 126.504 99.1424 126.504 98.8784V91.1744C126.504 90.9104 126.588 90.6944 126.756 90.5264C126.936 90.3464 127.152 90.2564 127.404 90.2564C127.668 90.2564 127.884 90.3464 128.052 90.5264C128.22 90.6944 128.304 90.9104 128.304 91.1744V98.8784ZM127.386 89.0684C127.038 89.0684 126.786 89.0084 126.63 88.8884C126.474 88.7564 126.396 88.5404 126.396 88.2404V87.9524C126.396 87.6524 126.48 87.4424 126.648 87.3224C126.816 87.2024 127.068 87.1424 127.404 87.1424C127.764 87.1424 128.022 87.2084 128.178 87.3404C128.334 87.4604 128.412 87.6644 128.412 87.9524V88.2404C128.412 88.5524 128.328 88.7684 128.16 88.8884C128.004 89.0084 127.746 89.0684 127.386 89.0684ZM139.797 95.0624C139.797 96.0224 139.587 96.8744 139.167 97.6184C138.747 98.3504 138.177 98.9264 137.457 99.3464C136.737 99.7664 135.927 99.9764 135.027 99.9764C134.127 99.9764 133.317 99.7664 132.597 99.3464C131.877 98.9264 131.301 98.3504 130.869 97.6184C130.449 96.8744 130.239 96.0224 130.239 95.0624C130.239 94.0904 130.449 93.2384 130.869 92.5064C131.301 91.7624 131.877 91.1804 132.597 90.7604C133.317 90.3284 134.127 90.1124 135.027 90.1124C135.927 90.1124 136.737 90.3284 137.457 90.7604C138.177 91.1804 138.747 91.7624 139.167 92.5064C139.587 93.2384 139.797 94.0904 139.797 95.0624ZM137.997 95.0624C137.997 94.4024 137.865 93.8324 137.601 93.3524C137.337 92.8604 136.977 92.4764 136.521 92.2004C136.077 91.9124 135.579 91.7684 135.027 91.7684C134.475 91.7684 133.971 91.9124 133.515 92.2004C133.059 92.4764 132.699 92.8604 132.435 93.3524C132.171 93.8324 132.039 94.4024 132.039 95.0624C132.039 95.6984 132.171 96.2624 132.435 96.7544C132.699 97.2464 133.059 97.6304 133.515 97.9064C133.971 98.1824 134.475 98.3204 135.027 98.3204C135.579 98.3204 136.077 98.1824 136.521 97.9064C136.977 97.6304 137.337 97.2464 137.601 96.7544C137.865 96.2624 137.997 95.6984 137.997 95.0624ZM142.734 99.7964C142.47 99.7964 142.254 99.7124 142.086 99.5444C141.918 99.3644 141.834 99.1424 141.834 98.8784V91.2464C141.834 90.9824 141.918 90.7664 142.086 90.5984C142.254 90.4184 142.47 90.3284 142.734 90.3284C142.986 90.3284 143.196 90.4184 143.364 90.5984C143.544 90.7664 143.634 90.9824 143.634 91.2464V93.2624L143.454 92.4884C143.55 92.1524 143.694 91.8404 143.886 91.5524C144.09 91.2644 144.33 91.0124 144.606 90.7964C144.882 90.5804 145.188 90.4124 145.524 90.2924C145.872 90.1724 146.232 90.1124 146.604 90.1124C146.916 90.1124 147.186 90.1964 147.414 90.3644C147.642 90.5324 147.756 90.7424 147.756 90.9944C147.756 91.3184 147.672 91.5584 147.504 91.7144C147.336 91.8584 147.15 91.9304 146.946 91.9304C146.766 91.9304 146.592 91.8944 146.424 91.8224C146.256 91.7384 146.058 91.6964 145.83 91.6964C145.578 91.6964 145.32 91.7624 145.056 91.8944C144.792 92.0264 144.552 92.2244 144.336 92.4884C144.12 92.7404 143.946 93.0404 143.814 93.3884C143.694 93.7364 143.634 94.1264 143.634 94.5584V98.8784C143.634 99.1424 143.544 99.3644 143.364 99.5444C143.196 99.7124 142.986 99.7964 142.734 99.7964ZM156.905 90.1844C157.169 90.1844 157.385 90.2744 157.553 90.4544C157.721 90.6224 157.805 90.8384 157.805 91.1024V98.8784C157.805 99.1424 157.721 99.3644 157.553 99.5444C157.385 99.7124 157.169 99.7964 156.905 99.7964C156.653 99.7964 156.437 99.7124 156.257 99.5444C156.089 99.3644 156.005 99.1424 156.005 98.8784V97.5824L156.383 97.6364C156.383 97.8524 156.293 98.0924 156.113 98.3564C155.945 98.6204 155.711 98.8784 155.411 99.1304C155.111 99.3704 154.757 99.5744 154.349 99.7424C153.941 99.8984 153.503 99.9764 153.035 99.9764C152.207 99.9764 151.463 99.7664 150.803 99.3464C150.143 98.9144 149.621 98.3264 149.237 97.5824C148.853 96.8384 148.661 95.9924 148.661 95.0444C148.661 94.0724 148.853 93.2204 149.237 92.4884C149.621 91.7444 150.137 91.1624 150.785 90.7424C151.445 90.3224 152.177 90.1124 152.981 90.1124C153.497 90.1124 153.971 90.1964 154.403 90.3644C154.847 90.5324 155.231 90.7484 155.555 91.0124C155.879 91.2764 156.125 91.5584 156.293 91.8584C156.473 92.1464 156.563 92.4224 156.563 92.6864L156.005 92.7404V91.1024C156.005 90.8504 156.089 90.6344 156.257 90.4544C156.437 90.2744 156.653 90.1844 156.905 90.1844ZM153.233 98.3204C153.797 98.3204 154.295 98.1764 154.727 97.8884C155.159 97.6004 155.495 97.2104 155.735 96.7184C155.975 96.2144 156.095 95.6564 156.095 95.0444C156.095 94.4204 155.975 93.8624 155.735 93.3704C155.495 92.8784 155.159 92.4884 154.727 92.2004C154.295 91.9124 153.797 91.7684 153.233 91.7684C152.681 91.7684 152.189 91.9124 151.757 92.2004C151.337 92.4884 151.001 92.8784 150.749 93.3704C150.509 93.8624 150.389 94.4204 150.389 95.0444C150.389 95.6564 150.509 96.2144 150.749 96.7184C151.001 97.2104 151.337 97.6004 151.757 97.8884C152.189 98.1764 152.681 98.3204 153.233 98.3204ZM162.27 98.8784C162.27 99.1424 162.18 99.3644 162 99.5444C161.832 99.7124 161.622 99.7964 161.37 99.7964C161.118 99.7964 160.902 99.7124 160.722 99.5444C160.554 99.3644 160.47 99.1424 160.47 98.8784V87.3944C160.47 87.1304 160.56 86.9144 160.74 86.7464C160.92 86.5664 161.136 86.4764 161.388 86.4764C161.652 86.4764 161.862 86.5664 162.018 86.7464C162.186 86.9144 162.27 87.1304 162.27 87.3944V98.8784ZM174.027 99.9764C173.163 99.9764 172.395 99.8564 171.723 99.6164C171.051 99.3764 170.409 98.9804 169.797 98.4284C169.665 98.3324 169.563 98.2184 169.491 98.0864C169.431 97.9424 169.401 97.7984 169.401 97.6544C169.401 97.4264 169.485 97.2224 169.653 97.0424C169.821 96.8624 170.031 96.7724 170.283 96.7724C170.475 96.7724 170.655 96.8384 170.823 96.9704C171.279 97.3904 171.753 97.7084 172.245 97.9244C172.749 98.1404 173.337 98.2484 174.009 98.2484C174.489 98.2484 174.927 98.1704 175.323 98.0144C175.731 97.8584 176.055 97.6484 176.295 97.3844C176.535 97.1204 176.655 96.8144 176.655 96.4664C176.655 96.0344 176.529 95.6804 176.277 95.4044C176.037 95.1164 175.683 94.8824 175.215 94.7024C174.759 94.5104 174.207 94.3484 173.559 94.2164C172.959 94.1084 172.419 93.9584 171.939 93.7664C171.471 93.5744 171.069 93.3344 170.733 93.0464C170.397 92.7464 170.139 92.3924 169.959 91.9844C169.779 91.5764 169.689 91.1024 169.689 90.5624C169.689 89.8304 169.881 89.2004 170.265 88.6724C170.649 88.1444 171.171 87.7364 171.831 87.4484C172.491 87.1604 173.235 87.0164 174.063 87.0164C174.819 87.0164 175.527 87.1364 176.187 87.3764C176.847 87.6044 177.381 87.9164 177.789 88.3124C178.077 88.5644 178.221 88.8344 178.221 89.1224C178.221 89.3384 178.131 89.5424 177.951 89.7344C177.783 89.9144 177.585 90.0044 177.357 90.0044C177.189 90.0044 177.045 89.9564 176.925 89.8604C176.733 89.6564 176.475 89.4764 176.151 89.3204C175.827 89.1524 175.479 89.0144 175.107 88.9064C174.747 88.7984 174.399 88.7444 174.063 88.7444C173.523 88.7444 173.061 88.8224 172.677 88.9784C172.293 89.1224 171.999 89.3264 171.795 89.5904C171.591 89.8424 171.489 90.1424 171.489 90.4904C171.489 90.8984 171.603 91.2344 171.831 91.4984C172.071 91.7624 172.401 91.9784 172.821 92.1464C173.241 92.3024 173.721 92.4464 174.261 92.5784C174.921 92.7224 175.509 92.8844 176.025 93.0644C176.553 93.2444 176.997 93.4784 177.357 93.7664C177.717 94.0424 177.993 94.3904 178.185 94.8104C178.377 95.2304 178.473 95.7524 178.473 96.3764C178.473 97.0964 178.269 97.7264 177.861 98.2664C177.453 98.8064 176.913 99.2264 176.241 99.5264C175.581 99.8264 174.843 99.9764 174.027 99.9764ZM184.683 90.1124C185.331 90.1124 185.907 90.1844 186.411 90.3284C186.915 90.4604 187.305 90.6524 187.581 90.9044C187.869 91.1444 188.013 91.4264 188.013 91.7504C188.013 91.9544 187.953 92.1464 187.833 92.3264C187.713 92.4944 187.533 92.5784 187.293 92.5784C187.125 92.5784 186.981 92.5484 186.861 92.4884C186.753 92.4284 186.651 92.3564 186.555 92.2724C186.459 92.1884 186.339 92.1044 186.195 92.0204C186.063 91.9484 185.865 91.8884 185.601 91.8404C185.349 91.7924 185.121 91.7684 184.917 91.7684C184.281 91.7684 183.729 91.9124 183.261 92.2004C182.805 92.4884 182.445 92.8784 182.181 93.3704C181.929 93.8624 181.803 94.4204 181.803 95.0444C181.803 95.6684 181.929 96.2264 182.181 96.7184C182.445 97.2104 182.799 97.6004 183.243 97.8884C183.699 98.1764 184.227 98.3204 184.827 98.3204C185.187 98.3204 185.481 98.2964 185.709 98.2484C185.937 98.1884 186.135 98.1164 186.303 98.0324C186.483 97.9244 186.633 97.8164 186.753 97.7084C186.885 97.5884 187.065 97.5284 187.293 97.5284C187.557 97.5284 187.755 97.6124 187.887 97.7804C188.031 97.9364 188.103 98.1344 188.103 98.3744C188.103 98.6384 187.941 98.8964 187.617 99.1484C187.305 99.3884 186.885 99.5864 186.357 99.7424C185.829 99.8984 185.247 99.9764 184.611 99.9764C183.675 99.9764 182.859 99.7604 182.163 99.3284C181.479 98.8964 180.945 98.3084 180.561 97.5644C180.189 96.8204 180.003 95.9804 180.003 95.0444C180.003 94.0964 180.201 93.2564 180.597 92.5244C180.993 91.7804 181.545 91.1924 182.253 90.7604C182.961 90.3284 183.771 90.1124 184.683 90.1124ZM191.515 98.8784C191.515 99.1424 191.431 99.3644 191.263 99.5444C191.095 99.7124 190.879 99.7964 190.615 99.7964C190.363 99.7964 190.147 99.7124 189.967 99.5444C189.799 99.3644 189.715 99.1424 189.715 98.8784V91.1744C189.715 90.9104 189.799 90.6944 189.967 90.5264C190.147 90.3464 190.363 90.2564 190.615 90.2564C190.879 90.2564 191.095 90.3464 191.263 90.5264C191.431 90.6944 191.515 90.9104 191.515 91.1744V98.8784ZM190.597 89.0684C190.249 89.0684 189.997 89.0084 189.841 88.8884C189.685 88.7564 189.607 88.5404 189.607 88.2404V87.9524C189.607 87.6524 189.691 87.4424 189.859 87.3224C190.027 87.2024 190.279 87.1424 190.615 87.1424C190.975 87.1424 191.233 87.2084 191.389 87.3404C191.545 87.4604 191.623 87.6644 191.623 87.9524V88.2404C191.623 88.5524 191.539 88.7684 191.371 88.8884C191.215 89.0084 190.957 89.0684 190.597 89.0684ZM198.346 99.9764C197.35 99.9764 196.486 99.7724 195.754 99.3644C195.022 98.9444 194.452 98.3744 194.044 97.6544C193.648 96.9224 193.45 96.0884 193.45 95.1524C193.45 94.0964 193.66 93.1964 194.08 92.4524C194.512 91.6964 195.07 91.1204 195.754 90.7244C196.438 90.3164 197.164 90.1124 197.932 90.1124C198.52 90.1124 199.078 90.2324 199.606 90.4724C200.134 90.7004 200.602 91.0244 201.01 91.4444C201.43 91.8524 201.76 92.3384 202 92.9024C202.24 93.4544 202.366 94.0604 202.378 94.7204C202.366 94.9604 202.27 95.1584 202.09 95.3144C201.91 95.4704 201.7 95.5484 201.46 95.5484H194.458L194.026 94.0184H200.794L200.452 94.3424V93.8924C200.428 93.4724 200.29 93.1064 200.038 92.7944C199.786 92.4704 199.474 92.2244 199.102 92.0564C198.73 91.8764 198.34 91.7864 197.932 91.7864C197.572 91.7864 197.224 91.8464 196.888 91.9664C196.564 92.0744 196.27 92.2544 196.006 92.5064C195.754 92.7584 195.55 93.0944 195.394 93.5144C195.25 93.9224 195.178 94.4324 195.178 95.0444C195.178 95.7044 195.316 96.2804 195.592 96.7724C195.868 97.2644 196.24 97.6484 196.708 97.9244C197.176 98.1884 197.692 98.3204 198.256 98.3204C198.7 98.3204 199.066 98.2784 199.354 98.1944C199.642 98.0984 199.882 97.9844 200.074 97.8524C200.266 97.7204 200.434 97.5944 200.578 97.4744C200.758 97.3664 200.938 97.3124 201.118 97.3124C201.334 97.3124 201.514 97.3904 201.658 97.5464C201.802 97.6904 201.874 97.8644 201.874 98.0684C201.874 98.3324 201.742 98.5724 201.478 98.7884C201.154 99.1004 200.704 99.3764 200.128 99.6164C199.564 99.8564 198.97 99.9764 198.346 99.9764ZM209.29 90.1124C210.142 90.1124 210.802 90.2924 211.27 90.6524C211.738 91.0004 212.062 91.4744 212.242 92.0744C212.434 92.6624 212.53 93.3224 212.53 94.0544V98.8784C212.53 99.1424 212.44 99.3644 212.26 99.5444C212.092 99.7124 211.882 99.7964 211.63 99.7964C211.366 99.7964 211.15 99.7124 210.982 99.5444C210.814 99.3644 210.73 99.1424 210.73 98.8784V94.0724C210.73 93.6404 210.67 93.2564 210.55 92.9204C210.43 92.5724 210.22 92.2964 209.92 92.0924C209.632 91.8764 209.224 91.7684 208.696 91.7684C208.204 91.7684 207.772 91.8764 207.4 92.0924C207.028 92.2964 206.734 92.5724 206.518 92.9204C206.314 93.2564 206.212 93.6404 206.212 94.0724V98.8784C206.212 99.1424 206.122 99.3644 205.942 99.5444C205.774 99.7124 205.564 99.7964 205.312 99.7964C205.048 99.7964 204.832 99.7124 204.664 99.5444C204.496 99.3644 204.412 99.1424 204.412 98.8784V91.2464C204.412 90.9824 204.496 90.7664 204.664 90.5984C204.832 90.4184 205.048 90.3284 205.312 90.3284C205.564 90.3284 205.774 90.4184 205.942 90.5984C206.122 90.7664 206.212 90.9824 206.212 91.2464V92.2544L205.888 92.4344C205.972 92.1704 206.116 91.9064 206.32 91.6424C206.536 91.3664 206.794 91.1144 207.094 90.8864C207.394 90.6464 207.73 90.4604 208.102 90.3284C208.474 90.1844 208.87 90.1124 209.29 90.1124ZM219.224 90.1124C219.872 90.1124 220.448 90.1844 220.952 90.3284C221.456 90.4604 221.846 90.6524 222.122 90.9044C222.41 91.1444 222.554 91.4264 222.554 91.7504C222.554 91.9544 222.494 92.1464 222.374 92.3264C222.254 92.4944 222.074 92.5784 221.834 92.5784C221.666 92.5784 221.522 92.5484 221.402 92.4884C221.294 92.4284 221.192 92.3564 221.096 92.2724C221 92.1884 220.88 92.1044 220.736 92.0204C220.604 91.9484 220.406 91.8884 220.142 91.8404C219.89 91.7924 219.662 91.7684 219.458 91.7684C218.822 91.7684 218.27 91.9124 217.802 92.2004C217.346 92.4884 216.986 92.8784 216.722 93.3704C216.47 93.8624 216.344 94.4204 216.344 95.0444C216.344 95.6684 216.47 96.2264 216.722 96.7184C216.986 97.2104 217.34 97.6004 217.784 97.8884C218.24 98.1764 218.768 98.3204 219.368 98.3204C219.728 98.3204 220.022 98.2964 220.25 98.2484C220.478 98.1884 220.676 98.1164 220.844 98.0324C221.024 97.9244 221.174 97.8164 221.294 97.7084C221.426 97.5884 221.606 97.5284 221.834 97.5284C222.098 97.5284 222.296 97.6124 222.428 97.7804C222.572 97.9364 222.644 98.1344 222.644 98.3744C222.644 98.6384 222.482 98.8964 222.158 99.1484C221.846 99.3884 221.426 99.5864 220.898 99.7424C220.37 99.8984 219.788 99.9764 219.152 99.9764C218.216 99.9764 217.4 99.7604 216.704 99.3284C216.02 98.8964 215.486 98.3084 215.102 97.5644C214.73 96.8204 214.544 95.9804 214.544 95.0444C214.544 94.0964 214.742 93.2564 215.138 92.5244C215.534 91.7804 216.086 91.1924 216.794 90.7604C217.502 90.3284 218.312 90.1124 219.224 90.1124ZM228.774 99.9764C227.778 99.9764 226.914 99.7724 226.182 99.3644C225.45 98.9444 224.88 98.3744 224.472 97.6544C224.076 96.9224 223.878 96.0884 223.878 95.1524C223.878 94.0964 224.088 93.1964 224.508 92.4524C224.94 91.6964 225.498 91.1204 226.182 90.7244C226.866 90.3164 227.592 90.1124 228.36 90.1124C228.948 90.1124 229.506 90.2324 230.034 90.4724C230.562 90.7004 231.03 91.0244 231.438 91.4444C231.858 91.8524 232.188 92.3384 232.428 92.9024C232.668 93.4544 232.794 94.0604 232.806 94.7204C232.794 94.9604 232.698 95.1584 232.518 95.3144C232.338 95.4704 232.128 95.5484 231.888 95.5484H224.886L224.454 94.0184H231.222L230.88 94.3424V93.8924C230.856 93.4724 230.718 93.1064 230.466 92.7944C230.214 92.4704 229.902 92.2244 229.53 92.0564C229.158 91.8764 228.768 91.7864 228.36 91.7864C228 91.7864 227.652 91.8464 227.316 91.9664C226.992 92.0744 226.698 92.2544 226.434 92.5064C226.182 92.7584 225.978 93.0944 225.822 93.5144C225.678 93.9224 225.606 94.4324 225.606 95.0444C225.606 95.7044 225.744 96.2804 226.02 96.7724C226.296 97.2644 226.668 97.6484 227.136 97.9244C227.604 98.1884 228.12 98.3204 228.684 98.3204C229.128 98.3204 229.494 98.2784 229.782 98.1944C230.07 98.0984 230.31 97.9844 230.502 97.8524C230.694 97.7204 230.862 97.5944 231.006 97.4744C231.186 97.3664 231.366 97.3124 231.546 97.3124C231.762 97.3124 231.942 97.3904 232.086 97.5464C232.23 97.6904 232.302 97.8644 232.302 98.0684C232.302 98.3324 232.17 98.5724 231.906 98.7884C231.582 99.1004 231.132 99.3764 230.556 99.6164C229.992 99.8564 229.398 99.9764 228.774 99.9764Z" fill="black"/>
</svg>
