<svg width="258" height="77" viewBox="0 0 258 77" fill="none" xmlns="http://www.w3.org/2000/svg">
<path d="M136.115 0.318359C30.1917 0.318284 0.845779 17.7813 0.845703 37.6531C0.845611 61.74 35.9426 74.8674 136.115 76.7943C261.33 79.203 257.674 44.8791 257.674 37.6531C257.674 27.5226 236.315 0.31843 136.115 0.318359Z" fill="#FFD966"/>
<rect x="20.7656" y="21.6167" width="215" height="34" rx="17" fill="white" fill-opacity="0.85"/>
<path d="M49.9365 35.3567L45.8865 45.0767C45.8145 45.2687 45.7065 45.4187 45.5625 45.5267C45.4185 45.6347 45.2565 45.6887 45.0765 45.6887C44.8125 45.6887 44.6145 45.6167 44.4825 45.4727C44.3505 45.3167 44.2785 45.1247 44.2665 44.8967C44.2665 44.8127 44.2845 44.7167 44.3205 44.6087L48.8925 33.5567C48.9765 33.3527 49.0965 33.1967 49.2525 33.0887C49.4205 32.9807 49.6005 32.9327 49.7925 32.9447C49.9725 32.9447 50.1405 32.9987 50.2965 33.1067C50.4525 33.2147 50.5665 33.3647 50.6385 33.5567L55.1565 44.4467C55.2045 44.5667 55.2285 44.6867 55.2285 44.8067C55.2285 45.0707 55.1385 45.2867 54.9585 45.4547C54.7905 45.6107 54.5985 45.6887 54.3825 45.6887C54.2025 45.6887 54.0345 45.6347 53.8785 45.5267C53.7345 45.4067 53.6265 45.2567 53.5545 45.0767L49.4685 35.4107L49.9365 35.3567ZM46.6065 42.5207L47.4165 40.7927H52.5105L52.8165 42.5207H46.6065ZM60.9813 35.9327C61.6293 35.9327 62.2053 36.0047 62.7093 36.1487C63.2133 36.2807 63.6033 36.4727 63.8793 36.7247C64.1673 36.9647 64.3113 37.2467 64.3113 37.5707C64.3113 37.7747 64.2513 37.9667 64.1313 38.1467C64.0113 38.3147 63.8313 38.3987 63.5913 38.3987C63.4233 38.3987 63.2793 38.3687 63.1593 38.3087C63.0513 38.2487 62.9493 38.1767 62.8533 38.0927C62.7573 38.0087 62.6373 37.9247 62.4933 37.8407C62.3613 37.7687 62.1633 37.7087 61.8993 37.6607C61.6473 37.6127 61.4193 37.5887 61.2153 37.5887C60.5793 37.5887 60.0273 37.7327 59.5593 38.0207C59.1033 38.3087 58.7433 38.6987 58.4793 39.1907C58.2273 39.6827 58.1013 40.2407 58.1013 40.8647C58.1013 41.4887 58.2273 42.0467 58.4793 42.5387C58.7433 43.0307 59.0973 43.4207 59.5413 43.7087C59.9973 43.9967 60.5253 44.1407 61.1253 44.1407C61.4853 44.1407 61.7793 44.1167 62.0073 44.0687C62.2353 44.0087 62.4333 43.9367 62.6013 43.8527C62.7813 43.7447 62.9313 43.6367 63.0513 43.5287C63.1833 43.4087 63.3633 43.3487 63.5913 43.3487C63.8553 43.3487 64.0533 43.4327 64.1853 43.6007C64.3293 43.7567 64.4013 43.9547 64.4013 44.1947C64.4013 44.4587 64.2393 44.7167 63.9153 44.9687C63.6033 45.2087 63.1833 45.4067 62.6553 45.5627C62.1273 45.7187 61.5453 45.7967 60.9093 45.7967C59.9733 45.7967 59.1573 45.5807 58.4613 45.1487C57.7773 44.7167 57.2433 44.1287 56.8593 43.3847C56.4873 42.6407 56.3013 41.8007 56.3013 40.8647C56.3013 39.9167 56.4993 39.0767 56.8953 38.3447C57.2913 37.6007 57.8433 37.0127 58.5513 36.5807C59.2593 36.1487 60.0693 35.9327 60.9813 35.9327ZM73.8793 36.0047C74.1433 36.0047 74.3593 36.0947 74.5273 36.2747C74.6953 36.4427 74.7793 36.6587 74.7793 36.9227V44.6987C74.7793 44.9627 74.6953 45.1847 74.5273 45.3647C74.3593 45.5327 74.1433 45.6167 73.8793 45.6167C73.6273 45.6167 73.4113 45.5327 73.2313 45.3647C73.0633 45.1847 72.9793 44.9627 72.9793 44.6987V43.4027L73.3573 43.4567C73.3573 43.6727 73.2673 43.9127 73.0873 44.1767C72.9193 44.4407 72.6853 44.6987 72.3853 44.9507C72.0853 45.1907 71.7313 45.3947 71.3233 45.5627C70.9153 45.7187 70.4773 45.7967 70.0093 45.7967C69.1813 45.7967 68.4373 45.5867 67.7773 45.1667C67.1173 44.7347 66.5953 44.1467 66.2113 43.4027C65.8273 42.6587 65.6353 41.8127 65.6353 40.8647C65.6353 39.8927 65.8273 39.0407 66.2113 38.3087C66.5953 37.5647 67.1113 36.9827 67.7593 36.5627C68.4193 36.1427 69.1513 35.9327 69.9553 35.9327C70.4713 35.9327 70.9453 36.0167 71.3773 36.1847C71.8213 36.3527 72.2053 36.5687 72.5293 36.8327C72.8533 37.0967 73.0993 37.3787 73.2673 37.6787C73.4473 37.9667 73.5373 38.2427 73.5373 38.5067L72.9793 38.5607V36.9227C72.9793 36.6707 73.0633 36.4547 73.2313 36.2747C73.4113 36.0947 73.6273 36.0047 73.8793 36.0047ZM70.2073 44.1407C70.7713 44.1407 71.2693 43.9967 71.7013 43.7087C72.1333 43.4207 72.4693 43.0307 72.7093 42.5387C72.9493 42.0347 73.0693 41.4767 73.0693 40.8647C73.0693 40.2407 72.9493 39.6827 72.7093 39.1907C72.4693 38.6987 72.1333 38.3087 71.7013 38.0207C71.2693 37.7327 70.7713 37.5887 70.2073 37.5887C69.6553 37.5887 69.1633 37.7327 68.7313 38.0207C68.3113 38.3087 67.9753 38.6987 67.7233 39.1907C67.4833 39.6827 67.3633 40.2407 67.3633 40.8647C67.3633 41.4767 67.4833 42.0347 67.7233 42.5387C67.9753 43.0307 68.3113 43.4207 68.7313 43.7087C69.1633 43.9967 69.6553 44.1407 70.2073 44.1407ZM85.059 32.2967C85.323 32.2967 85.539 32.3807 85.707 32.5487C85.875 32.7167 85.959 32.9387 85.959 33.2147V44.6987C85.959 44.9627 85.875 45.1847 85.707 45.3647C85.539 45.5327 85.323 45.6167 85.059 45.6167C84.807 45.6167 84.591 45.5327 84.411 45.3647C84.243 45.1847 84.159 44.9627 84.159 44.6987V43.4027L84.537 43.4207C84.537 43.6367 84.447 43.8827 84.267 44.1587C84.099 44.4227 83.865 44.6807 83.565 44.9327C83.265 45.1847 82.911 45.3947 82.503 45.5627C82.095 45.7187 81.657 45.7967 81.189 45.7967C80.361 45.7967 79.617 45.5867 78.957 45.1667C78.297 44.7347 77.775 44.1527 77.391 43.4207C77.007 42.6767 76.815 41.8247 76.815 40.8647C76.815 39.9047 77.007 39.0587 77.391 38.3267C77.775 37.5827 78.291 37.0007 78.939 36.5807C79.599 36.1487 80.331 35.9327 81.135 35.9327C81.639 35.9327 82.107 36.0167 82.539 36.1847C82.983 36.3527 83.367 36.5687 83.691 36.8327C84.015 37.0967 84.267 37.3787 84.447 37.6787C84.627 37.9667 84.717 38.2427 84.717 38.5067L84.159 38.5607V33.2147C84.159 32.9507 84.243 32.7347 84.411 32.5667C84.591 32.3867 84.807 32.2967 85.059 32.2967ZM81.387 44.1407C81.963 44.1407 82.461 43.9967 82.881 43.7087C83.313 43.4207 83.649 43.0307 83.889 42.5387C84.129 42.0467 84.249 41.4887 84.249 40.8647C84.249 40.2407 84.129 39.6827 83.889 39.1907C83.649 38.6987 83.313 38.3087 82.881 38.0207C82.449 37.7327 81.951 37.5887 81.387 37.5887C80.835 37.5887 80.343 37.7327 79.911 38.0207C79.491 38.3087 79.155 38.6987 78.903 39.1907C78.663 39.6827 78.543 40.2407 78.543 40.8647C78.543 41.4887 78.663 42.0467 78.903 42.5387C79.155 43.0307 79.491 43.4207 79.911 43.7087C80.343 43.9967 80.835 44.1407 81.387 44.1407ZM92.8907 45.7967C91.8947 45.7967 91.0307 45.5927 90.2987 45.1847C89.5667 44.7647 88.9967 44.1947 88.5887 43.4747C88.1927 42.7427 87.9947 41.9087 87.9947 40.9727C87.9947 39.9167 88.2047 39.0167 88.6247 38.2727C89.0567 37.5167 89.6147 36.9407 90.2987 36.5447C90.9827 36.1367 91.7087 35.9327 92.4767 35.9327C93.0647 35.9327 93.6227 36.0527 94.1507 36.2927C94.6787 36.5207 95.1467 36.8447 95.5547 37.2647C95.9747 37.6727 96.3047 38.1587 96.5447 38.7227C96.7847 39.2747 96.9107 39.8807 96.9227 40.5407C96.9107 40.7807 96.8147 40.9787 96.6347 41.1347C96.4547 41.2907 96.2447 41.3687 96.0047 41.3687H89.0027L88.5707 39.8387H95.3387L94.9967 40.1627V39.7127C94.9727 39.2927 94.8347 38.9267 94.5827 38.6147C94.3307 38.2907 94.0187 38.0447 93.6467 37.8767C93.2747 37.6967 92.8847 37.6067 92.4767 37.6067C92.1167 37.6067 91.7687 37.6667 91.4327 37.7867C91.1087 37.8947 90.8147 38.0747 90.5507 38.3267C90.2987 38.5787 90.0947 38.9147 89.9387 39.3347C89.7947 39.7427 89.7227 40.2527 89.7227 40.8647C89.7227 41.5247 89.8607 42.1007 90.1367 42.5927C90.4127 43.0847 90.7847 43.4687 91.2527 43.7447C91.7207 44.0087 92.2367 44.1407 92.8007 44.1407C93.2447 44.1407 93.6107 44.0987 93.8987 44.0147C94.1867 43.9187 94.4267 43.8047 94.6187 43.6727C94.8107 43.5407 94.9787 43.4147 95.1227 43.2947C95.3027 43.1867 95.4827 43.1327 95.6627 43.1327C95.8787 43.1327 96.0587 43.2107 96.2027 43.3667C96.3467 43.5107 96.4187 43.6847 96.4187 43.8887C96.4187 44.1527 96.2867 44.3927 96.0227 44.6087C95.6987 44.9207 95.2487 45.1967 94.6727 45.4367C94.1087 45.6767 93.5147 45.7967 92.8907 45.7967ZM103.709 35.9867C104.597 35.9867 105.281 36.2087 105.761 36.6527C106.241 37.0847 106.559 37.6727 106.715 38.4167L106.427 38.3267L106.553 38.0387C106.709 37.7267 106.943 37.4147 107.255 37.1027C107.579 36.7787 107.963 36.5147 108.407 36.3107C108.851 36.0947 109.325 35.9867 109.829 35.9867C110.657 35.9867 111.299 36.1667 111.755 36.5267C112.211 36.8747 112.529 37.3487 112.709 37.9487C112.889 38.5367 112.979 39.1967 112.979 39.9287V44.6987C112.979 44.9627 112.895 45.1847 112.727 45.3647C112.559 45.5327 112.343 45.6167 112.079 45.6167C111.827 45.6167 111.611 45.5327 111.431 45.3647C111.263 45.1847 111.179 44.9627 111.179 44.6987V39.9467C111.179 39.5267 111.119 39.1427 110.999 38.7947C110.891 38.4467 110.693 38.1707 110.405 37.9667C110.129 37.7507 109.745 37.6427 109.253 37.6427C108.785 37.6427 108.365 37.7507 107.993 37.9667C107.633 38.1707 107.351 38.4467 107.147 38.7947C106.943 39.1427 106.841 39.5267 106.841 39.9467V44.6987C106.841 44.9627 106.757 45.1847 106.589 45.3647C106.421 45.5327 106.205 45.6167 105.941 45.6167C105.677 45.6167 105.461 45.5327 105.293 45.3647C105.125 45.1847 105.041 44.9627 105.041 44.6987V39.9287C105.041 39.5087 104.981 39.1247 104.861 38.7767C104.753 38.4287 104.561 38.1527 104.285 37.9487C104.009 37.7447 103.625 37.6427 103.133 37.6427C102.665 37.6427 102.251 37.7447 101.891 37.9487C101.531 38.1527 101.249 38.4287 101.045 38.7767C100.853 39.1247 100.757 39.5087 100.757 39.9287V44.6987C100.757 44.9627 100.667 45.1847 100.487 45.3647C100.319 45.5327 100.109 45.6167 99.8573 45.6167C99.5933 45.6167 99.3773 45.5327 99.2093 45.3647C99.0413 45.1847 98.9573 44.9627 98.9573 44.6987V37.0667C98.9573 36.8027 99.0413 36.5867 99.2093 36.4187C99.3773 36.2387 99.5933 36.1487 99.8573 36.1487C100.109 36.1487 100.319 36.2387 100.487 36.4187C100.667 36.5867 100.757 36.8027 100.757 37.0667V38.1287L100.415 38.3267C100.499 38.0627 100.637 37.7927 100.829 37.5167C101.021 37.2407 101.261 36.9887 101.549 36.7607C101.849 36.5327 102.179 36.3467 102.539 36.2027C102.899 36.0587 103.289 35.9867 103.709 35.9867ZM117.19 44.6987C117.19 44.9627 117.106 45.1847 116.938 45.3647C116.77 45.5327 116.554 45.6167 116.29 45.6167C116.038 45.6167 115.822 45.5327 115.642 45.3647C115.474 45.1847 115.39 44.9627 115.39 44.6987V36.9947C115.39 36.7307 115.474 36.5147 115.642 36.3467C115.822 36.1667 116.038 36.0767 116.29 36.0767C116.554 36.0767 116.77 36.1667 116.938 36.3467C117.106 36.5147 117.19 36.7307 117.19 36.9947V44.6987ZM116.272 34.8887C115.924 34.8887 115.672 34.8287 115.516 34.7087C115.36 34.5767 115.282 34.3607 115.282 34.0607V33.7727C115.282 33.4727 115.366 33.2627 115.534 33.1427C115.702 33.0227 115.954 32.9627 116.29 32.9627C116.65 32.9627 116.908 33.0287 117.064 33.1607C117.22 33.2807 117.298 33.4847 117.298 33.7727V34.0607C117.298 34.3727 117.214 34.5887 117.046 34.7087C116.89 34.8287 116.632 34.8887 116.272 34.8887ZM123.806 35.9327C124.454 35.9327 125.03 36.0047 125.534 36.1487C126.038 36.2807 126.428 36.4727 126.704 36.7247C126.992 36.9647 127.136 37.2467 127.136 37.5707C127.136 37.7747 127.076 37.9667 126.956 38.1467C126.836 38.3147 126.656 38.3987 126.416 38.3987C126.248 38.3987 126.104 38.3687 125.984 38.3087C125.876 38.2487 125.774 38.1767 125.678 38.0927C125.582 38.0087 125.462 37.9247 125.318 37.8407C125.186 37.7687 124.988 37.7087 124.724 37.6607C124.472 37.6127 124.244 37.5887 124.04 37.5887C123.404 37.5887 122.852 37.7327 122.384 38.0207C121.928 38.3087 121.568 38.6987 121.304 39.1907C121.052 39.6827 120.926 40.2407 120.926 40.8647C120.926 41.4887 121.052 42.0467 121.304 42.5387C121.568 43.0307 121.922 43.4207 122.366 43.7087C122.822 43.9967 123.35 44.1407 123.95 44.1407C124.31 44.1407 124.604 44.1167 124.832 44.0687C125.06 44.0087 125.258 43.9367 125.426 43.8527C125.606 43.7447 125.756 43.6367 125.876 43.5287C126.008 43.4087 126.188 43.3487 126.416 43.3487C126.68 43.3487 126.878 43.4327 127.01 43.6007C127.154 43.7567 127.226 43.9547 127.226 44.1947C127.226 44.4587 127.064 44.7167 126.74 44.9687C126.428 45.2087 126.008 45.4067 125.48 45.5627C124.952 45.7187 124.37 45.7967 123.734 45.7967C122.798 45.7967 121.982 45.5807 121.286 45.1487C120.602 44.7167 120.068 44.1287 119.684 43.3847C119.312 42.6407 119.126 41.8007 119.126 40.8647C119.126 39.9167 119.324 39.0767 119.72 38.3447C120.116 37.6007 120.668 37.0127 121.376 36.5807C122.084 36.1487 122.894 35.9327 123.806 35.9327ZM135.233 45.6167C134.945 45.6167 134.693 45.5327 134.477 45.3647C134.261 45.1847 134.153 44.9627 134.153 44.6987V33.9347C134.153 33.6707 134.243 33.4547 134.423 33.2867C134.603 33.1067 134.819 33.0167 135.071 33.0167H140.147C140.795 33.0167 141.389 33.1787 141.929 33.5027C142.469 33.8147 142.901 34.2527 143.225 34.8167C143.561 35.3687 143.729 36.0047 143.729 36.7247C143.729 37.2047 143.633 37.6667 143.441 38.1107C143.249 38.5427 142.991 38.9267 142.667 39.2627C142.343 39.5987 141.977 39.8507 141.569 40.0187L141.371 39.6767C141.743 39.8087 142.067 40.0007 142.343 40.2527C142.619 40.4927 142.835 40.7807 142.991 41.1167C143.159 41.4407 143.249 41.8127 143.261 42.2327C143.297 42.6047 143.327 42.9167 143.351 43.1687C143.387 43.4087 143.435 43.6067 143.495 43.7627C143.555 43.9187 143.663 44.0387 143.819 44.1227C144.035 44.2427 144.167 44.4227 144.215 44.6627C144.275 44.9027 144.227 45.1187 144.071 45.3107C143.963 45.4547 143.825 45.5507 143.657 45.5987C143.501 45.6347 143.339 45.6407 143.171 45.6167C143.003 45.5807 142.859 45.5327 142.739 45.4727C142.547 45.3527 142.349 45.1847 142.145 44.9687C141.953 44.7407 141.797 44.4287 141.677 44.0327C141.557 43.6367 141.497 43.1147 141.497 42.4667C141.497 42.1667 141.449 41.9087 141.353 41.6927C141.257 41.4767 141.125 41.3027 140.957 41.1707C140.789 41.0267 140.591 40.9247 140.363 40.8647C140.135 40.7927 139.883 40.7567 139.607 40.7567H135.791L136.043 40.3967V44.6987C136.043 44.9627 135.971 45.1847 135.827 45.3647C135.683 45.5327 135.485 45.6167 135.233 45.6167ZM135.809 39.1907H140.111C140.387 39.1787 140.651 39.0707 140.903 38.8667C141.167 38.6507 141.377 38.3627 141.533 38.0027C141.701 37.6427 141.785 37.2347 141.785 36.7787C141.785 36.2027 141.611 35.7227 141.263 35.3387C140.927 34.9427 140.525 34.7447 140.057 34.7447H135.845L136.043 34.2767V39.5687L135.809 39.1907ZM150.529 45.7967C149.533 45.7967 148.669 45.5927 147.937 45.1847C147.205 44.7647 146.635 44.1947 146.227 43.4747C145.831 42.7427 145.633 41.9087 145.633 40.9727C145.633 39.9167 145.843 39.0167 146.263 38.2727C146.695 37.5167 147.253 36.9407 147.937 36.5447C148.621 36.1367 149.347 35.9327 150.115 35.9327C150.703 35.9327 151.261 36.0527 151.789 36.2927C152.317 36.5207 152.785 36.8447 153.193 37.2647C153.613 37.6727 153.943 38.1587 154.183 38.7227C154.423 39.2747 154.549 39.8807 154.561 40.5407C154.549 40.7807 154.453 40.9787 154.273 41.1347C154.093 41.2907 153.883 41.3687 153.643 41.3687H146.641L146.209 39.8387H152.977L152.635 40.1627V39.7127C152.611 39.2927 152.473 38.9267 152.221 38.6147C151.969 38.2907 151.657 38.0447 151.285 37.8767C150.913 37.6967 150.523 37.6067 150.115 37.6067C149.755 37.6067 149.407 37.6667 149.071 37.7867C148.747 37.8947 148.453 38.0747 148.189 38.3267C147.937 38.5787 147.733 38.9147 147.577 39.3347C147.433 39.7427 147.361 40.2527 147.361 40.8647C147.361 41.5247 147.499 42.1007 147.775 42.5927C148.051 43.0847 148.423 43.4687 148.891 43.7447C149.359 44.0087 149.875 44.1407 150.439 44.1407C150.883 44.1407 151.249 44.0987 151.537 44.0147C151.825 43.9187 152.065 43.8047 152.257 43.6727C152.449 43.5407 152.617 43.4147 152.761 43.2947C152.941 43.1867 153.121 43.1327 153.301 43.1327C153.517 43.1327 153.697 43.2107 153.841 43.3667C153.985 43.5107 154.057 43.6847 154.057 43.8887C154.057 44.1527 153.925 44.3927 153.661 44.6087C153.337 44.9207 152.887 45.1967 152.311 45.4367C151.747 45.6767 151.153 45.7967 150.529 45.7967ZM156.038 44.1407C155.93 43.9727 155.882 43.7807 155.894 43.5647C155.906 43.3367 156.032 43.1447 156.272 42.9887C156.44 42.8807 156.614 42.8387 156.794 42.8627C156.986 42.8747 157.166 42.9647 157.334 43.1327C157.67 43.5047 158.042 43.7987 158.45 44.0147C158.87 44.2307 159.374 44.3387 159.962 44.3387C160.202 44.3267 160.448 44.2907 160.7 44.2307C160.952 44.1587 161.168 44.0387 161.348 43.8707C161.528 43.6907 161.618 43.4327 161.618 43.0967C161.618 42.7967 161.522 42.5567 161.33 42.3767C161.138 42.1967 160.886 42.0527 160.574 41.9447C160.262 41.8247 159.926 41.7167 159.566 41.6207C159.182 41.5127 158.792 41.3927 158.396 41.2607C158.012 41.1287 157.664 40.9607 157.352 40.7567C157.04 40.5407 156.782 40.2647 156.578 39.9287C156.386 39.5927 156.29 39.1787 156.29 38.6867C156.29 38.1227 156.446 37.6367 156.758 37.2287C157.082 36.8207 157.496 36.5027 158 36.2747C158.516 36.0467 159.074 35.9327 159.674 35.9327C160.022 35.9327 160.388 35.9807 160.772 36.0767C161.156 36.1607 161.528 36.2987 161.888 36.4907C162.248 36.6827 162.56 36.9347 162.824 37.2467C162.944 37.4027 163.01 37.5887 163.022 37.8047C163.046 38.0207 162.95 38.2127 162.734 38.3807C162.59 38.5007 162.416 38.5547 162.212 38.5427C162.008 38.5307 161.84 38.4647 161.708 38.3447C161.48 38.0567 161.186 37.8347 160.826 37.6787C160.466 37.5107 160.058 37.4267 159.602 37.4267C159.374 37.4267 159.134 37.4627 158.882 37.5347C158.642 37.5947 158.438 37.7087 158.27 37.8767C158.102 38.0447 158.018 38.2907 158.018 38.6147C158.018 38.9147 158.114 39.1547 158.306 39.3347C158.51 39.5147 158.774 39.6647 159.098 39.7847C159.422 39.9047 159.776 40.0127 160.16 40.1087C160.532 40.2047 160.898 40.3187 161.258 40.4507C161.63 40.5827 161.96 40.7567 162.248 40.9727C162.548 41.1767 162.788 41.4467 162.968 41.7827C163.16 42.1067 163.256 42.5207 163.256 43.0247C163.256 43.6127 163.082 44.1167 162.734 44.5367C162.398 44.9447 161.966 45.2567 161.438 45.4727C160.922 45.6887 160.376 45.7967 159.8 45.7967C159.116 45.7967 158.432 45.6767 157.748 45.4367C157.076 45.1847 156.506 44.7527 156.038 44.1407ZM169.602 45.7967C168.606 45.7967 167.742 45.5927 167.01 45.1847C166.278 44.7647 165.708 44.1947 165.3 43.4747C164.904 42.7427 164.706 41.9087 164.706 40.9727C164.706 39.9167 164.916 39.0167 165.336 38.2727C165.768 37.5167 166.326 36.9407 167.01 36.5447C167.694 36.1367 168.42 35.9327 169.188 35.9327C169.776 35.9327 170.334 36.0527 170.862 36.2927C171.39 36.5207 171.858 36.8447 172.266 37.2647C172.686 37.6727 173.016 38.1587 173.256 38.7227C173.496 39.2747 173.622 39.8807 173.634 40.5407C173.622 40.7807 173.526 40.9787 173.346 41.1347C173.166 41.2907 172.956 41.3687 172.716 41.3687H165.714L165.282 39.8387H172.05L171.708 40.1627V39.7127C171.684 39.2927 171.546 38.9267 171.294 38.6147C171.042 38.2907 170.73 38.0447 170.358 37.8767C169.986 37.6967 169.596 37.6067 169.188 37.6067C168.828 37.6067 168.48 37.6667 168.144 37.7867C167.82 37.8947 167.526 38.0747 167.262 38.3267C167.01 38.5787 166.806 38.9147 166.65 39.3347C166.506 39.7427 166.434 40.2527 166.434 40.8647C166.434 41.5247 166.572 42.1007 166.848 42.5927C167.124 43.0847 167.496 43.4687 167.964 43.7447C168.432 44.0087 168.948 44.1407 169.512 44.1407C169.956 44.1407 170.322 44.0987 170.61 44.0147C170.898 43.9187 171.138 43.8047 171.33 43.6727C171.522 43.5407 171.69 43.4147 171.834 43.2947C172.014 43.1867 172.194 43.1327 172.374 43.1327C172.59 43.1327 172.77 43.2107 172.914 43.3667C173.058 43.5107 173.13 43.6847 173.13 43.8887C173.13 44.1527 172.998 44.3927 172.734 44.6087C172.41 44.9207 171.96 45.1967 171.384 45.4367C170.82 45.6767 170.226 45.7967 169.602 45.7967ZM183.497 36.0047C183.761 36.0047 183.977 36.0947 184.145 36.2747C184.313 36.4427 184.397 36.6587 184.397 36.9227V44.6987C184.397 44.9627 184.313 45.1847 184.145 45.3647C183.977 45.5327 183.761 45.6167 183.497 45.6167C183.245 45.6167 183.029 45.5327 182.849 45.3647C182.681 45.1847 182.597 44.9627 182.597 44.6987V43.4027L182.975 43.4567C182.975 43.6727 182.885 43.9127 182.705 44.1767C182.537 44.4407 182.303 44.6987 182.003 44.9507C181.703 45.1907 181.349 45.3947 180.941 45.5627C180.533 45.7187 180.095 45.7967 179.627 45.7967C178.799 45.7967 178.055 45.5867 177.395 45.1667C176.735 44.7347 176.213 44.1467 175.829 43.4027C175.445 42.6587 175.253 41.8127 175.253 40.8647C175.253 39.8927 175.445 39.0407 175.829 38.3087C176.213 37.5647 176.729 36.9827 177.377 36.5627C178.037 36.1427 178.769 35.9327 179.573 35.9327C180.089 35.9327 180.563 36.0167 180.995 36.1847C181.439 36.3527 181.823 36.5687 182.147 36.8327C182.471 37.0967 182.717 37.3787 182.885 37.6787C183.065 37.9667 183.155 38.2427 183.155 38.5067L182.597 38.5607V36.9227C182.597 36.6707 182.681 36.4547 182.849 36.2747C183.029 36.0947 183.245 36.0047 183.497 36.0047ZM179.825 44.1407C180.389 44.1407 180.887 43.9967 181.319 43.7087C181.751 43.4207 182.087 43.0307 182.327 42.5387C182.567 42.0347 182.687 41.4767 182.687 40.8647C182.687 40.2407 182.567 39.6827 182.327 39.1907C182.087 38.6987 181.751 38.3087 181.319 38.0207C180.887 37.7327 180.389 37.5887 179.825 37.5887C179.273 37.5887 178.781 37.7327 178.349 38.0207C177.929 38.3087 177.593 38.6987 177.341 39.1907C177.101 39.6827 176.981 40.2407 176.981 40.8647C176.981 41.4767 177.101 42.0347 177.341 42.5387C177.593 43.0307 177.929 43.4207 178.349 43.7087C178.781 43.9967 179.273 44.1407 179.825 44.1407ZM187.818 45.6167C187.554 45.6167 187.338 45.5327 187.17 45.3647C187.002 45.1847 186.918 44.9627 186.918 44.6987V37.0667C186.918 36.8027 187.002 36.5867 187.17 36.4187C187.338 36.2387 187.554 36.1487 187.818 36.1487C188.07 36.1487 188.28 36.2387 188.448 36.4187C188.628 36.5867 188.718 36.8027 188.718 37.0667V39.0827L188.538 38.3087C188.634 37.9727 188.778 37.6607 188.97 37.3727C189.174 37.0847 189.414 36.8327 189.69 36.6167C189.966 36.4007 190.272 36.2327 190.608 36.1127C190.956 35.9927 191.316 35.9327 191.688 35.9327C192 35.9327 192.27 36.0167 192.498 36.1847C192.726 36.3527 192.84 36.5627 192.84 36.8147C192.84 37.1387 192.756 37.3787 192.588 37.5347C192.42 37.6787 192.234 37.7507 192.03 37.7507C191.85 37.7507 191.676 37.7147 191.508 37.6427C191.34 37.5587 191.142 37.5167 190.914 37.5167C190.662 37.5167 190.404 37.5827 190.14 37.7147C189.876 37.8467 189.636 38.0447 189.42 38.3087C189.204 38.5607 189.03 38.8607 188.898 39.2087C188.778 39.5567 188.718 39.9467 188.718 40.3787V44.6987C188.718 44.9627 188.628 45.1847 188.448 45.3647C188.28 45.5327 188.07 45.6167 187.818 45.6167ZM198.231 35.9327C198.879 35.9327 199.455 36.0047 199.959 36.1487C200.463 36.2807 200.853 36.4727 201.129 36.7247C201.417 36.9647 201.561 37.2467 201.561 37.5707C201.561 37.7747 201.501 37.9667 201.381 38.1467C201.261 38.3147 201.081 38.3987 200.841 38.3987C200.673 38.3987 200.529 38.3687 200.409 38.3087C200.301 38.2487 200.199 38.1767 200.103 38.0927C200.007 38.0087 199.887 37.9247 199.743 37.8407C199.611 37.7687 199.413 37.7087 199.149 37.6607C198.897 37.6127 198.669 37.5887 198.465 37.5887C197.829 37.5887 197.277 37.7327 196.809 38.0207C196.353 38.3087 195.993 38.6987 195.729 39.1907C195.477 39.6827 195.351 40.2407 195.351 40.8647C195.351 41.4887 195.477 42.0467 195.729 42.5387C195.993 43.0307 196.347 43.4207 196.791 43.7087C197.247 43.9967 197.775 44.1407 198.375 44.1407C198.735 44.1407 199.029 44.1167 199.257 44.0687C199.485 44.0087 199.683 43.9367 199.851 43.8527C200.031 43.7447 200.181 43.6367 200.301 43.5287C200.433 43.4087 200.613 43.3487 200.841 43.3487C201.105 43.3487 201.303 43.4327 201.435 43.6007C201.579 43.7567 201.651 43.9547 201.651 44.1947C201.651 44.4587 201.489 44.7167 201.165 44.9687C200.853 45.2087 200.433 45.4067 199.905 45.5627C199.377 45.7187 198.795 45.7967 198.159 45.7967C197.223 45.7967 196.407 45.5807 195.711 45.1487C195.027 44.7167 194.493 44.1287 194.109 43.3847C193.737 42.6407 193.551 41.8007 193.551 40.8647C193.551 39.9167 193.749 39.0767 194.145 38.3447C194.541 37.6007 195.093 37.0127 195.801 36.5807C196.509 36.1487 197.319 35.9327 198.231 35.9327ZM208.141 35.9867C208.969 35.9867 209.611 36.1667 210.067 36.5267C210.523 36.8747 210.841 37.3487 211.021 37.9487C211.213 38.5487 211.309 39.2087 211.309 39.9287V44.6987C211.309 44.9627 211.219 45.1847 211.039 45.3647C210.871 45.5327 210.661 45.6167 210.409 45.6167C210.145 45.6167 209.929 45.5327 209.761 45.3647C209.593 45.1847 209.509 44.9627 209.509 44.6987V39.9287C209.509 39.5087 209.449 39.1247 209.329 38.7767C209.221 38.4287 209.023 38.1527 208.735 37.9487C208.459 37.7447 208.069 37.6427 207.565 37.6427C207.097 37.6427 206.677 37.7447 206.305 37.9487C205.945 38.1527 205.663 38.4287 205.459 38.7767C205.267 39.1247 205.171 39.5087 205.171 39.9287V44.6987C205.171 44.9627 205.081 45.1847 204.901 45.3647C204.733 45.5327 204.523 45.6167 204.271 45.6167C204.007 45.6167 203.791 45.5327 203.623 45.3647C203.455 45.1847 203.371 44.9627 203.371 44.6987V33.2147C203.371 32.9507 203.455 32.7347 203.623 32.5667C203.791 32.3867 204.007 32.2967 204.271 32.2967C204.523 32.2967 204.733 32.3867 204.901 32.5667C205.081 32.7347 205.171 32.9507 205.171 33.2147V38.1287L204.847 38.3087C204.931 38.0447 205.069 37.7747 205.261 37.4987C205.465 37.2227 205.711 36.9707 205.999 36.7427C206.299 36.5147 206.629 36.3347 206.989 36.2027C207.349 36.0587 207.733 35.9867 208.141 35.9867Z" fill="black"/>
</svg>
