<svg width="308" height="145" viewBox="0 0 308 145" fill="none" xmlns="http://www.w3.org/2000/svg">
<path d="M162.274 143.755C1.77756 150.531 0.685638 111.003 0.685547 73.733C0.685437 28.5576 42.6114 3.93686 162.274 0.3228C311.853 -4.19476 307.486 60.1806 307.486 73.733C307.486 87.2855 322.771 136.979 162.274 143.755Z" fill="#9B9AFF"/>
<rect x="75.7812" y="30.9048" width="155" height="34" rx="17" fill="white" fill-opacity="0.85"/>
<path d="M98.222 42.3048C98.462 42.3048 98.672 42.3948 98.852 42.5748C99.044 42.7428 99.14 42.9588 99.14 43.2228V53.9868C99.128 54.2508 99.026 54.4728 98.834 54.6528C98.654 54.8208 98.438 54.9048 98.186 54.9048C97.91 54.9048 97.682 54.8208 97.502 54.6528C97.334 54.4728 97.25 54.2508 97.25 53.9868V43.2228C97.25 42.9588 97.34 42.7428 97.52 42.5748C97.7 42.3948 97.934 42.3048 98.222 42.3048ZM106.34 42.3048C106.628 42.3048 106.856 42.3948 107.024 42.5748C107.192 42.7428 107.276 42.9588 107.276 43.2228V53.9868C107.276 54.2508 107.186 54.4728 107.006 54.6528C106.838 54.8208 106.61 54.9048 106.322 54.9048C106.07 54.9048 105.854 54.8208 105.674 54.6528C105.494 54.4728 105.404 54.2508 105.404 53.9868V43.2228C105.404 42.9588 105.494 42.7428 105.674 42.5748C105.866 42.3948 106.088 42.3048 106.34 42.3048ZM98.15 47.6688H106.358L106.34 49.3968H98.132L98.15 47.6688ZM114.399 55.0848C113.403 55.0848 112.539 54.8808 111.807 54.4728C111.075 54.0528 110.505 53.4828 110.097 52.7628C109.701 52.0308 109.503 51.1968 109.503 50.2608C109.503 49.2048 109.713 48.3048 110.133 47.5608C110.565 46.8048 111.123 46.2288 111.807 45.8328C112.491 45.4248 113.217 45.2208 113.985 45.2208C114.573 45.2208 115.131 45.3408 115.659 45.5808C116.187 45.8088 116.655 46.1328 117.063 46.5528C117.483 46.9608 117.813 47.4468 118.053 48.0108C118.293 48.5628 118.419 49.1688 118.431 49.8288C118.419 50.0688 118.323 50.2668 118.143 50.4228C117.963 50.5788 117.753 50.6568 117.513 50.6568H110.511L110.079 49.1268H116.847L116.505 49.4508V49.0008C116.481 48.5808 116.343 48.2148 116.091 47.9028C115.839 47.5788 115.527 47.3328 115.155 47.1648C114.783 46.9848 114.393 46.8948 113.985 46.8948C113.625 46.8948 113.277 46.9548 112.941 47.0748C112.617 47.1828 112.323 47.3628 112.059 47.6148C111.807 47.8668 111.603 48.2028 111.447 48.6228C111.303 49.0308 111.231 49.5408 111.231 50.1528C111.231 50.8128 111.369 51.3888 111.645 51.8808C111.921 52.3728 112.293 52.7568 112.761 53.0328C113.229 53.2968 113.745 53.4288 114.309 53.4288C114.753 53.4288 115.119 53.3868 115.407 53.3028C115.695 53.2068 115.935 53.0928 116.127 52.9608C116.319 52.8288 116.487 52.7028 116.631 52.5828C116.811 52.4748 116.991 52.4208 117.171 52.4208C117.387 52.4208 117.567 52.4988 117.711 52.6548C117.855 52.7988 117.927 52.9728 117.927 53.1768C117.927 53.4408 117.795 53.6808 117.531 53.8968C117.207 54.2088 116.757 54.4848 116.181 54.7248C115.617 54.9648 115.023 55.0848 114.399 55.0848ZM128.294 45.2928C128.558 45.2928 128.774 45.3828 128.942 45.5628C129.11 45.7308 129.194 45.9468 129.194 46.2108V53.9868C129.194 54.2508 129.11 54.4728 128.942 54.6528C128.774 54.8208 128.558 54.9048 128.294 54.9048C128.042 54.9048 127.826 54.8208 127.646 54.6528C127.478 54.4728 127.394 54.2508 127.394 53.9868V52.6908L127.772 52.7448C127.772 52.9608 127.682 53.2008 127.502 53.4648C127.334 53.7288 127.1 53.9868 126.8 54.2388C126.5 54.4788 126.146 54.6828 125.738 54.8508C125.33 55.0068 124.892 55.0848 124.424 55.0848C123.596 55.0848 122.852 54.8748 122.192 54.4548C121.532 54.0228 121.01 53.4348 120.626 52.6908C120.242 51.9468 120.05 51.1008 120.05 50.1528C120.05 49.1808 120.242 48.3288 120.626 47.5968C121.01 46.8528 121.526 46.2708 122.174 45.8508C122.834 45.4308 123.566 45.2208 124.37 45.2208C124.886 45.2208 125.36 45.3048 125.792 45.4728C126.236 45.6408 126.62 45.8568 126.944 46.1208C127.268 46.3848 127.514 46.6668 127.682 46.9668C127.862 47.2548 127.952 47.5308 127.952 47.7948L127.394 47.8488V46.2108C127.394 45.9588 127.478 45.7428 127.646 45.5628C127.826 45.3828 128.042 45.2928 128.294 45.2928ZM124.622 53.4288C125.186 53.4288 125.684 53.2848 126.116 52.9968C126.548 52.7088 126.884 52.3188 127.124 51.8268C127.364 51.3228 127.484 50.7648 127.484 50.1528C127.484 49.5288 127.364 48.9708 127.124 48.4788C126.884 47.9868 126.548 47.5968 126.116 47.3088C125.684 47.0208 125.186 46.8768 124.622 46.8768C124.07 46.8768 123.578 47.0208 123.146 47.3088C122.726 47.5968 122.39 47.9868 122.138 48.4788C121.898 48.9708 121.778 49.5288 121.778 50.1528C121.778 50.7648 121.898 51.3228 122.138 51.8268C122.39 52.3188 122.726 52.7088 123.146 52.9968C123.578 53.2848 124.07 53.4288 124.622 53.4288ZM133.66 53.9868C133.66 54.2508 133.57 54.4728 133.39 54.6528C133.222 54.8208 133.012 54.9048 132.76 54.9048C132.508 54.9048 132.292 54.8208 132.112 54.6528C131.944 54.4728 131.86 54.2508 131.86 53.9868V42.5028C131.86 42.2388 131.95 42.0228 132.13 41.8548C132.31 41.6748 132.526 41.5848 132.778 41.5848C133.042 41.5848 133.252 41.6748 133.408 41.8548C133.576 42.0228 133.66 42.2388 133.66 42.5028V53.9868ZM136.16 45.5448H140.39C140.63 45.5448 140.828 45.6288 140.984 45.7968C141.152 45.9528 141.236 46.1508 141.236 46.3908C141.236 46.6188 141.152 46.8108 140.984 46.9668C140.828 47.1228 140.63 47.2008 140.39 47.2008H136.16C135.92 47.2008 135.716 47.1228 135.548 46.9668C135.392 46.7988 135.314 46.6008 135.314 46.3728C135.314 46.1328 135.392 45.9348 135.548 45.7788C135.716 45.6228 135.92 45.5448 136.16 45.5448ZM138.05 43.2048C138.314 43.2048 138.53 43.2948 138.698 43.4748C138.866 43.6428 138.95 43.8588 138.95 44.1228V52.4748C138.95 52.6908 138.986 52.8648 139.058 52.9968C139.13 53.1288 139.226 53.2188 139.346 53.2668C139.478 53.3148 139.61 53.3388 139.742 53.3388C139.874 53.3388 139.988 53.3148 140.084 53.2668C140.192 53.2188 140.318 53.1948 140.462 53.1948C140.606 53.1948 140.738 53.2608 140.858 53.3928C140.978 53.5248 141.038 53.7048 141.038 53.9328C141.038 54.2208 140.882 54.4548 140.57 54.6348C140.258 54.8148 139.922 54.9048 139.562 54.9048C139.358 54.9048 139.118 54.8868 138.842 54.8508C138.566 54.8148 138.296 54.7248 138.032 54.5808C137.78 54.4368 137.57 54.2088 137.402 53.8968C137.234 53.5728 137.15 53.1228 137.15 52.5468V44.1228C137.15 43.8588 137.234 43.6428 137.402 43.4748C137.582 43.2948 137.798 43.2048 138.05 43.2048ZM148 45.2748C148.828 45.2748 149.47 45.4548 149.926 45.8148C150.382 46.1628 150.7 46.6368 150.88 47.2368C151.072 47.8368 151.168 48.4968 151.168 49.2168V53.9868C151.168 54.2508 151.078 54.4728 150.898 54.6528C150.73 54.8208 150.52 54.9048 150.268 54.9048C150.004 54.9048 149.788 54.8208 149.62 54.6528C149.452 54.4728 149.368 54.2508 149.368 53.9868V49.2168C149.368 48.7968 149.308 48.4128 149.188 48.0648C149.08 47.7168 148.882 47.4408 148.594 47.2368C148.318 47.0328 147.928 46.9308 147.424 46.9308C146.956 46.9308 146.536 47.0328 146.164 47.2368C145.804 47.4408 145.522 47.7168 145.318 48.0648C145.126 48.4128 145.03 48.7968 145.03 49.2168V53.9868C145.03 54.2508 144.94 54.4728 144.76 54.6528C144.592 54.8208 144.382 54.9048 144.13 54.9048C143.866 54.9048 143.65 54.8208 143.482 54.6528C143.314 54.4728 143.23 54.2508 143.23 53.9868V42.5028C143.23 42.2388 143.314 42.0228 143.482 41.8548C143.65 41.6748 143.866 41.5848 144.13 41.5848C144.382 41.5848 144.592 41.6748 144.76 41.8548C144.94 42.0228 145.03 42.2388 145.03 42.5028V47.4168L144.706 47.5968C144.79 47.3328 144.928 47.0628 145.12 46.7868C145.324 46.5108 145.57 46.2588 145.858 46.0308C146.158 45.8028 146.488 45.6228 146.848 45.4908C147.208 45.3468 147.592 45.2748 148 45.2748ZM159.797 42.3048H166.025C166.277 42.3048 166.487 42.3888 166.655 42.5568C166.835 42.7248 166.925 42.9348 166.925 43.1868C166.925 43.4388 166.835 43.6428 166.655 43.7988C166.487 43.9548 166.277 44.0328 166.025 44.0328H160.589L160.769 43.7268V47.7588L160.607 47.5788H165.215C165.467 47.5788 165.677 47.6628 165.845 47.8308C166.025 47.9988 166.115 48.2148 166.115 48.4788C166.115 48.7308 166.025 48.9348 165.845 49.0908C165.677 49.2468 165.467 49.3248 165.215 49.3248H160.643L160.769 49.1628V53.3208L160.643 53.1768H166.025C166.277 53.1768 166.487 53.2668 166.655 53.4468C166.835 53.6148 166.925 53.8128 166.925 54.0408C166.925 54.2928 166.835 54.5028 166.655 54.6708C166.487 54.8268 166.277 54.9048 166.025 54.9048H159.797C159.545 54.9048 159.329 54.8208 159.149 54.6528C158.969 54.4728 158.879 54.2508 158.879 53.9868V43.2228C158.879 42.9588 158.969 42.7428 159.149 42.5748C159.329 42.3948 159.545 42.3048 159.797 42.3048ZM176.634 45.4008C176.898 45.4008 177.114 45.4908 177.282 45.6708C177.45 45.8388 177.534 46.0548 177.534 46.3188V57.5868C177.534 57.8508 177.45 58.0668 177.282 58.2348C177.114 58.4148 176.898 58.5048 176.634 58.5048C176.382 58.5048 176.166 58.4148 175.986 58.2348C175.818 58.0668 175.734 57.8508 175.734 57.5868V52.6908L176.112 52.7088C176.112 52.9248 176.022 53.1708 175.842 53.4468C175.674 53.7108 175.44 53.9688 175.14 54.2208C174.84 54.4728 174.486 54.6828 174.078 54.8508C173.67 55.0068 173.232 55.0848 172.764 55.0848C171.936 55.0848 171.192 54.8748 170.532 54.4548C169.872 54.0228 169.35 53.4408 168.966 52.7088C168.582 51.9648 168.39 51.1128 168.39 50.1528C168.39 49.1928 168.582 48.3468 168.966 47.6148C169.35 46.8708 169.866 46.2888 170.514 45.8688C171.174 45.4368 171.906 45.2208 172.71 45.2208C173.214 45.2208 173.682 45.3048 174.114 45.4728C174.558 45.6408 174.942 45.8568 175.266 46.1208C175.59 46.3848 175.842 46.6668 176.022 46.9668C176.202 47.2548 176.292 47.5308 176.292 47.7948L175.734 47.8488V46.3188C175.734 46.0668 175.818 45.8508 175.986 45.6708C176.166 45.4908 176.382 45.4008 176.634 45.4008ZM172.962 53.4288C173.538 53.4288 174.036 53.2848 174.456 52.9968C174.888 52.7088 175.224 52.3188 175.464 51.8268C175.704 51.3348 175.824 50.7768 175.824 50.1528C175.824 49.5288 175.704 48.9708 175.464 48.4788C175.224 47.9868 174.888 47.5968 174.456 47.3088C174.024 47.0208 173.526 46.8768 172.962 46.8768C172.41 46.8768 171.918 47.0208 171.486 47.3088C171.066 47.5968 170.73 47.9868 170.478 48.4788C170.238 48.9708 170.118 49.5288 170.118 50.1528C170.118 50.7768 170.238 51.3348 170.478 51.8268C170.73 52.3188 171.066 52.7088 171.486 52.9968C171.918 53.2848 172.41 53.4288 172.962 53.4288ZM187.112 45.4368C187.364 45.4368 187.574 45.5268 187.742 45.7068C187.922 45.8748 188.012 46.0908 188.012 46.3548V51.0888C188.012 52.3368 187.664 53.3148 186.968 54.0228C186.272 54.7188 185.288 55.0668 184.016 55.0668C182.756 55.0668 181.778 54.7188 181.082 54.0228C180.398 53.3148 180.056 52.3368 180.056 51.0888V46.3548C180.056 46.0908 180.14 45.8748 180.308 45.7068C180.476 45.5268 180.692 45.4368 180.956 45.4368C181.208 45.4368 181.418 45.5268 181.586 45.7068C181.766 45.8748 181.856 46.0908 181.856 46.3548V51.0888C181.856 51.8688 182.036 52.4508 182.396 52.8348C182.768 53.2188 183.308 53.4108 184.016 53.4108C184.736 53.4108 185.282 53.2188 185.654 52.8348C186.026 52.4508 186.212 51.8688 186.212 51.0888V46.3548C186.212 46.0908 186.296 45.8748 186.464 45.7068C186.632 45.5268 186.848 45.4368 187.112 45.4368ZM192.207 53.9868C192.207 54.2508 192.123 54.4728 191.955 54.6528C191.787 54.8208 191.571 54.9048 191.307 54.9048C191.055 54.9048 190.839 54.8208 190.659 54.6528C190.491 54.4728 190.407 54.2508 190.407 53.9868V46.2828C190.407 46.0188 190.491 45.8028 190.659 45.6348C190.839 45.4548 191.055 45.3648 191.307 45.3648C191.571 45.3648 191.787 45.4548 191.955 45.6348C192.123 45.8028 192.207 46.0188 192.207 46.2828V53.9868ZM191.289 44.1768C190.941 44.1768 190.689 44.1168 190.533 43.9968C190.377 43.8648 190.299 43.6488 190.299 43.3488V43.0608C190.299 42.7608 190.383 42.5508 190.551 42.4308C190.719 42.3108 190.971 42.2508 191.307 42.2508C191.667 42.2508 191.925 42.3168 192.081 42.4488C192.237 42.5688 192.315 42.7728 192.315 43.0608V43.3488C192.315 43.6608 192.231 43.8768 192.063 43.9968C191.907 44.1168 191.649 44.1768 191.289 44.1768ZM194.502 45.5448H198.732C198.972 45.5448 199.17 45.6288 199.326 45.7968C199.494 45.9528 199.578 46.1508 199.578 46.3908C199.578 46.6188 199.494 46.8108 199.326 46.9668C199.17 47.1228 198.972 47.2008 198.732 47.2008H194.502C194.262 47.2008 194.058 47.1228 193.89 46.9668C193.734 46.7988 193.656 46.6008 193.656 46.3728C193.656 46.1328 193.734 45.9348 193.89 45.7788C194.058 45.6228 194.262 45.5448 194.502 45.5448ZM196.392 43.2048C196.656 43.2048 196.872 43.2948 197.04 43.4748C197.208 43.6428 197.292 43.8588 197.292 44.1228V52.4748C197.292 52.6908 197.328 52.8648 197.4 52.9968C197.472 53.1288 197.568 53.2188 197.688 53.2668C197.82 53.3148 197.952 53.3388 198.084 53.3388C198.216 53.3388 198.33 53.3148 198.426 53.2668C198.534 53.2188 198.66 53.1948 198.804 53.1948C198.948 53.1948 199.08 53.2608 199.2 53.3928C199.32 53.5248 199.38 53.7048 199.38 53.9328C199.38 54.2208 199.224 54.4548 198.912 54.6348C198.6 54.8148 198.264 54.9048 197.904 54.9048C197.7 54.9048 197.46 54.8868 197.184 54.8508C196.908 54.8148 196.638 54.7248 196.374 54.5808C196.122 54.4368 195.912 54.2088 195.744 53.8968C195.576 53.5728 195.492 53.1228 195.492 52.5468V44.1228C195.492 43.8588 195.576 43.6428 195.744 43.4748C195.924 43.2948 196.14 43.2048 196.392 43.2048ZM208.61 45.3648C208.874 45.3648 209.09 45.4548 209.258 45.6348C209.426 45.8028 209.51 46.0188 209.51 46.2828V54.0228C209.51 55.0788 209.306 55.9368 208.898 56.5968C208.502 57.2568 207.962 57.7368 207.278 58.0368C206.606 58.3488 205.844 58.5048 204.992 58.5048C204.56 58.5048 204.128 58.4628 203.696 58.3788C203.264 58.3068 202.91 58.1988 202.634 58.0548C202.346 57.9228 202.142 57.7608 202.022 57.5688C201.902 57.3768 201.884 57.1668 201.968 56.9388C202.052 56.6508 202.196 56.4528 202.4 56.3448C202.604 56.2488 202.814 56.2428 203.03 56.3268C203.234 56.4108 203.504 56.5188 203.84 56.6508C204.176 56.7828 204.56 56.8488 204.992 56.8488C205.58 56.8488 206.078 56.7528 206.486 56.5608C206.894 56.3688 207.2 56.0688 207.404 55.6608C207.62 55.2528 207.728 54.7248 207.728 54.0768V52.8348L208.016 53.2668C207.824 53.6628 207.572 53.9928 207.26 54.2568C206.948 54.5208 206.576 54.7248 206.144 54.8688C205.724 55.0128 205.256 55.0848 204.74 55.0848C204.08 55.0848 203.51 54.9408 203.03 54.6528C202.562 54.3528 202.202 53.9448 201.95 53.4288C201.698 52.9008 201.572 52.3008 201.572 51.6288V46.2828C201.572 46.0188 201.656 45.8028 201.824 45.6348C201.992 45.4548 202.208 45.3648 202.472 45.3648C202.724 45.3648 202.934 45.4548 203.102 45.6348C203.282 45.8028 203.372 46.0188 203.372 46.2828V51.1428C203.372 51.9348 203.546 52.5168 203.894 52.8888C204.242 53.2488 204.758 53.4288 205.442 53.4288C205.898 53.4288 206.294 53.3328 206.63 53.1408C206.966 52.9488 207.23 52.6848 207.422 52.3488C207.614 52.0008 207.71 51.5988 207.71 51.1428V46.2828C207.71 46.0188 207.794 45.8028 207.962 45.6348C208.142 45.4548 208.358 45.3648 208.61 45.3648Z" fill="black"/>
<rect x="45.7812" y="74.9048" width="215" height="34" rx="17" fill="white" fill-opacity="0.85"/>
<path d="M75.6023 86.2508C75.8303 86.2508 76.0343 86.3408 76.2143 86.5208C76.4063 86.6888 76.5023 86.9048 76.5023 87.1688C76.5023 87.2648 76.4843 87.3608 76.4483 87.4568C76.4243 87.5408 76.3823 87.6308 76.3223 87.7268L72.2003 93.5588L72.4883 92.4968V97.9868C72.4883 98.2508 72.3983 98.4728 72.2183 98.6528C72.0383 98.8208 71.8343 98.9048 71.6063 98.9048C71.3543 98.9048 71.1383 98.8208 70.9583 98.6528C70.7903 98.4728 70.7063 98.2508 70.7063 97.9868V92.6408L70.8323 93.1628L66.8543 87.8528C66.7583 87.7208 66.6923 87.6008 66.6563 87.4928C66.6203 87.3728 66.6023 87.2588 66.6023 87.1508C66.6023 86.8868 66.7043 86.6708 66.9083 86.5028C67.1243 86.3348 67.3403 86.2508 67.5563 86.2508C67.8443 86.2508 68.0903 86.3888 68.2943 86.6648L71.8943 91.5968L71.4623 91.5428L74.8463 86.6828C75.0503 86.3948 75.3023 86.2508 75.6023 86.2508ZM86.3838 94.1708C86.3838 95.1308 86.1738 95.9828 85.7538 96.7268C85.3338 97.4588 84.7638 98.0348 84.0438 98.4548C83.3238 98.8748 82.5138 99.0848 81.6138 99.0848C80.7138 99.0848 79.9038 98.8748 79.1838 98.4548C78.4638 98.0348 77.8878 97.4588 77.4558 96.7268C77.0358 95.9828 76.8258 95.1308 76.8258 94.1708C76.8258 93.1988 77.0358 92.3468 77.4558 91.6148C77.8878 90.8708 78.4638 90.2888 79.1838 89.8688C79.9038 89.4368 80.7138 89.2208 81.6138 89.2208C82.5138 89.2208 83.3238 89.4368 84.0438 89.8688C84.7638 90.2888 85.3338 90.8708 85.7538 91.6148C86.1738 92.3468 86.3838 93.1988 86.3838 94.1708ZM84.5838 94.1708C84.5838 93.5108 84.4518 92.9408 84.1878 92.4608C83.9238 91.9688 83.5638 91.5848 83.1078 91.3088C82.6638 91.0208 82.1658 90.8768 81.6138 90.8768C81.0618 90.8768 80.5578 91.0208 80.1018 91.3088C79.6458 91.5848 79.2858 91.9688 79.0218 92.4608C78.7578 92.9408 78.6258 93.5108 78.6258 94.1708C78.6258 94.8068 78.7578 95.3708 79.0218 95.8628C79.2858 96.3548 79.6458 96.7388 80.1018 97.0148C80.5578 97.2908 81.0618 97.4288 81.6138 97.4288C82.1658 97.4288 82.6638 97.2908 83.1078 97.0148C83.5638 96.7388 83.9238 96.3548 84.1878 95.8628C84.4518 95.3708 84.5838 94.8068 84.5838 94.1708ZM95.4771 89.4368C95.7291 89.4368 95.9391 89.5268 96.1071 89.7068C96.2871 89.8748 96.3771 90.0908 96.3771 90.3548V95.0888C96.3771 96.3368 96.0291 97.3148 95.3331 98.0228C94.6371 98.7188 93.6531 99.0668 92.3811 99.0668C91.1211 99.0668 90.1431 98.7188 89.4471 98.0228C88.7631 97.3148 88.4211 96.3368 88.4211 95.0888V90.3548C88.4211 90.0908 88.5051 89.8748 88.6731 89.7068C88.8411 89.5268 89.0571 89.4368 89.3211 89.4368C89.5731 89.4368 89.7831 89.5268 89.9511 89.7068C90.1311 89.8748 90.2211 90.0908 90.2211 90.3548V95.0888C90.2211 95.8688 90.4011 96.4508 90.7611 96.8348C91.1331 97.2188 91.6731 97.4108 92.3811 97.4108C93.1011 97.4108 93.6471 97.2188 94.0191 96.8348C94.3911 96.4508 94.5771 95.8688 94.5771 95.0888V90.3548C94.5771 90.0908 94.6611 89.8748 94.8291 89.7068C94.9971 89.5268 95.2131 89.4368 95.4771 89.4368ZM98.7541 89.5448H102.984C103.224 89.5448 103.422 89.6288 103.578 89.7968C103.746 89.9528 103.83 90.1508 103.83 90.3908C103.83 90.6188 103.746 90.8108 103.578 90.9668C103.422 91.1228 103.224 91.2008 102.984 91.2008H98.7541C98.5141 91.2008 98.3101 91.1228 98.1421 90.9668C97.9861 90.7988 97.9081 90.6008 97.9081 90.3728C97.9081 90.1328 97.9861 89.9348 98.1421 89.7788C98.3101 89.6228 98.5141 89.5448 98.7541 89.5448ZM100.644 87.2048C100.908 87.2048 101.124 87.2948 101.292 87.4748C101.46 87.6428 101.544 87.8588 101.544 88.1228V96.4748C101.544 96.6908 101.58 96.8648 101.652 96.9968C101.724 97.1288 101.82 97.2188 101.94 97.2668C102.072 97.3148 102.204 97.3388 102.336 97.3388C102.468 97.3388 102.582 97.3148 102.678 97.2668C102.786 97.2188 102.912 97.1948 103.056 97.1948C103.2 97.1948 103.332 97.2608 103.452 97.3928C103.572 97.5248 103.632 97.7048 103.632 97.9328C103.632 98.2208 103.476 98.4548 103.164 98.6348C102.852 98.8148 102.516 98.9048 102.156 98.9048C101.952 98.9048 101.712 98.8868 101.436 98.8508C101.16 98.8148 100.89 98.7248 100.626 98.5808C100.374 98.4368 100.164 98.2088 99.9961 97.8968C99.8281 97.5728 99.7441 97.1228 99.7441 96.5468V88.1228C99.7441 87.8588 99.8281 87.6428 99.9961 87.4748C100.176 87.2948 100.392 87.2048 100.644 87.2048ZM110.593 89.2748C111.421 89.2748 112.063 89.4548 112.519 89.8148C112.975 90.1628 113.293 90.6368 113.473 91.2368C113.665 91.8368 113.761 92.4968 113.761 93.2168V97.9868C113.761 98.2508 113.671 98.4728 113.491 98.6528C113.323 98.8208 113.113 98.9048 112.861 98.9048C112.597 98.9048 112.381 98.8208 112.213 98.6528C112.045 98.4728 111.961 98.2508 111.961 97.9868V93.2168C111.961 92.7968 111.901 92.4128 111.781 92.0648C111.673 91.7168 111.475 91.4408 111.187 91.2368C110.911 91.0328 110.521 90.9308 110.017 90.9308C109.549 90.9308 109.129 91.0328 108.757 91.2368C108.397 91.4408 108.115 91.7168 107.911 92.0648C107.719 92.4128 107.623 92.7968 107.623 93.2168V97.9868C107.623 98.2508 107.533 98.4728 107.353 98.6528C107.185 98.8208 106.975 98.9048 106.723 98.9048C106.459 98.9048 106.243 98.8208 106.075 98.6528C105.907 98.4728 105.823 98.2508 105.823 97.9868V86.5028C105.823 86.2388 105.907 86.0228 106.075 85.8548C106.243 85.6748 106.459 85.5848 106.723 85.5848C106.975 85.5848 107.185 85.6748 107.353 85.8548C107.533 86.0228 107.623 86.2388 107.623 86.5028V91.4168L107.299 91.5968C107.383 91.3328 107.521 91.0628 107.713 90.7868C107.917 90.5108 108.163 90.2588 108.451 90.0308C108.751 89.8028 109.081 89.6228 109.441 89.4908C109.801 89.3468 110.185 89.2748 110.593 89.2748ZM122.409 86.2868C122.553 86.2868 122.703 86.3228 122.859 86.3948C123.015 86.4668 123.135 86.5688 123.219 86.7008L127.791 93.6668L127.017 93.6308L131.679 86.7008C131.871 86.4248 132.117 86.2868 132.417 86.2868C132.657 86.2868 132.867 86.3768 133.047 86.5568C133.239 86.7248 133.335 86.9408 133.335 87.2048V97.9868C133.335 98.2508 133.251 98.4728 133.083 98.6528C132.915 98.8208 132.693 98.9048 132.417 98.9048C132.129 98.9048 131.895 98.8208 131.715 98.6528C131.547 98.4728 131.463 98.2508 131.463 97.9868V88.8608L132.039 88.9868L128.079 95.0168C127.995 95.1248 127.887 95.2208 127.755 95.3048C127.623 95.3768 127.485 95.4068 127.341 95.3948C127.209 95.4068 127.071 95.3768 126.927 95.3048C126.795 95.2208 126.687 95.1248 126.603 95.0168L122.787 89.0768L123.219 88.3568V97.9868C123.219 98.2508 123.135 98.4728 122.967 98.6528C122.811 98.8208 122.601 98.9048 122.337 98.9048C122.085 98.9048 121.875 98.8208 121.707 98.6528C121.551 98.4728 121.473 98.2508 121.473 97.9868V87.2048C121.473 86.9528 121.563 86.7368 121.743 86.5568C121.935 86.3768 122.157 86.2868 122.409 86.2868ZM140.485 99.0848C139.489 99.0848 138.625 98.8808 137.893 98.4728C137.161 98.0528 136.591 97.4828 136.183 96.7628C135.787 96.0308 135.589 95.1968 135.589 94.2608C135.589 93.2048 135.799 92.3048 136.219 91.5608C136.651 90.8048 137.209 90.2288 137.893 89.8328C138.577 89.4248 139.303 89.2208 140.071 89.2208C140.659 89.2208 141.217 89.3408 141.745 89.5808C142.273 89.8088 142.741 90.1328 143.149 90.5528C143.569 90.9608 143.899 91.4468 144.139 92.0108C144.379 92.5628 144.505 93.1688 144.517 93.8288C144.505 94.0688 144.409 94.2668 144.229 94.4228C144.049 94.5788 143.839 94.6568 143.599 94.6568H136.597L136.165 93.1268H142.933L142.591 93.4508V93.0008C142.567 92.5808 142.429 92.2148 142.177 91.9028C141.925 91.5788 141.613 91.3328 141.241 91.1648C140.869 90.9848 140.479 90.8948 140.071 90.8948C139.711 90.8948 139.363 90.9548 139.027 91.0748C138.703 91.1828 138.409 91.3628 138.145 91.6148C137.893 91.8668 137.689 92.2028 137.533 92.6228C137.389 93.0308 137.317 93.5408 137.317 94.1528C137.317 94.8128 137.455 95.3888 137.731 95.8808C138.007 96.3728 138.379 96.7568 138.847 97.0328C139.315 97.2968 139.831 97.4288 140.395 97.4288C140.839 97.4288 141.205 97.3868 141.493 97.3028C141.781 97.2068 142.021 97.0928 142.213 96.9608C142.405 96.8288 142.573 96.7028 142.717 96.5828C142.897 96.4748 143.077 96.4208 143.257 96.4208C143.473 96.4208 143.653 96.4988 143.797 96.6548C143.941 96.7988 144.013 96.9728 144.013 97.1768C144.013 97.4408 143.881 97.6808 143.617 97.8968C143.293 98.2088 142.843 98.4848 142.267 98.7248C141.703 98.9648 141.109 99.0848 140.485 99.0848ZM151.43 89.2208C152.282 89.2208 152.942 89.4008 153.41 89.7608C153.878 90.1088 154.202 90.5828 154.382 91.1828C154.574 91.7708 154.67 92.4308 154.67 93.1628V97.9868C154.67 98.2508 154.58 98.4728 154.4 98.6528C154.232 98.8208 154.022 98.9048 153.77 98.9048C153.506 98.9048 153.29 98.8208 153.122 98.6528C152.954 98.4728 152.87 98.2508 152.87 97.9868V93.1808C152.87 92.7488 152.81 92.3648 152.69 92.0288C152.57 91.6808 152.36 91.4048 152.06 91.2008C151.772 90.9848 151.364 90.8768 150.836 90.8768C150.344 90.8768 149.912 90.9848 149.54 91.2008C149.168 91.4048 148.874 91.6808 148.658 92.0288C148.454 92.3648 148.352 92.7488 148.352 93.1808V97.9868C148.352 98.2508 148.262 98.4728 148.082 98.6528C147.914 98.8208 147.704 98.9048 147.452 98.9048C147.188 98.9048 146.972 98.8208 146.804 98.6528C146.636 98.4728 146.552 98.2508 146.552 97.9868V90.3548C146.552 90.0908 146.636 89.8748 146.804 89.7068C146.972 89.5268 147.188 89.4368 147.452 89.4368C147.704 89.4368 147.914 89.5268 148.082 89.7068C148.262 89.8748 148.352 90.0908 148.352 90.3548V91.3628L148.028 91.5428C148.112 91.2788 148.256 91.0148 148.46 90.7508C148.676 90.4748 148.934 90.2228 149.234 89.9948C149.534 89.7548 149.87 89.5688 150.242 89.4368C150.614 89.2928 151.01 89.2208 151.43 89.2208ZM157.043 89.5448H161.273C161.513 89.5448 161.711 89.6288 161.867 89.7968C162.035 89.9528 162.119 90.1508 162.119 90.3908C162.119 90.6188 162.035 90.8108 161.867 90.9668C161.711 91.1228 161.513 91.2008 161.273 91.2008H157.043C156.803 91.2008 156.599 91.1228 156.431 90.9668C156.275 90.7988 156.197 90.6008 156.197 90.3728C156.197 90.1328 156.275 89.9348 156.431 89.7788C156.599 89.6228 156.803 89.5448 157.043 89.5448ZM158.933 87.2048C159.197 87.2048 159.413 87.2948 159.581 87.4748C159.749 87.6428 159.833 87.8588 159.833 88.1228V96.4748C159.833 96.6908 159.869 96.8648 159.941 96.9968C160.013 97.1288 160.109 97.2188 160.229 97.2668C160.361 97.3148 160.493 97.3388 160.625 97.3388C160.757 97.3388 160.871 97.3148 160.967 97.2668C161.075 97.2188 161.201 97.1948 161.345 97.1948C161.489 97.1948 161.621 97.2608 161.741 97.3928C161.861 97.5248 161.921 97.7048 161.921 97.9328C161.921 98.2208 161.765 98.4548 161.453 98.6348C161.141 98.8148 160.805 98.9048 160.445 98.9048C160.241 98.9048 160.001 98.8868 159.725 98.8508C159.449 98.8148 159.179 98.7248 158.915 98.5808C158.663 98.4368 158.453 98.2088 158.285 97.8968C158.117 97.5728 158.033 97.1228 158.033 96.5468V88.1228C158.033 87.8588 158.117 87.6428 158.285 87.4748C158.465 87.2948 158.681 87.2048 158.933 87.2048ZM171.871 89.2928C172.135 89.2928 172.351 89.3828 172.519 89.5628C172.687 89.7308 172.771 89.9468 172.771 90.2108V97.9868C172.771 98.2508 172.687 98.4728 172.519 98.6528C172.351 98.8208 172.135 98.9048 171.871 98.9048C171.619 98.9048 171.403 98.8208 171.223 98.6528C171.055 98.4728 170.971 98.2508 170.971 97.9868V96.6908L171.349 96.7448C171.349 96.9608 171.259 97.2008 171.079 97.4648C170.911 97.7288 170.677 97.9868 170.377 98.2388C170.077 98.4788 169.723 98.6828 169.315 98.8508C168.907 99.0068 168.469 99.0848 168.001 99.0848C167.173 99.0848 166.429 98.8748 165.769 98.4548C165.109 98.0228 164.587 97.4348 164.203 96.6908C163.819 95.9468 163.627 95.1008 163.627 94.1528C163.627 93.1808 163.819 92.3288 164.203 91.5968C164.587 90.8528 165.103 90.2708 165.751 89.8508C166.411 89.4308 167.143 89.2208 167.947 89.2208C168.463 89.2208 168.937 89.3048 169.369 89.4728C169.813 89.6408 170.197 89.8568 170.521 90.1208C170.845 90.3848 171.091 90.6668 171.259 90.9668C171.439 91.2548 171.529 91.5308 171.529 91.7948L170.971 91.8488V90.2108C170.971 89.9588 171.055 89.7428 171.223 89.5628C171.403 89.3828 171.619 89.2928 171.871 89.2928ZM168.199 97.4288C168.763 97.4288 169.261 97.2848 169.693 96.9968C170.125 96.7088 170.461 96.3188 170.701 95.8268C170.941 95.3228 171.061 94.7648 171.061 94.1528C171.061 93.5288 170.941 92.9708 170.701 92.4788C170.461 91.9868 170.125 91.5968 169.693 91.3088C169.261 91.0208 168.763 90.8768 168.199 90.8768C167.647 90.8768 167.155 91.0208 166.723 91.3088C166.303 91.5968 165.967 91.9868 165.715 92.4788C165.475 92.9708 165.355 93.5288 165.355 94.1528C165.355 94.7648 165.475 95.3228 165.715 95.8268C165.967 96.3188 166.303 96.7088 166.723 96.9968C167.155 97.2848 167.647 97.4288 168.199 97.4288ZM177.236 97.9868C177.236 98.2508 177.146 98.4728 176.966 98.6528C176.798 98.8208 176.588 98.9048 176.336 98.9048C176.084 98.9048 175.868 98.8208 175.688 98.6528C175.52 98.4728 175.436 98.2508 175.436 97.9868V86.5028C175.436 86.2388 175.526 86.0228 175.706 85.8548C175.886 85.6748 176.102 85.5848 176.354 85.5848C176.618 85.5848 176.828 85.6748 176.984 85.8548C177.152 86.0228 177.236 86.2388 177.236 86.5028V97.9868ZM186.095 86.3048C186.335 86.3048 186.545 86.3948 186.725 86.5748C186.917 86.7428 187.013 86.9588 187.013 87.2228V97.9868C187.001 98.2508 186.899 98.4728 186.707 98.6528C186.527 98.8208 186.311 98.9048 186.059 98.9048C185.783 98.9048 185.555 98.8208 185.375 98.6528C185.207 98.4728 185.123 98.2508 185.123 97.9868V87.2228C185.123 86.9588 185.213 86.7428 185.393 86.5748C185.573 86.3948 185.807 86.3048 186.095 86.3048ZM194.213 86.3048C194.501 86.3048 194.729 86.3948 194.897 86.5748C195.065 86.7428 195.149 86.9588 195.149 87.2228V97.9868C195.149 98.2508 195.059 98.4728 194.879 98.6528C194.711 98.8208 194.483 98.9048 194.195 98.9048C193.943 98.9048 193.727 98.8208 193.547 98.6528C193.367 98.4728 193.277 98.2508 193.277 97.9868V87.2228C193.277 86.9588 193.367 86.7428 193.547 86.5748C193.739 86.3948 193.961 86.3048 194.213 86.3048ZM186.023 91.6688H194.231L194.213 93.3968H186.005L186.023 91.6688ZM202.273 99.0848C201.277 99.0848 200.413 98.8808 199.681 98.4728C198.949 98.0528 198.379 97.4828 197.971 96.7628C197.575 96.0308 197.377 95.1968 197.377 94.2608C197.377 93.2048 197.587 92.3048 198.007 91.5608C198.439 90.8048 198.997 90.2288 199.681 89.8328C200.365 89.4248 201.091 89.2208 201.859 89.2208C202.447 89.2208 203.005 89.3408 203.533 89.5808C204.061 89.8088 204.529 90.1328 204.937 90.5528C205.357 90.9608 205.687 91.4468 205.927 92.0108C206.167 92.5628 206.293 93.1688 206.305 93.8288C206.293 94.0688 206.197 94.2668 206.017 94.4228C205.837 94.5788 205.627 94.6568 205.387 94.6568H198.385L197.953 93.1268H204.721L204.379 93.4508V93.0008C204.355 92.5808 204.217 92.2148 203.965 91.9028C203.713 91.5788 203.401 91.3328 203.029 91.1648C202.657 90.9848 202.267 90.8948 201.859 90.8948C201.499 90.8948 201.151 90.9548 200.815 91.0748C200.491 91.1828 200.197 91.3628 199.933 91.6148C199.681 91.8668 199.477 92.2028 199.321 92.6228C199.177 93.0308 199.105 93.5408 199.105 94.1528C199.105 94.8128 199.243 95.3888 199.519 95.8808C199.795 96.3728 200.167 96.7568 200.635 97.0328C201.103 97.2968 201.619 97.4288 202.183 97.4288C202.627 97.4288 202.993 97.3868 203.281 97.3028C203.569 97.2068 203.809 97.0928 204.001 96.9608C204.193 96.8288 204.361 96.7028 204.505 96.5828C204.685 96.4748 204.865 96.4208 205.045 96.4208C205.261 96.4208 205.441 96.4988 205.585 96.6548C205.729 96.7988 205.801 96.9728 205.801 97.1768C205.801 97.4408 205.669 97.6808 205.405 97.8968C205.081 98.2088 204.631 98.4848 204.055 98.7248C203.491 98.9648 202.897 99.0848 202.273 99.0848ZM216.167 89.2928C216.431 89.2928 216.647 89.3828 216.815 89.5628C216.983 89.7308 217.067 89.9468 217.067 90.2108V97.9868C217.067 98.2508 216.983 98.4728 216.815 98.6528C216.647 98.8208 216.431 98.9048 216.167 98.9048C215.915 98.9048 215.699 98.8208 215.519 98.6528C215.351 98.4728 215.267 98.2508 215.267 97.9868V96.6908L215.645 96.7448C215.645 96.9608 215.555 97.2008 215.375 97.4648C215.207 97.7288 214.973 97.9868 214.673 98.2388C214.373 98.4788 214.019 98.6828 213.611 98.8508C213.203 99.0068 212.765 99.0848 212.297 99.0848C211.469 99.0848 210.725 98.8748 210.065 98.4548C209.405 98.0228 208.883 97.4348 208.499 96.6908C208.115 95.9468 207.923 95.1008 207.923 94.1528C207.923 93.1808 208.115 92.3288 208.499 91.5968C208.883 90.8528 209.399 90.2708 210.047 89.8508C210.707 89.4308 211.439 89.2208 212.243 89.2208C212.759 89.2208 213.233 89.3048 213.665 89.4728C214.109 89.6408 214.493 89.8568 214.817 90.1208C215.141 90.3848 215.387 90.6668 215.555 90.9668C215.735 91.2548 215.825 91.5308 215.825 91.7948L215.267 91.8488V90.2108C215.267 89.9588 215.351 89.7428 215.519 89.5628C215.699 89.3828 215.915 89.2928 216.167 89.2928ZM212.495 97.4288C213.059 97.4288 213.557 97.2848 213.989 96.9968C214.421 96.7088 214.757 96.3188 214.997 95.8268C215.237 95.3228 215.357 94.7648 215.357 94.1528C215.357 93.5288 215.237 92.9708 214.997 92.4788C214.757 91.9868 214.421 91.5968 213.989 91.3088C213.557 91.0208 213.059 90.8768 212.495 90.8768C211.943 90.8768 211.451 91.0208 211.019 91.3088C210.599 91.5968 210.263 91.9868 210.011 92.4788C209.771 92.9708 209.651 93.5288 209.651 94.1528C209.651 94.7648 209.771 95.3228 210.011 95.8268C210.263 96.3188 210.599 96.7088 211.019 96.9968C211.451 97.2848 211.943 97.4288 212.495 97.4288ZM221.533 97.9868C221.533 98.2508 221.443 98.4728 221.263 98.6528C221.095 98.8208 220.885 98.9048 220.633 98.9048C220.381 98.9048 220.165 98.8208 219.985 98.6528C219.817 98.4728 219.733 98.2508 219.733 97.9868V86.5028C219.733 86.2388 219.823 86.0228 220.003 85.8548C220.183 85.6748 220.399 85.5848 220.651 85.5848C220.915 85.5848 221.125 85.6748 221.281 85.8548C221.449 86.0228 221.533 86.2388 221.533 86.5028V97.9868ZM224.033 89.5448H228.263C228.503 89.5448 228.701 89.6288 228.857 89.7968C229.025 89.9528 229.109 90.1508 229.109 90.3908C229.109 90.6188 229.025 90.8108 228.857 90.9668C228.701 91.1228 228.503 91.2008 228.263 91.2008H224.033C223.793 91.2008 223.589 91.1228 223.421 90.9668C223.265 90.7988 223.187 90.6008 223.187 90.3728C223.187 90.1328 223.265 89.9348 223.421 89.7788C223.589 89.6228 223.793 89.5448 224.033 89.5448ZM225.923 87.2048C226.187 87.2048 226.403 87.2948 226.571 87.4748C226.739 87.6428 226.823 87.8588 226.823 88.1228V96.4748C226.823 96.6908 226.859 96.8648 226.931 96.9968C227.003 97.1288 227.099 97.2188 227.219 97.2668C227.351 97.3148 227.483 97.3388 227.615 97.3388C227.747 97.3388 227.861 97.3148 227.957 97.2668C228.065 97.2188 228.191 97.1948 228.335 97.1948C228.479 97.1948 228.611 97.2608 228.731 97.3928C228.851 97.5248 228.911 97.7048 228.911 97.9328C228.911 98.2208 228.755 98.4548 228.443 98.6348C228.131 98.8148 227.795 98.9048 227.435 98.9048C227.231 98.9048 226.991 98.8868 226.715 98.8508C226.439 98.8148 226.169 98.7248 225.905 98.5808C225.653 98.4368 225.443 98.2088 225.275 97.8968C225.107 97.5728 225.023 97.1228 225.023 96.5468V88.1228C225.023 87.8588 225.107 87.6428 225.275 87.4748C225.455 87.2948 225.671 87.2048 225.923 87.2048ZM235.873 89.2748C236.701 89.2748 237.343 89.4548 237.799 89.8148C238.255 90.1628 238.573 90.6368 238.753 91.2368C238.945 91.8368 239.041 92.4968 239.041 93.2168V97.9868C239.041 98.2508 238.951 98.4728 238.771 98.6528C238.603 98.8208 238.393 98.9048 238.141 98.9048C237.877 98.9048 237.661 98.8208 237.493 98.6528C237.325 98.4728 237.241 98.2508 237.241 97.9868V93.2168C237.241 92.7968 237.181 92.4128 237.061 92.0648C236.953 91.7168 236.755 91.4408 236.467 91.2368C236.191 91.0328 235.801 90.9308 235.297 90.9308C234.829 90.9308 234.409 91.0328 234.037 91.2368C233.677 91.4408 233.395 91.7168 233.191 92.0648C232.999 92.4128 232.903 92.7968 232.903 93.2168V97.9868C232.903 98.2508 232.813 98.4728 232.633 98.6528C232.465 98.8208 232.255 98.9048 232.003 98.9048C231.739 98.9048 231.523 98.8208 231.355 98.6528C231.187 98.4728 231.103 98.2508 231.103 97.9868V86.5028C231.103 86.2388 231.187 86.0228 231.355 85.8548C231.523 85.6748 231.739 85.5848 232.003 85.5848C232.255 85.5848 232.465 85.6748 232.633 85.8548C232.813 86.0228 232.903 86.2388 232.903 86.5028V91.4168L232.579 91.5968C232.663 91.3328 232.801 91.0628 232.993 90.7868C233.197 90.5108 233.443 90.2588 233.731 90.0308C234.031 89.8028 234.361 89.6228 234.721 89.4908C235.081 89.3468 235.465 89.2748 235.873 89.2748Z" fill="black"/>
</svg>
