<svg width="257" height="77" viewBox="0 0 257 77" fill="none" xmlns="http://www.w3.org/2000/svg">
<path d="M135.28 0.174805C29.3568 0.17473 0.0108181 17.6378 0.0107422 37.5095C0.0106502 61.5964 35.1077 74.7238 135.28 76.6508C260.495 79.0595 256.839 44.7355 256.839 37.5095C256.839 27.3791 235.48 0.174876 135.28 0.174805Z" fill="#F9CB9C"/>
<rect x="35.9307" y="21.4731" width="183" height="34" rx="17" fill="white" fill-opacity="0.85"/>
<path d="M59.64 44.5551C59.628 44.8191 59.526 45.0411 59.334 45.2211C59.154 45.3891 58.938 45.4731 58.686 45.4731C58.41 45.4731 58.182 45.3891 58.002 45.2211C57.834 45.0411 57.75 44.8191 57.75 44.5551V33.7911C57.75 33.5271 57.84 33.3111 58.02 33.1431C58.2 32.9631 58.434 32.8731 58.722 32.8731C58.962 32.8731 59.172 32.9631 59.352 33.1431C59.544 33.3111 59.64 33.5271 59.64 33.7911V44.5551ZM67.1028 35.8431C67.9908 35.8431 68.6748 36.0651 69.1548 36.5091C69.6348 36.9411 69.9528 37.5291 70.1088 38.2731L69.8208 38.1831L69.9468 37.8951C70.1028 37.5831 70.3368 37.2711 70.6488 36.9591C70.9728 36.6351 71.3568 36.3711 71.8008 36.1671C72.2448 35.9511 72.7188 35.8431 73.2228 35.8431C74.0508 35.8431 74.6928 36.0231 75.1488 36.3831C75.6048 36.7311 75.9228 37.2051 76.1028 37.8051C76.2828 38.3931 76.3728 39.0531 76.3728 39.7851V44.5551C76.3728 44.8191 76.2888 45.0411 76.1208 45.2211C75.9528 45.3891 75.7368 45.4731 75.4728 45.4731C75.2208 45.4731 75.0048 45.3891 74.8248 45.2211C74.6568 45.0411 74.5728 44.8191 74.5728 44.5551V39.8031C74.5728 39.3831 74.5128 38.9991 74.3928 38.6511C74.2848 38.3031 74.0868 38.0271 73.7988 37.8231C73.5228 37.6071 73.1388 37.4991 72.6468 37.4991C72.1788 37.4991 71.7588 37.6071 71.3868 37.8231C71.0268 38.0271 70.7448 38.3031 70.5408 38.6511C70.3368 38.9991 70.2348 39.3831 70.2348 39.8031V44.5551C70.2348 44.8191 70.1508 45.0411 69.9828 45.2211C69.8148 45.3891 69.5988 45.4731 69.3348 45.4731C69.0708 45.4731 68.8548 45.3891 68.6868 45.2211C68.5188 45.0411 68.4348 44.8191 68.4348 44.5551V39.7851C68.4348 39.3651 68.3748 38.9811 68.2548 38.6331C68.1468 38.2851 67.9548 38.0091 67.6788 37.8051C67.4028 37.6011 67.0188 37.4991 66.5268 37.4991C66.0588 37.4991 65.6448 37.6011 65.2848 37.8051C64.9248 38.0091 64.6428 38.2851 64.4388 38.6331C64.2468 38.9811 64.1508 39.3651 64.1508 39.7851V44.5551C64.1508 44.8191 64.0608 45.0411 63.8808 45.2211C63.7128 45.3891 63.5028 45.4731 63.2508 45.4731C62.9868 45.4731 62.7708 45.3891 62.6028 45.2211C62.4348 45.0411 62.3508 44.8191 62.3508 44.5551V36.9231C62.3508 36.6591 62.4348 36.4431 62.6028 36.2751C62.7708 36.0951 62.9868 36.0051 63.2508 36.0051C63.5028 36.0051 63.7128 36.0951 63.8808 36.2751C64.0608 36.4431 64.1508 36.6591 64.1508 36.9231V37.9851L63.8088 38.1831C63.8928 37.9191 64.0308 37.6491 64.2228 37.3731C64.4148 37.0971 64.6548 36.8451 64.9428 36.6171C65.2428 36.3891 65.5728 36.2031 65.9328 36.0591C66.2928 35.9151 66.6828 35.8431 67.1028 35.8431ZM83.6618 35.8431C84.5018 35.8431 85.2458 36.0531 85.8938 36.4731C86.5538 36.8931 87.0758 37.4691 87.4598 38.2011C87.8438 38.9211 88.0358 39.7611 88.0358 40.7211C88.0358 41.6811 87.8438 42.5331 87.4598 43.2771C87.0758 44.0091 86.5598 44.5851 85.9118 45.0051C85.2638 45.4251 84.5318 45.6351 83.7158 45.6351C83.2598 45.6351 82.8278 45.5631 82.4198 45.4191C82.0118 45.2751 81.6518 45.0891 81.3398 44.8611C81.0278 44.6211 80.7698 44.3691 80.5658 44.1051C80.3738 43.8411 80.2538 43.5951 80.2058 43.3671L80.6918 43.1331V48.1551C80.6918 48.4191 80.6018 48.6351 80.4218 48.8031C80.2538 48.9831 80.0438 49.0731 79.7918 49.0731C79.5278 49.0731 79.3118 48.9831 79.1438 48.8031C78.9758 48.6351 78.8918 48.4191 78.8918 48.1551V36.8871C78.8918 36.6351 78.9758 36.4191 79.1438 36.2391C79.3118 36.0591 79.5278 35.9691 79.7918 35.9691C80.0438 35.9691 80.2538 36.0591 80.4218 36.2391C80.6018 36.4191 80.6918 36.6351 80.6918 36.8871V38.1291L80.4038 37.9671C80.4398 37.7391 80.5538 37.5051 80.7458 37.2651C80.9378 37.0131 81.1778 36.7791 81.4658 36.5631C81.7658 36.3471 82.1018 36.1731 82.4738 36.0411C82.8578 35.9091 83.2538 35.8431 83.6618 35.8431ZM83.4638 37.4991C82.8878 37.4991 82.3838 37.6431 81.9518 37.9311C81.5318 38.2071 81.2018 38.5851 80.9618 39.0651C80.7218 39.5451 80.6018 40.0971 80.6018 40.7211C80.6018 41.3331 80.7218 41.8911 80.9618 42.3951C81.2018 42.8871 81.5318 43.2771 81.9518 43.5651C82.3838 43.8411 82.8878 43.9791 83.4638 43.9791C84.0278 43.9791 84.5198 43.8411 84.9398 43.5651C85.3598 43.2771 85.6898 42.8871 85.9298 42.3951C86.1818 41.8911 86.3078 41.3331 86.3078 40.7211C86.3078 40.1091 86.1818 39.5631 85.9298 39.0831C85.6898 38.5911 85.3598 38.2071 84.9398 37.9311C84.5198 37.6431 84.0278 37.4991 83.4638 37.4991ZM97.8295 35.8611C98.0935 35.8611 98.3095 35.9511 98.4775 36.1311C98.6455 36.2991 98.7295 36.5151 98.7295 36.7791V44.5551C98.7295 44.8191 98.6455 45.0411 98.4775 45.2211C98.3095 45.3891 98.0935 45.4731 97.8295 45.4731C97.5775 45.4731 97.3615 45.3891 97.1815 45.2211C97.0135 45.0411 96.9295 44.8191 96.9295 44.5551V43.2591L97.3075 43.3131C97.3075 43.5291 97.2175 43.7691 97.0375 44.0331C96.8695 44.2971 96.6355 44.5551 96.3355 44.8071C96.0355 45.0471 95.6815 45.2511 95.2735 45.4191C94.8655 45.5751 94.4275 45.6531 93.9595 45.6531C93.1315 45.6531 92.3875 45.4431 91.7275 45.0231C91.0675 44.5911 90.5455 44.0031 90.1615 43.2591C89.7775 42.5151 89.5855 41.6691 89.5855 40.7211C89.5855 39.7491 89.7775 38.8971 90.1615 38.1651C90.5455 37.4211 91.0615 36.8391 91.7095 36.4191C92.3695 35.9991 93.1015 35.7891 93.9055 35.7891C94.4215 35.7891 94.8955 35.8731 95.3275 36.0411C95.7715 36.2091 96.1555 36.4251 96.4795 36.6891C96.8035 36.9531 97.0495 37.2351 97.2175 37.5351C97.3975 37.8231 97.4875 38.0991 97.4875 38.3631L96.9295 38.4171V36.7791C96.9295 36.5271 97.0135 36.3111 97.1815 36.1311C97.3615 35.9511 97.5775 35.8611 97.8295 35.8611ZM94.1575 43.9971C94.7215 43.9971 95.2195 43.8531 95.6515 43.5651C96.0835 43.2771 96.4195 42.8871 96.6595 42.3951C96.8995 41.8911 97.0195 41.3331 97.0195 40.7211C97.0195 40.0971 96.8995 39.5391 96.6595 39.0471C96.4195 38.5551 96.0835 38.1651 95.6515 37.8771C95.2195 37.5891 94.7215 37.4451 94.1575 37.4451C93.6055 37.4451 93.1135 37.5891 92.6815 37.8771C92.2615 38.1651 91.9255 38.5551 91.6735 39.0471C91.4335 39.5391 91.3135 40.0971 91.3135 40.7211C91.3135 41.3331 91.4335 41.8911 91.6735 42.3951C91.9255 42.8871 92.2615 43.2771 92.6815 43.5651C93.1135 43.8531 93.6055 43.9971 94.1575 43.9971ZM105.445 35.7891C106.093 35.7891 106.669 35.8611 107.173 36.0051C107.677 36.1371 108.067 36.3291 108.343 36.5811C108.631 36.8211 108.775 37.1031 108.775 37.4271C108.775 37.6311 108.715 37.8231 108.595 38.0031C108.475 38.1711 108.295 38.2551 108.055 38.2551C107.887 38.2551 107.743 38.2251 107.623 38.1651C107.515 38.1051 107.413 38.0331 107.317 37.9491C107.221 37.8651 107.101 37.7811 106.957 37.6971C106.825 37.6251 106.627 37.5651 106.363 37.5171C106.111 37.4691 105.883 37.4451 105.679 37.4451C105.043 37.4451 104.491 37.5891 104.023 37.8771C103.567 38.1651 103.207 38.5551 102.943 39.0471C102.691 39.5391 102.565 40.0971 102.565 40.7211C102.565 41.3451 102.691 41.9031 102.943 42.3951C103.207 42.8871 103.561 43.2771 104.005 43.5651C104.461 43.8531 104.989 43.9971 105.589 43.9971C105.949 43.9971 106.243 43.9731 106.471 43.9251C106.699 43.8651 106.897 43.7931 107.065 43.7091C107.245 43.6011 107.395 43.4931 107.515 43.3851C107.647 43.2651 107.827 43.2051 108.055 43.2051C108.319 43.2051 108.517 43.2891 108.649 43.4571C108.793 43.6131 108.865 43.8111 108.865 44.0511C108.865 44.3151 108.703 44.5731 108.379 44.8251C108.067 45.0651 107.647 45.2631 107.119 45.4191C106.591 45.5751 106.009 45.6531 105.373 45.6531C104.437 45.6531 103.621 45.4371 102.925 45.0051C102.241 44.5731 101.707 43.9851 101.323 43.2411C100.951 42.4971 100.765 41.6571 100.765 40.7211C100.765 39.7731 100.963 38.9331 101.359 38.2011C101.755 37.4571 102.307 36.8691 103.015 36.4371C103.723 36.0051 104.533 35.7891 105.445 35.7891ZM110.459 36.1131H114.689C114.929 36.1131 115.127 36.1971 115.283 36.3651C115.451 36.5211 115.535 36.7191 115.535 36.9591C115.535 37.1871 115.451 37.3791 115.283 37.5351C115.127 37.6911 114.929 37.7691 114.689 37.7691H110.459C110.219 37.7691 110.015 37.6911 109.847 37.5351C109.691 37.3671 109.613 37.1691 109.613 36.9411C109.613 36.7011 109.691 36.5031 109.847 36.3471C110.015 36.1911 110.219 36.1131 110.459 36.1131ZM112.349 33.7731C112.613 33.7731 112.829 33.8631 112.997 34.0431C113.165 34.2111 113.249 34.4271 113.249 34.6911V43.0431C113.249 43.2591 113.285 43.4331 113.357 43.5651C113.429 43.6971 113.525 43.7871 113.645 43.8351C113.777 43.8831 113.909 43.9071 114.041 43.9071C114.173 43.9071 114.287 43.8831 114.383 43.8351C114.491 43.7871 114.617 43.7631 114.761 43.7631C114.905 43.7631 115.037 43.8291 115.157 43.9611C115.277 44.0931 115.337 44.2731 115.337 44.5011C115.337 44.7891 115.181 45.0231 114.869 45.2031C114.557 45.3831 114.221 45.4731 113.861 45.4731C113.657 45.4731 113.417 45.4551 113.141 45.4191C112.865 45.3831 112.595 45.2931 112.331 45.1491C112.079 45.0051 111.869 44.7771 111.701 44.4651C111.533 44.1411 111.449 43.6911 111.449 43.1151V34.6911C111.449 34.4271 111.533 34.2111 111.701 34.0431C111.881 33.8631 112.097 33.7731 112.349 33.7731ZM124.626 44.5551C124.614 44.8191 124.512 45.0411 124.32 45.2211C124.14 45.3891 123.924 45.4731 123.672 45.4731C123.396 45.4731 123.168 45.3891 122.988 45.2211C122.82 45.0411 122.736 44.8191 122.736 44.5551V33.7911C122.736 33.5271 122.826 33.3111 123.006 33.1431C123.186 32.9631 123.42 32.8731 123.708 32.8731C123.948 32.8731 124.158 32.9631 124.338 33.1431C124.53 33.3111 124.626 33.5271 124.626 33.7911V44.5551ZM132.215 35.7891C133.067 35.7891 133.727 35.9691 134.195 36.3291C134.663 36.6771 134.987 37.1511 135.167 37.7511C135.359 38.3391 135.455 38.9991 135.455 39.7311V44.5551C135.455 44.8191 135.365 45.0411 135.185 45.2211C135.017 45.3891 134.807 45.4731 134.555 45.4731C134.291 45.4731 134.075 45.3891 133.907 45.2211C133.739 45.0411 133.655 44.8191 133.655 44.5551V39.7491C133.655 39.3171 133.595 38.9331 133.475 38.5971C133.355 38.2491 133.145 37.9731 132.845 37.7691C132.557 37.5531 132.149 37.4451 131.621 37.4451C131.129 37.4451 130.697 37.5531 130.325 37.7691C129.953 37.9731 129.659 38.2491 129.443 38.5971C129.239 38.9331 129.137 39.3171 129.137 39.7491V44.5551C129.137 44.8191 129.047 45.0411 128.867 45.2211C128.699 45.3891 128.489 45.4731 128.237 45.4731C127.973 45.4731 127.757 45.3891 127.589 45.2211C127.421 45.0411 127.337 44.8191 127.337 44.5551V36.9231C127.337 36.6591 127.421 36.4431 127.589 36.2751C127.757 36.0951 127.973 36.0051 128.237 36.0051C128.489 36.0051 128.699 36.0951 128.867 36.2751C129.047 36.4431 129.137 36.6591 129.137 36.9231V37.9311L128.813 38.1111C128.897 37.8471 129.041 37.5831 129.245 37.3191C129.461 37.0431 129.719 36.7911 130.019 36.5631C130.319 36.3231 130.655 36.1371 131.027 36.0051C131.399 35.8611 131.795 35.7891 132.215 35.7891ZM138.082 35.9151C138.262 35.9151 138.43 35.9631 138.586 36.0591C138.754 36.1551 138.874 36.2991 138.946 36.4911L141.772 43.0251L141.43 43.1871L144.292 36.5091C144.46 36.1131 144.73 35.9211 145.102 35.9331C145.342 35.9331 145.54 36.0111 145.696 36.1671C145.864 36.3111 145.948 36.5031 145.948 36.7431C145.948 36.8151 145.936 36.8931 145.912 36.9771C145.888 37.0491 145.858 37.1211 145.822 37.1931L142.402 44.8971C142.246 45.2571 141.988 45.4491 141.628 45.4731C141.448 45.4971 141.268 45.4611 141.088 45.3651C140.92 45.2571 140.788 45.1011 140.692 44.8971L137.29 37.1931C137.266 37.1451 137.242 37.0851 137.218 37.0131C137.194 36.9291 137.182 36.8331 137.182 36.7251C137.182 36.5451 137.26 36.3651 137.416 36.1851C137.584 36.0051 137.806 35.9151 138.082 35.9151ZM152.103 45.6531C151.107 45.6531 150.243 45.4491 149.511 45.0411C148.779 44.6211 148.209 44.0511 147.801 43.3311C147.405 42.5991 147.207 41.7651 147.207 40.8291C147.207 39.7731 147.417 38.8731 147.837 38.1291C148.269 37.3731 148.827 36.7971 149.511 36.4011C150.195 35.9931 150.921 35.7891 151.689 35.7891C152.277 35.7891 152.835 35.9091 153.363 36.1491C153.891 36.3771 154.359 36.7011 154.767 37.1211C155.187 37.5291 155.517 38.0151 155.757 38.5791C155.997 39.1311 156.123 39.7371 156.135 40.3971C156.123 40.6371 156.027 40.8351 155.847 40.9911C155.667 41.1471 155.457 41.2251 155.217 41.2251H148.215L147.783 39.6951H154.551L154.209 40.0191V39.5691C154.185 39.1491 154.047 38.7831 153.795 38.4711C153.543 38.1471 153.231 37.9011 152.859 37.7331C152.487 37.5531 152.097 37.4631 151.689 37.4631C151.329 37.4631 150.981 37.5231 150.645 37.6431C150.321 37.7511 150.027 37.9311 149.763 38.1831C149.511 38.4351 149.307 38.7711 149.151 39.1911C149.007 39.5991 148.935 40.1091 148.935 40.7211C148.935 41.3811 149.073 41.9571 149.349 42.4491C149.625 42.9411 149.997 43.3251 150.465 43.6011C150.933 43.8651 151.449 43.9971 152.013 43.9971C152.457 43.9971 152.823 43.9551 153.111 43.8711C153.399 43.7751 153.639 43.6611 153.831 43.5291C154.023 43.3971 154.191 43.2711 154.335 43.1511C154.515 43.0431 154.695 42.9891 154.875 42.9891C155.091 42.9891 155.271 43.0671 155.415 43.2231C155.559 43.3671 155.631 43.5411 155.631 43.7451C155.631 44.0091 155.499 44.2491 155.235 44.4651C154.911 44.7771 154.461 45.0531 153.885 45.2931C153.321 45.5331 152.727 45.6531 152.103 45.6531ZM157.611 43.9971C157.503 43.8291 157.455 43.6371 157.467 43.4211C157.479 43.1931 157.605 43.0011 157.845 42.8451C158.013 42.7371 158.187 42.6951 158.367 42.7191C158.559 42.7311 158.739 42.8211 158.907 42.9891C159.243 43.3611 159.615 43.6551 160.023 43.8711C160.443 44.0871 160.947 44.1951 161.535 44.1951C161.775 44.1831 162.021 44.1471 162.273 44.0871C162.525 44.0151 162.741 43.8951 162.921 43.7271C163.101 43.5471 163.191 43.2891 163.191 42.9531C163.191 42.6531 163.095 42.4131 162.903 42.2331C162.711 42.0531 162.459 41.9091 162.147 41.8011C161.835 41.6811 161.499 41.5731 161.139 41.4771C160.755 41.3691 160.365 41.2491 159.969 41.1171C159.585 40.9851 159.237 40.8171 158.925 40.6131C158.613 40.3971 158.355 40.1211 158.151 39.7851C157.959 39.4491 157.863 39.0351 157.863 38.5431C157.863 37.9791 158.019 37.4931 158.331 37.0851C158.655 36.6771 159.069 36.3591 159.573 36.1311C160.089 35.9031 160.647 35.7891 161.247 35.7891C161.595 35.7891 161.961 35.8371 162.345 35.9331C162.729 36.0171 163.101 36.1551 163.461 36.3471C163.821 36.5391 164.133 36.7911 164.397 37.1031C164.517 37.2591 164.583 37.4451 164.595 37.6611C164.619 37.8771 164.523 38.0691 164.307 38.2371C164.163 38.3571 163.989 38.4111 163.785 38.3991C163.581 38.3871 163.413 38.3211 163.281 38.2011C163.053 37.9131 162.759 37.6911 162.399 37.5351C162.039 37.3671 161.631 37.2831 161.175 37.2831C160.947 37.2831 160.707 37.3191 160.455 37.3911C160.215 37.4511 160.011 37.5651 159.843 37.7331C159.675 37.9011 159.591 38.1471 159.591 38.4711C159.591 38.7711 159.687 39.0111 159.879 39.1911C160.083 39.3711 160.347 39.5211 160.671 39.6411C160.995 39.7611 161.349 39.8691 161.733 39.9651C162.105 40.0611 162.471 40.1751 162.831 40.3071C163.203 40.4391 163.533 40.6131 163.821 40.8291C164.121 41.0331 164.361 41.3031 164.541 41.6391C164.733 41.9631 164.829 42.3771 164.829 42.8811C164.829 43.4691 164.655 43.9731 164.307 44.3931C163.971 44.8011 163.539 45.1131 163.011 45.3291C162.495 45.5451 161.949 45.6531 161.373 45.6531C160.689 45.6531 160.005 45.5331 159.321 45.2931C158.649 45.0411 158.079 44.6091 157.611 43.9971ZM166.639 36.1131H170.869C171.109 36.1131 171.307 36.1971 171.463 36.3651C171.631 36.5211 171.715 36.7191 171.715 36.9591C171.715 37.1871 171.631 37.3791 171.463 37.5351C171.307 37.6911 171.109 37.7691 170.869 37.7691H166.639C166.399 37.7691 166.195 37.6911 166.027 37.5351C165.871 37.3671 165.793 37.1691 165.793 36.9411C165.793 36.7011 165.871 36.5031 166.027 36.3471C166.195 36.1911 166.399 36.1131 166.639 36.1131ZM168.529 33.7731C168.793 33.7731 169.009 33.8631 169.177 34.0431C169.345 34.2111 169.429 34.4271 169.429 34.6911V43.0431C169.429 43.2591 169.465 43.4331 169.537 43.5651C169.609 43.6971 169.705 43.7871 169.825 43.8351C169.957 43.8831 170.089 43.9071 170.221 43.9071C170.353 43.9071 170.467 43.8831 170.563 43.8351C170.671 43.7871 170.797 43.7631 170.941 43.7631C171.085 43.7631 171.217 43.8291 171.337 43.9611C171.457 44.0931 171.517 44.2731 171.517 44.5011C171.517 44.7891 171.361 45.0231 171.049 45.2031C170.737 45.3831 170.401 45.4731 170.041 45.4731C169.837 45.4731 169.597 45.4551 169.321 45.4191C169.045 45.3831 168.775 45.2931 168.511 45.1491C168.259 45.0051 168.049 44.7771 167.881 44.4651C167.713 44.1411 167.629 43.6911 167.629 43.1151V34.6911C167.629 34.4271 167.713 34.2111 167.881 34.0431C168.061 33.8631 168.277 33.7731 168.529 33.7731ZM175.4 44.5551C175.4 44.8191 175.316 45.0411 175.148 45.2211C174.98 45.3891 174.764 45.4731 174.5 45.4731C174.248 45.4731 174.032 45.3891 173.852 45.2211C173.684 45.0411 173.6 44.8191 173.6 44.5551V36.8511C173.6 36.5871 173.684 36.3711 173.852 36.2031C174.032 36.0231 174.248 35.9331 174.5 35.9331C174.764 35.9331 174.98 36.0231 175.148 36.2031C175.316 36.3711 175.4 36.5871 175.4 36.8511V44.5551ZM174.482 34.7451C174.134 34.7451 173.882 34.6851 173.726 34.5651C173.57 34.4331 173.492 34.2171 173.492 33.9171V33.6291C173.492 33.3291 173.576 33.1191 173.744 32.9991C173.912 32.8791 174.164 32.8191 174.5 32.8191C174.86 32.8191 175.118 32.8851 175.274 33.0171C175.43 33.1371 175.508 33.3411 175.508 33.6291V33.9171C175.508 34.2291 175.424 34.4451 175.256 34.5651C175.1 34.6851 174.842 34.7451 174.482 34.7451ZM182.7 35.7891C183.552 35.7891 184.212 35.9691 184.68 36.3291C185.148 36.6771 185.472 37.1511 185.652 37.7511C185.844 38.3391 185.94 38.9991 185.94 39.7311V44.5551C185.94 44.8191 185.85 45.0411 185.67 45.2211C185.502 45.3891 185.292 45.4731 185.04 45.4731C184.776 45.4731 184.56 45.3891 184.392 45.2211C184.224 45.0411 184.14 44.8191 184.14 44.5551V39.7491C184.14 39.3171 184.08 38.9331 183.96 38.5971C183.84 38.2491 183.63 37.9731 183.33 37.7691C183.042 37.5531 182.634 37.4451 182.106 37.4451C181.614 37.4451 181.182 37.5531 180.81 37.7691C180.438 37.9731 180.144 38.2491 179.928 38.5971C179.724 38.9331 179.622 39.3171 179.622 39.7491V44.5551C179.622 44.8191 179.532 45.0411 179.352 45.2211C179.184 45.3891 178.974 45.4731 178.722 45.4731C178.458 45.4731 178.242 45.3891 178.074 45.2211C177.906 45.0411 177.822 44.8191 177.822 44.5551V36.9231C177.822 36.6591 177.906 36.4431 178.074 36.2751C178.242 36.0951 178.458 36.0051 178.722 36.0051C178.974 36.0051 179.184 36.0951 179.352 36.2751C179.532 36.4431 179.622 36.6591 179.622 36.9231V37.9311L179.298 38.1111C179.382 37.8471 179.526 37.5831 179.73 37.3191C179.946 37.0431 180.204 36.7911 180.504 36.5631C180.804 36.3231 181.14 36.1371 181.512 36.0051C181.884 35.8611 182.28 35.7891 182.7 35.7891ZM192.381 35.7891C192.897 35.7891 193.371 35.8731 193.803 36.0411C194.235 36.2091 194.607 36.4251 194.919 36.6891C195.243 36.9411 195.495 37.2051 195.675 37.4811C195.855 37.7571 195.945 37.9971 195.945 38.2011L195.531 38.2191V36.7791C195.531 36.5271 195.615 36.3111 195.783 36.1311C195.951 35.9511 196.167 35.8611 196.431 35.8611C196.695 35.8611 196.911 35.9511 197.079 36.1311C197.247 36.2991 197.331 36.5151 197.331 36.7791V44.7171C197.331 45.7371 197.115 46.5651 196.683 47.2011C196.251 47.8491 195.675 48.3231 194.955 48.6231C194.247 48.9231 193.467 49.0731 192.615 49.0731C192.315 49.0731 191.961 49.0311 191.553 48.9471C191.145 48.8751 190.767 48.7851 190.419 48.6771C190.083 48.5691 189.849 48.4611 189.717 48.3531C189.441 48.2091 189.255 48.0411 189.159 47.8491C189.075 47.6571 189.075 47.4651 189.159 47.2731C189.279 47.0091 189.441 46.8471 189.645 46.7871C189.849 46.7271 190.083 46.7451 190.347 46.8411C190.467 46.8771 190.653 46.9431 190.905 47.0391C191.157 47.1351 191.439 47.2191 191.751 47.2911C192.063 47.3751 192.357 47.4171 192.633 47.4171C193.593 47.4171 194.313 47.1951 194.793 46.7511C195.285 46.3071 195.531 45.7011 195.531 44.9331V43.3131L195.729 43.4391C195.693 43.6911 195.579 43.9491 195.387 44.2131C195.207 44.4651 194.967 44.6991 194.667 44.9151C194.367 45.1311 194.019 45.3111 193.623 45.4551C193.239 45.5871 192.843 45.6531 192.435 45.6531C191.583 45.6531 190.821 45.4431 190.149 45.0231C189.477 44.5911 188.943 44.0091 188.547 43.2771C188.151 42.5331 187.953 41.6811 187.953 40.7211C187.953 39.7611 188.151 38.9151 188.547 38.1831C188.943 37.4391 189.471 36.8571 190.131 36.4371C190.803 36.0051 191.553 35.7891 192.381 35.7891ZM192.651 37.4451C192.063 37.4451 191.547 37.5891 191.103 37.8771C190.659 38.1651 190.311 38.5551 190.059 39.0471C189.807 39.5391 189.681 40.0971 189.681 40.7211C189.681 41.3451 189.807 41.9031 190.059 42.3951C190.311 42.8871 190.659 43.2771 191.103 43.5651C191.547 43.8531 192.063 43.9971 192.651 43.9971C193.239 43.9971 193.755 43.8591 194.199 43.5831C194.643 43.2951 194.991 42.9051 195.243 42.4131C195.495 41.9091 195.621 41.3451 195.621 40.7211C195.621 40.0971 195.495 39.5391 195.243 39.0471C194.991 38.5431 194.643 38.1531 194.199 37.8771C193.755 37.5891 193.239 37.4451 192.651 37.4451Z" fill="black"/>
</svg>
