<svg width="309" height="228" viewBox="0 0 309 228" fill="none" xmlns="http://www.w3.org/2000/svg">
<path d="M303.261 102.478C321.075 213.936 238.67 217.935 160.95 220.988C66.7441 224.688 14.4394 197.444 4.1565 114.225C-8.6971 10.2018 125.647 7.97735 153.909 6.86739C182.17 5.75742 285.447 -8.98052 303.261 102.478Z" fill="#A3F3E0"/>
<rect x="47.002" y="53.605" width="220" height="34" rx="17" fill="white" fill-opacity="0.85"/>
<path d="M72.7782 77.785C71.9142 77.785 71.1462 77.665 70.4742 77.425C69.8022 77.185 69.1602 76.789 68.5482 76.237C68.4162 76.141 68.3142 76.027 68.2422 75.895C68.1822 75.751 68.1522 75.607 68.1522 75.463C68.1522 75.235 68.2362 75.031 68.4042 74.851C68.5722 74.671 68.7822 74.581 69.0342 74.581C69.2262 74.581 69.4062 74.647 69.5742 74.779C70.0302 75.199 70.5042 75.517 70.9962 75.733C71.5002 75.949 72.0882 76.057 72.7602 76.057C73.2402 76.057 73.6782 75.979 74.0742 75.823C74.4822 75.667 74.8062 75.457 75.0462 75.193C75.2862 74.929 75.4062 74.623 75.4062 74.275C75.4062 73.843 75.2802 73.489 75.0282 73.213C74.7882 72.925 74.4342 72.691 73.9662 72.511C73.5102 72.319 72.9582 72.157 72.3102 72.025C71.7102 71.917 71.1702 71.767 70.6902 71.575C70.2222 71.383 69.8202 71.143 69.4842 70.855C69.1482 70.555 68.8902 70.201 68.7102 69.793C68.5302 69.385 68.4402 68.911 68.4402 68.371C68.4402 67.639 68.6322 67.009 69.0162 66.481C69.4002 65.953 69.9222 65.545 70.5822 65.257C71.2422 64.969 71.9862 64.825 72.8142 64.825C73.5702 64.825 74.2782 64.945 74.9382 65.185C75.5982 65.413 76.1322 65.725 76.5402 66.121C76.8282 66.373 76.9722 66.643 76.9722 66.931C76.9722 67.147 76.8822 67.351 76.7022 67.543C76.5342 67.723 76.3362 67.813 76.1082 67.813C75.9402 67.813 75.7962 67.765 75.6762 67.669C75.4842 67.465 75.2262 67.285 74.9022 67.129C74.5782 66.961 74.2302 66.823 73.8582 66.715C73.4982 66.607 73.1502 66.553 72.8142 66.553C72.2742 66.553 71.8122 66.631 71.4282 66.787C71.0442 66.931 70.7502 67.135 70.5462 67.399C70.3422 67.651 70.2402 67.951 70.2402 68.299C70.2402 68.707 70.3542 69.043 70.5822 69.307C70.8222 69.571 71.1522 69.787 71.5722 69.955C71.9922 70.111 72.4722 70.255 73.0122 70.387C73.6722 70.531 74.2602 70.693 74.7762 70.873C75.3042 71.053 75.7482 71.287 76.1082 71.575C76.4682 71.851 76.7442 72.199 76.9362 72.619C77.1282 73.039 77.2242 73.561 77.2242 74.185C77.2242 74.905 77.0202 75.535 76.6122 76.075C76.2042 76.615 75.6642 77.035 74.9922 77.335C74.3322 77.635 73.5942 77.785 72.7782 77.785ZM88.3115 72.871C88.3115 73.831 88.1015 74.683 87.6815 75.427C87.2615 76.159 86.6915 76.735 85.9715 77.155C85.2515 77.575 84.4415 77.785 83.5415 77.785C82.6415 77.785 81.8315 77.575 81.1115 77.155C80.3915 76.735 79.8155 76.159 79.3835 75.427C78.9635 74.683 78.7535 73.831 78.7535 72.871C78.7535 71.899 78.9635 71.047 79.3835 70.315C79.8155 69.571 80.3915 68.989 81.1115 68.569C81.8315 68.137 82.6415 67.921 83.5415 67.921C84.4415 67.921 85.2515 68.137 85.9715 68.569C86.6915 68.989 87.2615 69.571 87.6815 70.315C88.1015 71.047 88.3115 71.899 88.3115 72.871ZM86.5115 72.871C86.5115 72.211 86.3795 71.641 86.1155 71.161C85.8515 70.669 85.4915 70.285 85.0355 70.009C84.5915 69.721 84.0935 69.577 83.5415 69.577C82.9895 69.577 82.4855 69.721 82.0295 70.009C81.5735 70.285 81.2135 70.669 80.9495 71.161C80.6855 71.641 80.5535 72.211 80.5535 72.871C80.5535 73.507 80.6855 74.071 80.9495 74.563C81.2135 75.055 81.5735 75.439 82.0295 75.715C82.4855 75.991 82.9895 76.129 83.5415 76.129C84.0935 76.129 84.5915 75.991 85.0355 75.715C85.4915 75.439 85.8515 75.055 86.1155 74.563C86.3795 74.071 86.5115 73.507 86.5115 72.871ZM94.5429 67.921C95.1909 67.921 95.7669 67.993 96.2709 68.137C96.7749 68.269 97.1649 68.461 97.4409 68.713C97.7289 68.953 97.8729 69.235 97.8729 69.559C97.8729 69.763 97.8129 69.955 97.6929 70.135C97.5729 70.303 97.3929 70.387 97.1529 70.387C96.9849 70.387 96.8409 70.357 96.7209 70.297C96.6129 70.237 96.5109 70.165 96.4149 70.081C96.3189 69.997 96.1989 69.913 96.0549 69.829C95.9229 69.757 95.7249 69.697 95.4609 69.649C95.2089 69.601 94.9809 69.577 94.7769 69.577C94.1409 69.577 93.5889 69.721 93.1209 70.009C92.6649 70.297 92.3049 70.687 92.0409 71.179C91.7889 71.671 91.6629 72.229 91.6629 72.853C91.6629 73.477 91.7889 74.035 92.0409 74.527C92.3049 75.019 92.6589 75.409 93.1029 75.697C93.5589 75.985 94.0869 76.129 94.6869 76.129C95.0469 76.129 95.3409 76.105 95.5689 76.057C95.7969 75.997 95.9949 75.925 96.1629 75.841C96.3429 75.733 96.4929 75.625 96.6129 75.517C96.7449 75.397 96.9249 75.337 97.1529 75.337C97.4169 75.337 97.6149 75.421 97.7469 75.589C97.8909 75.745 97.9629 75.943 97.9629 76.183C97.9629 76.447 97.8009 76.705 97.4769 76.957C97.1649 77.197 96.7449 77.395 96.2169 77.551C95.6889 77.707 95.1069 77.785 94.4709 77.785C93.5349 77.785 92.7189 77.569 92.0229 77.137C91.3389 76.705 90.8049 76.117 90.4209 75.373C90.0489 74.629 89.8629 73.789 89.8629 72.853C89.8629 71.905 90.0609 71.065 90.4569 70.333C90.8529 69.589 91.4049 69.001 92.1129 68.569C92.8209 68.137 93.6309 67.921 94.5429 67.921ZM101.375 76.687C101.375 76.951 101.291 77.173 101.123 77.353C100.955 77.521 100.739 77.605 100.475 77.605C100.223 77.605 100.007 77.521 99.8269 77.353C99.6589 77.173 99.5749 76.951 99.5749 76.687V68.983C99.5749 68.719 99.6589 68.503 99.8269 68.335C100.007 68.155 100.223 68.065 100.475 68.065C100.739 68.065 100.955 68.155 101.123 68.335C101.291 68.503 101.375 68.719 101.375 68.983V76.687ZM100.457 66.877C100.109 66.877 99.8569 66.817 99.7009 66.697C99.5449 66.565 99.4669 66.349 99.4669 66.049V65.761C99.4669 65.461 99.5509 65.251 99.7189 65.131C99.8869 65.011 100.139 64.951 100.475 64.951C100.835 64.951 101.093 65.017 101.249 65.149C101.405 65.269 101.483 65.473 101.483 65.761V66.049C101.483 66.361 101.399 66.577 101.231 66.697C101.075 66.817 100.817 66.877 100.457 66.877ZM111.554 67.993C111.818 67.993 112.034 68.083 112.202 68.263C112.37 68.431 112.454 68.647 112.454 68.911V76.687C112.454 76.951 112.37 77.173 112.202 77.353C112.034 77.521 111.818 77.605 111.554 77.605C111.302 77.605 111.086 77.521 110.906 77.353C110.738 77.173 110.654 76.951 110.654 76.687V75.391L111.032 75.445C111.032 75.661 110.942 75.901 110.762 76.165C110.594 76.429 110.36 76.687 110.06 76.939C109.76 77.179 109.406 77.383 108.998 77.551C108.59 77.707 108.152 77.785 107.684 77.785C106.856 77.785 106.112 77.575 105.452 77.155C104.792 76.723 104.27 76.135 103.886 75.391C103.502 74.647 103.31 73.801 103.31 72.853C103.31 71.881 103.502 71.029 103.886 70.297C104.27 69.553 104.786 68.971 105.434 68.551C106.094 68.131 106.826 67.921 107.63 67.921C108.146 67.921 108.62 68.005 109.052 68.173C109.496 68.341 109.88 68.557 110.204 68.821C110.528 69.085 110.774 69.367 110.942 69.667C111.122 69.955 111.212 70.231 111.212 70.495L110.654 70.549V68.911C110.654 68.659 110.738 68.443 110.906 68.263C111.086 68.083 111.302 67.993 111.554 67.993ZM107.882 76.129C108.446 76.129 108.944 75.985 109.376 75.697C109.808 75.409 110.144 75.019 110.384 74.527C110.624 74.023 110.744 73.465 110.744 72.853C110.744 72.229 110.624 71.671 110.384 71.179C110.144 70.687 109.808 70.297 109.376 70.009C108.944 69.721 108.446 69.577 107.882 69.577C107.33 69.577 106.838 69.721 106.406 70.009C105.986 70.297 105.65 70.687 105.398 71.179C105.158 71.671 105.038 72.229 105.038 72.853C105.038 73.465 105.158 74.023 105.398 74.527C105.65 75.019 105.986 75.409 106.406 75.697C106.838 75.985 107.33 76.129 107.882 76.129ZM116.92 76.687C116.92 76.951 116.83 77.173 116.65 77.353C116.482 77.521 116.272 77.605 116.02 77.605C115.768 77.605 115.552 77.521 115.372 77.353C115.204 77.173 115.12 76.951 115.12 76.687V65.203C115.12 64.939 115.21 64.723 115.39 64.555C115.57 64.375 115.786 64.285 116.038 64.285C116.302 64.285 116.512 64.375 116.668 64.555C116.836 64.723 116.92 64.939 116.92 65.203V76.687ZM126.697 76.687C126.685 76.951 126.583 77.173 126.391 77.353C126.211 77.521 125.995 77.605 125.743 77.605C125.467 77.605 125.239 77.521 125.059 77.353C124.891 77.173 124.807 76.951 124.807 76.687V65.923C124.807 65.659 124.897 65.443 125.077 65.275C125.257 65.095 125.491 65.005 125.779 65.005C126.019 65.005 126.229 65.095 126.409 65.275C126.601 65.443 126.697 65.659 126.697 65.923V76.687ZM134.159 67.975C135.047 67.975 135.731 68.197 136.211 68.641C136.691 69.073 137.009 69.661 137.165 70.405L136.877 70.315L137.003 70.027C137.159 69.715 137.393 69.403 137.705 69.091C138.029 68.767 138.413 68.503 138.857 68.299C139.301 68.083 139.775 67.975 140.279 67.975C141.107 67.975 141.749 68.155 142.205 68.515C142.661 68.863 142.979 69.337 143.159 69.937C143.339 70.525 143.429 71.185 143.429 71.917V76.687C143.429 76.951 143.345 77.173 143.177 77.353C143.009 77.521 142.793 77.605 142.529 77.605C142.277 77.605 142.061 77.521 141.881 77.353C141.713 77.173 141.629 76.951 141.629 76.687V71.935C141.629 71.515 141.569 71.131 141.449 70.783C141.341 70.435 141.143 70.159 140.855 69.955C140.579 69.739 140.195 69.631 139.703 69.631C139.235 69.631 138.815 69.739 138.443 69.955C138.083 70.159 137.801 70.435 137.597 70.783C137.393 71.131 137.291 71.515 137.291 71.935V76.687C137.291 76.951 137.207 77.173 137.039 77.353C136.871 77.521 136.655 77.605 136.391 77.605C136.127 77.605 135.911 77.521 135.743 77.353C135.575 77.173 135.491 76.951 135.491 76.687V71.917C135.491 71.497 135.431 71.113 135.311 70.765C135.203 70.417 135.011 70.141 134.735 69.937C134.459 69.733 134.075 69.631 133.583 69.631C133.115 69.631 132.701 69.733 132.341 69.937C131.981 70.141 131.699 70.417 131.495 70.765C131.303 71.113 131.207 71.497 131.207 71.917V76.687C131.207 76.951 131.117 77.173 130.937 77.353C130.769 77.521 130.559 77.605 130.307 77.605C130.043 77.605 129.827 77.521 129.659 77.353C129.491 77.173 129.407 76.951 129.407 76.687V69.055C129.407 68.791 129.491 68.575 129.659 68.407C129.827 68.227 130.043 68.137 130.307 68.137C130.559 68.137 130.769 68.227 130.937 68.407C131.117 68.575 131.207 68.791 131.207 69.055V70.117L130.865 70.315C130.949 70.051 131.087 69.781 131.279 69.505C131.471 69.229 131.711 68.977 131.999 68.749C132.299 68.521 132.629 68.335 132.989 68.191C133.349 68.047 133.739 67.975 134.159 67.975ZM150.718 67.975C151.558 67.975 152.302 68.185 152.95 68.605C153.61 69.025 154.132 69.601 154.516 70.333C154.9 71.053 155.092 71.893 155.092 72.853C155.092 73.813 154.9 74.665 154.516 75.409C154.132 76.141 153.616 76.717 152.968 77.137C152.32 77.557 151.588 77.767 150.772 77.767C150.316 77.767 149.884 77.695 149.476 77.551C149.068 77.407 148.708 77.221 148.396 76.993C148.084 76.753 147.826 76.501 147.622 76.237C147.43 75.973 147.31 75.727 147.262 75.499L147.748 75.265V80.287C147.748 80.551 147.658 80.767 147.478 80.935C147.31 81.115 147.1 81.205 146.848 81.205C146.584 81.205 146.368 81.115 146.2 80.935C146.032 80.767 145.948 80.551 145.948 80.287V69.019C145.948 68.767 146.032 68.551 146.2 68.371C146.368 68.191 146.584 68.101 146.848 68.101C147.1 68.101 147.31 68.191 147.478 68.371C147.658 68.551 147.748 68.767 147.748 69.019V70.261L147.46 70.099C147.496 69.871 147.61 69.637 147.802 69.397C147.994 69.145 148.234 68.911 148.522 68.695C148.822 68.479 149.158 68.305 149.53 68.173C149.914 68.041 150.31 67.975 150.718 67.975ZM150.52 69.631C149.944 69.631 149.44 69.775 149.008 70.063C148.588 70.339 148.258 70.717 148.018 71.197C147.778 71.677 147.658 72.229 147.658 72.853C147.658 73.465 147.778 74.023 148.018 74.527C148.258 75.019 148.588 75.409 149.008 75.697C149.44 75.973 149.944 76.111 150.52 76.111C151.084 76.111 151.576 75.973 151.996 75.697C152.416 75.409 152.746 75.019 152.986 74.527C153.238 74.023 153.364 73.465 153.364 72.853C153.364 72.241 153.238 71.695 152.986 71.215C152.746 70.723 152.416 70.339 151.996 70.063C151.576 69.775 151.084 69.631 150.52 69.631ZM164.886 67.993C165.15 67.993 165.366 68.083 165.534 68.263C165.702 68.431 165.786 68.647 165.786 68.911V76.687C165.786 76.951 165.702 77.173 165.534 77.353C165.366 77.521 165.15 77.605 164.886 77.605C164.634 77.605 164.418 77.521 164.238 77.353C164.07 77.173 163.986 76.951 163.986 76.687V75.391L164.364 75.445C164.364 75.661 164.274 75.901 164.094 76.165C163.926 76.429 163.692 76.687 163.392 76.939C163.092 77.179 162.738 77.383 162.33 77.551C161.922 77.707 161.484 77.785 161.016 77.785C160.188 77.785 159.444 77.575 158.784 77.155C158.124 76.723 157.602 76.135 157.218 75.391C156.834 74.647 156.642 73.801 156.642 72.853C156.642 71.881 156.834 71.029 157.218 70.297C157.602 69.553 158.118 68.971 158.766 68.551C159.426 68.131 160.158 67.921 160.962 67.921C161.478 67.921 161.952 68.005 162.384 68.173C162.828 68.341 163.212 68.557 163.536 68.821C163.86 69.085 164.106 69.367 164.274 69.667C164.454 69.955 164.544 70.231 164.544 70.495L163.986 70.549V68.911C163.986 68.659 164.07 68.443 164.238 68.263C164.418 68.083 164.634 67.993 164.886 67.993ZM161.214 76.129C161.778 76.129 162.276 75.985 162.708 75.697C163.14 75.409 163.476 75.019 163.716 74.527C163.956 74.023 164.076 73.465 164.076 72.853C164.076 72.229 163.956 71.671 163.716 71.179C163.476 70.687 163.14 70.297 162.708 70.009C162.276 69.721 161.778 69.577 161.214 69.577C160.662 69.577 160.17 69.721 159.738 70.009C159.318 70.297 158.982 70.687 158.73 71.179C158.49 71.671 158.37 72.229 158.37 72.853C158.37 73.465 158.49 74.023 158.73 74.527C158.982 75.019 159.318 75.409 159.738 75.697C160.17 75.985 160.662 76.129 161.214 76.129ZM172.502 67.921C173.15 67.921 173.726 67.993 174.23 68.137C174.734 68.269 175.124 68.461 175.4 68.713C175.688 68.953 175.832 69.235 175.832 69.559C175.832 69.763 175.772 69.955 175.652 70.135C175.532 70.303 175.352 70.387 175.112 70.387C174.944 70.387 174.8 70.357 174.68 70.297C174.572 70.237 174.47 70.165 174.374 70.081C174.278 69.997 174.158 69.913 174.014 69.829C173.882 69.757 173.684 69.697 173.42 69.649C173.168 69.601 172.94 69.577 172.736 69.577C172.1 69.577 171.548 69.721 171.08 70.009C170.624 70.297 170.264 70.687 170 71.179C169.748 71.671 169.622 72.229 169.622 72.853C169.622 73.477 169.748 74.035 170 74.527C170.264 75.019 170.618 75.409 171.062 75.697C171.518 75.985 172.046 76.129 172.646 76.129C173.006 76.129 173.3 76.105 173.528 76.057C173.756 75.997 173.954 75.925 174.122 75.841C174.302 75.733 174.452 75.625 174.572 75.517C174.704 75.397 174.884 75.337 175.112 75.337C175.376 75.337 175.574 75.421 175.706 75.589C175.85 75.745 175.922 75.943 175.922 76.183C175.922 76.447 175.76 76.705 175.436 76.957C175.124 77.197 174.704 77.395 174.176 77.551C173.648 77.707 173.066 77.785 172.43 77.785C171.494 77.785 170.678 77.569 169.982 77.137C169.298 76.705 168.764 76.117 168.38 75.373C168.008 74.629 167.822 73.789 167.822 72.853C167.822 71.905 168.02 71.065 168.416 70.333C168.812 69.589 169.364 69.001 170.072 68.569C170.78 68.137 171.59 67.921 172.502 67.921ZM177.516 68.245H181.746C181.986 68.245 182.184 68.329 182.34 68.497C182.508 68.653 182.592 68.851 182.592 69.091C182.592 69.319 182.508 69.511 182.34 69.667C182.184 69.823 181.986 69.901 181.746 69.901H177.516C177.276 69.901 177.072 69.823 176.904 69.667C176.748 69.499 176.67 69.301 176.67 69.073C176.67 68.833 176.748 68.635 176.904 68.479C177.072 68.323 177.276 68.245 177.516 68.245ZM179.406 65.905C179.67 65.905 179.886 65.995 180.054 66.175C180.222 66.343 180.306 66.559 180.306 66.823V75.175C180.306 75.391 180.342 75.565 180.414 75.697C180.486 75.829 180.582 75.919 180.702 75.967C180.834 76.015 180.966 76.039 181.098 76.039C181.23 76.039 181.344 76.015 181.44 75.967C181.548 75.919 181.674 75.895 181.818 75.895C181.962 75.895 182.094 75.961 182.214 76.093C182.334 76.225 182.394 76.405 182.394 76.633C182.394 76.921 182.238 77.155 181.926 77.335C181.614 77.515 181.278 77.605 180.918 77.605C180.714 77.605 180.474 77.587 180.198 77.551C179.922 77.515 179.652 77.425 179.388 77.281C179.136 77.137 178.926 76.909 178.758 76.597C178.59 76.273 178.506 75.823 178.506 75.247V66.823C178.506 66.559 178.59 66.343 178.758 66.175C178.938 65.995 179.154 65.905 179.406 65.905ZM195.103 65.005C195.979 65.005 196.753 65.173 197.425 65.509C198.097 65.833 198.655 66.289 199.099 66.877C199.555 67.453 199.897 68.125 200.125 68.893C200.353 69.649 200.467 70.453 200.467 71.305C200.467 72.469 200.263 73.531 199.855 74.491C199.447 75.439 198.847 76.195 198.055 76.759C197.263 77.323 196.279 77.605 195.103 77.605H190.711C190.459 77.605 190.243 77.521 190.063 77.353C189.883 77.173 189.793 76.951 189.793 76.687V65.923C189.793 65.659 189.883 65.443 190.063 65.275C190.243 65.095 190.459 65.005 190.711 65.005H195.103ZM194.923 75.877C195.775 75.877 196.465 75.667 196.993 75.247C197.521 74.827 197.905 74.275 198.145 73.591C198.397 72.895 198.523 72.133 198.523 71.305C198.523 70.693 198.451 70.117 198.307 69.577C198.175 69.025 197.959 68.539 197.659 68.119C197.371 67.687 196.999 67.351 196.543 67.111C196.099 66.859 195.559 66.733 194.923 66.733H191.521L191.683 66.571V76.057L191.575 75.877H194.923ZM207.03 77.785C206.034 77.785 205.17 77.581 204.438 77.173C203.706 76.753 203.136 76.183 202.728 75.463C202.332 74.731 202.134 73.897 202.134 72.961C202.134 71.905 202.344 71.005 202.764 70.261C203.196 69.505 203.754 68.929 204.438 68.533C205.122 68.125 205.848 67.921 206.616 67.921C207.204 67.921 207.762 68.041 208.29 68.281C208.818 68.509 209.286 68.833 209.694 69.253C210.114 69.661 210.444 70.147 210.684 70.711C210.924 71.263 211.05 71.869 211.062 72.529C211.05 72.769 210.954 72.967 210.774 73.123C210.594 73.279 210.384 73.357 210.144 73.357H203.142L202.71 71.827H209.478L209.136 72.151V71.701C209.112 71.281 208.974 70.915 208.722 70.603C208.47 70.279 208.158 70.033 207.786 69.865C207.414 69.685 207.024 69.595 206.616 69.595C206.256 69.595 205.908 69.655 205.572 69.775C205.248 69.883 204.954 70.063 204.69 70.315C204.438 70.567 204.234 70.903 204.078 71.323C203.934 71.731 203.862 72.241 203.862 72.853C203.862 73.513 204 74.089 204.276 74.581C204.552 75.073 204.924 75.457 205.392 75.733C205.86 75.997 206.376 76.129 206.94 76.129C207.384 76.129 207.75 76.087 208.038 76.003C208.326 75.907 208.566 75.793 208.758 75.661C208.95 75.529 209.118 75.403 209.262 75.283C209.442 75.175 209.622 75.121 209.802 75.121C210.018 75.121 210.198 75.199 210.342 75.355C210.486 75.499 210.558 75.673 210.558 75.877C210.558 76.141 210.426 76.381 210.162 76.597C209.838 76.909 209.388 77.185 208.812 77.425C208.248 77.665 207.654 77.785 207.03 77.785ZM212.539 76.129C212.431 75.961 212.383 75.769 212.395 75.553C212.407 75.325 212.533 75.133 212.773 74.977C212.941 74.869 213.115 74.827 213.295 74.851C213.487 74.863 213.667 74.953 213.835 75.121C214.171 75.493 214.543 75.787 214.951 76.003C215.371 76.219 215.875 76.327 216.463 76.327C216.703 76.315 216.949 76.279 217.201 76.219C217.453 76.147 217.669 76.027 217.849 75.859C218.029 75.679 218.119 75.421 218.119 75.085C218.119 74.785 218.023 74.545 217.831 74.365C217.639 74.185 217.387 74.041 217.075 73.933C216.763 73.813 216.427 73.705 216.067 73.609C215.683 73.501 215.293 73.381 214.897 73.249C214.513 73.117 214.165 72.949 213.853 72.745C213.541 72.529 213.283 72.253 213.079 71.917C212.887 71.581 212.791 71.167 212.791 70.675C212.791 70.111 212.947 69.625 213.259 69.217C213.583 68.809 213.997 68.491 214.501 68.263C215.017 68.035 215.575 67.921 216.175 67.921C216.523 67.921 216.889 67.969 217.273 68.065C217.657 68.149 218.029 68.287 218.389 68.479C218.749 68.671 219.061 68.923 219.325 69.235C219.445 69.391 219.511 69.577 219.523 69.793C219.547 70.009 219.451 70.201 219.235 70.369C219.091 70.489 218.917 70.543 218.713 70.531C218.509 70.519 218.341 70.453 218.209 70.333C217.981 70.045 217.687 69.823 217.327 69.667C216.967 69.499 216.559 69.415 216.103 69.415C215.875 69.415 215.635 69.451 215.383 69.523C215.143 69.583 214.939 69.697 214.771 69.865C214.603 70.033 214.519 70.279 214.519 70.603C214.519 70.903 214.615 71.143 214.807 71.323C215.011 71.503 215.275 71.653 215.599 71.773C215.923 71.893 216.277 72.001 216.661 72.097C217.033 72.193 217.399 72.307 217.759 72.439C218.131 72.571 218.461 72.745 218.749 72.961C219.049 73.165 219.289 73.435 219.469 73.771C219.661 74.095 219.757 74.509 219.757 75.013C219.757 75.601 219.583 76.105 219.235 76.525C218.899 76.933 218.467 77.245 217.939 77.461C217.423 77.677 216.877 77.785 216.301 77.785C215.617 77.785 214.933 77.665 214.249 77.425C213.577 77.173 213.007 76.741 212.539 76.129ZM223.385 76.687C223.385 76.951 223.301 77.173 223.133 77.353C222.965 77.521 222.749 77.605 222.485 77.605C222.233 77.605 222.017 77.521 221.837 77.353C221.669 77.173 221.585 76.951 221.585 76.687V68.983C221.585 68.719 221.669 68.503 221.837 68.335C222.017 68.155 222.233 68.065 222.485 68.065C222.749 68.065 222.965 68.155 223.133 68.335C223.301 68.503 223.385 68.719 223.385 68.983V76.687ZM222.467 66.877C222.119 66.877 221.867 66.817 221.711 66.697C221.555 66.565 221.477 66.349 221.477 66.049V65.761C221.477 65.461 221.561 65.251 221.729 65.131C221.897 65.011 222.149 64.951 222.485 64.951C222.845 64.951 223.103 65.017 223.259 65.149C223.415 65.269 223.493 65.473 223.493 65.761V66.049C223.493 66.361 223.409 66.577 223.241 66.697C223.085 66.817 222.827 66.877 222.467 66.877ZM229.748 67.921C230.264 67.921 230.738 68.005 231.17 68.173C231.602 68.341 231.974 68.557 232.286 68.821C232.61 69.073 232.862 69.337 233.042 69.613C233.222 69.889 233.312 70.129 233.312 70.333L232.898 70.351V68.911C232.898 68.659 232.982 68.443 233.15 68.263C233.318 68.083 233.534 67.993 233.798 67.993C234.062 67.993 234.278 68.083 234.446 68.263C234.614 68.431 234.698 68.647 234.698 68.911V76.849C234.698 77.869 234.482 78.697 234.05 79.333C233.618 79.981 233.042 80.455 232.322 80.755C231.614 81.055 230.834 81.205 229.982 81.205C229.682 81.205 229.328 81.163 228.92 81.079C228.512 81.007 228.134 80.917 227.786 80.809C227.45 80.701 227.216 80.593 227.084 80.485C226.808 80.341 226.622 80.173 226.526 79.981C226.442 79.789 226.442 79.597 226.526 79.405C226.646 79.141 226.808 78.979 227.012 78.919C227.216 78.859 227.45 78.877 227.714 78.973C227.834 79.009 228.02 79.075 228.272 79.171C228.524 79.267 228.806 79.351 229.118 79.423C229.43 79.507 229.724 79.549 230 79.549C230.96 79.549 231.68 79.327 232.16 78.883C232.652 78.439 232.898 77.833 232.898 77.065V75.445L233.096 75.571C233.06 75.823 232.946 76.081 232.754 76.345C232.574 76.597 232.334 76.831 232.034 77.047C231.734 77.263 231.386 77.443 230.99 77.587C230.606 77.719 230.21 77.785 229.802 77.785C228.95 77.785 228.188 77.575 227.516 77.155C226.844 76.723 226.31 76.141 225.914 75.409C225.518 74.665 225.32 73.813 225.32 72.853C225.32 71.893 225.518 71.047 225.914 70.315C226.31 69.571 226.838 68.989 227.498 68.569C228.17 68.137 228.92 67.921 229.748 67.921ZM230.018 69.577C229.43 69.577 228.914 69.721 228.47 70.009C228.026 70.297 227.678 70.687 227.426 71.179C227.174 71.671 227.048 72.229 227.048 72.853C227.048 73.477 227.174 74.035 227.426 74.527C227.678 75.019 228.026 75.409 228.47 75.697C228.914 75.985 229.43 76.129 230.018 76.129C230.606 76.129 231.122 75.991 231.566 75.715C232.01 75.427 232.358 75.037 232.61 74.545C232.862 74.041 232.988 73.477 232.988 72.853C232.988 72.229 232.862 71.671 232.61 71.179C232.358 70.675 232.01 70.285 231.566 70.009C231.122 69.721 230.606 69.577 230.018 69.577ZM242.075 67.921C242.927 67.921 243.587 68.101 244.055 68.461C244.523 68.809 244.847 69.283 245.027 69.883C245.219 70.471 245.315 71.131 245.315 71.863V76.687C245.315 76.951 245.225 77.173 245.045 77.353C244.877 77.521 244.667 77.605 244.415 77.605C244.151 77.605 243.935 77.521 243.767 77.353C243.599 77.173 243.515 76.951 243.515 76.687V71.881C243.515 71.449 243.455 71.065 243.335 70.729C243.215 70.381 243.005 70.105 242.705 69.901C242.417 69.685 242.009 69.577 241.481 69.577C240.989 69.577 240.557 69.685 240.185 69.901C239.813 70.105 239.519 70.381 239.303 70.729C239.099 71.065 238.997 71.449 238.997 71.881V76.687C238.997 76.951 238.907 77.173 238.727 77.353C238.559 77.521 238.349 77.605 238.097 77.605C237.833 77.605 237.617 77.521 237.449 77.353C237.281 77.173 237.197 76.951 237.197 76.687V69.055C237.197 68.791 237.281 68.575 237.449 68.407C237.617 68.227 237.833 68.137 238.097 68.137C238.349 68.137 238.559 68.227 238.727 68.407C238.907 68.575 238.997 68.791 238.997 69.055V70.063L238.673 70.243C238.757 69.979 238.901 69.715 239.105 69.451C239.321 69.175 239.579 68.923 239.879 68.695C240.179 68.455 240.515 68.269 240.887 68.137C241.259 67.993 241.655 67.921 242.075 67.921Z" fill="black"/>
<rect x="86.502" y="97.605" width="141" height="34" rx="17" fill="white" fill-opacity="0.85"/>
<path d="M109 109.005C109.24 109.005 109.45 109.095 109.63 109.275C109.822 109.443 109.918 109.659 109.918 109.923V120.687C109.906 120.951 109.804 121.173 109.612 121.353C109.432 121.521 109.216 121.605 108.964 121.605C108.688 121.605 108.46 121.521 108.28 121.353C108.112 121.173 108.028 120.951 108.028 120.687V109.923C108.028 109.659 108.118 109.443 108.298 109.275C108.478 109.095 108.712 109.005 109 109.005ZM117.118 109.005C117.406 109.005 117.634 109.095 117.802 109.275C117.97 109.443 118.054 109.659 118.054 109.923V120.687C118.054 120.951 117.964 121.173 117.784 121.353C117.616 121.521 117.388 121.605 117.1 121.605C116.848 121.605 116.632 121.521 116.452 121.353C116.272 121.173 116.182 120.951 116.182 120.687V109.923C116.182 109.659 116.272 109.443 116.452 109.275C116.644 109.095 116.866 109.005 117.118 109.005ZM108.928 114.369H117.136L117.118 116.097H108.91L108.928 114.369ZM125.178 121.785C124.182 121.785 123.318 121.581 122.586 121.173C121.854 120.753 121.284 120.183 120.876 119.463C120.48 118.731 120.282 117.897 120.282 116.961C120.282 115.905 120.492 115.005 120.912 114.261C121.344 113.505 121.902 112.929 122.586 112.533C123.27 112.125 123.996 111.921 124.764 111.921C125.352 111.921 125.91 112.041 126.438 112.281C126.966 112.509 127.434 112.833 127.842 113.253C128.262 113.661 128.592 114.147 128.832 114.711C129.072 115.263 129.198 115.869 129.21 116.529C129.198 116.769 129.102 116.967 128.922 117.123C128.742 117.279 128.532 117.357 128.292 117.357H121.29L120.858 115.827H127.626L127.284 116.151V115.701C127.26 115.281 127.122 114.915 126.87 114.603C126.618 114.279 126.306 114.033 125.934 113.865C125.562 113.685 125.172 113.595 124.764 113.595C124.404 113.595 124.056 113.655 123.72 113.775C123.396 113.883 123.102 114.063 122.838 114.315C122.586 114.567 122.382 114.903 122.226 115.323C122.082 115.731 122.01 116.241 122.01 116.853C122.01 117.513 122.148 118.089 122.424 118.581C122.7 119.073 123.072 119.457 123.54 119.733C124.008 119.997 124.524 120.129 125.088 120.129C125.532 120.129 125.898 120.087 126.186 120.003C126.474 119.907 126.714 119.793 126.906 119.661C127.098 119.529 127.266 119.403 127.41 119.283C127.59 119.175 127.77 119.121 127.95 119.121C128.166 119.121 128.346 119.199 128.49 119.355C128.634 119.499 128.706 119.673 128.706 119.877C128.706 120.141 128.574 120.381 128.31 120.597C127.986 120.909 127.536 121.185 126.96 121.425C126.396 121.665 125.802 121.785 125.178 121.785ZM139.073 111.993C139.337 111.993 139.553 112.083 139.721 112.263C139.889 112.431 139.973 112.647 139.973 112.911V120.687C139.973 120.951 139.889 121.173 139.721 121.353C139.553 121.521 139.337 121.605 139.073 121.605C138.821 121.605 138.605 121.521 138.425 121.353C138.257 121.173 138.173 120.951 138.173 120.687V119.391L138.551 119.445C138.551 119.661 138.461 119.901 138.281 120.165C138.113 120.429 137.879 120.687 137.579 120.939C137.279 121.179 136.925 121.383 136.517 121.551C136.109 121.707 135.671 121.785 135.203 121.785C134.375 121.785 133.631 121.575 132.971 121.155C132.311 120.723 131.789 120.135 131.405 119.391C131.021 118.647 130.829 117.801 130.829 116.853C130.829 115.881 131.021 115.029 131.405 114.297C131.789 113.553 132.305 112.971 132.953 112.551C133.613 112.131 134.345 111.921 135.149 111.921C135.665 111.921 136.139 112.005 136.571 112.173C137.015 112.341 137.399 112.557 137.723 112.821C138.047 113.085 138.293 113.367 138.461 113.667C138.641 113.955 138.731 114.231 138.731 114.495L138.173 114.549V112.911C138.173 112.659 138.257 112.443 138.425 112.263C138.605 112.083 138.821 111.993 139.073 111.993ZM135.401 120.129C135.965 120.129 136.463 119.985 136.895 119.697C137.327 119.409 137.663 119.019 137.903 118.527C138.143 118.023 138.263 117.465 138.263 116.853C138.263 116.229 138.143 115.671 137.903 115.179C137.663 114.687 137.327 114.297 136.895 114.009C136.463 113.721 135.965 113.577 135.401 113.577C134.849 113.577 134.357 113.721 133.925 114.009C133.505 114.297 133.169 114.687 132.917 115.179C132.677 115.671 132.557 116.229 132.557 116.853C132.557 117.465 132.677 118.023 132.917 118.527C133.169 119.019 133.505 119.409 133.925 119.697C134.357 119.985 134.849 120.129 135.401 120.129ZM144.438 120.687C144.438 120.951 144.348 121.173 144.168 121.353C144 121.521 143.79 121.605 143.538 121.605C143.286 121.605 143.07 121.521 142.89 121.353C142.722 121.173 142.638 120.951 142.638 120.687V109.203C142.638 108.939 142.728 108.723 142.908 108.555C143.088 108.375 143.304 108.285 143.556 108.285C143.82 108.285 144.03 108.375 144.186 108.555C144.354 108.723 144.438 108.939 144.438 109.203V120.687ZM146.939 112.245H151.169C151.409 112.245 151.607 112.329 151.763 112.497C151.931 112.653 152.015 112.851 152.015 113.091C152.015 113.319 151.931 113.511 151.763 113.667C151.607 113.823 151.409 113.901 151.169 113.901H146.939C146.699 113.901 146.495 113.823 146.327 113.667C146.171 113.499 146.093 113.301 146.093 113.073C146.093 112.833 146.171 112.635 146.327 112.479C146.495 112.323 146.699 112.245 146.939 112.245ZM148.829 109.905C149.093 109.905 149.309 109.995 149.477 110.175C149.645 110.343 149.729 110.559 149.729 110.823V119.175C149.729 119.391 149.765 119.565 149.837 119.697C149.909 119.829 150.005 119.919 150.125 119.967C150.257 120.015 150.389 120.039 150.521 120.039C150.653 120.039 150.767 120.015 150.863 119.967C150.971 119.919 151.097 119.895 151.241 119.895C151.385 119.895 151.517 119.961 151.637 120.093C151.757 120.225 151.817 120.405 151.817 120.633C151.817 120.921 151.661 121.155 151.349 121.335C151.037 121.515 150.701 121.605 150.341 121.605C150.137 121.605 149.897 121.587 149.621 121.551C149.345 121.515 149.075 121.425 148.811 121.281C148.559 121.137 148.349 120.909 148.181 120.597C148.013 120.273 147.929 119.823 147.929 119.247V110.823C147.929 110.559 148.013 110.343 148.181 110.175C148.361 109.995 148.577 109.905 148.829 109.905ZM158.778 111.975C159.606 111.975 160.248 112.155 160.704 112.515C161.16 112.863 161.478 113.337 161.658 113.937C161.85 114.537 161.946 115.197 161.946 115.917V120.687C161.946 120.951 161.856 121.173 161.676 121.353C161.508 121.521 161.298 121.605 161.046 121.605C160.782 121.605 160.566 121.521 160.398 121.353C160.23 121.173 160.146 120.951 160.146 120.687V115.917C160.146 115.497 160.086 115.113 159.966 114.765C159.858 114.417 159.66 114.141 159.372 113.937C159.096 113.733 158.706 113.631 158.202 113.631C157.734 113.631 157.314 113.733 156.942 113.937C156.582 114.141 156.3 114.417 156.096 114.765C155.904 115.113 155.808 115.497 155.808 115.917V120.687C155.808 120.951 155.718 121.173 155.538 121.353C155.37 121.521 155.16 121.605 154.908 121.605C154.644 121.605 154.428 121.521 154.26 121.353C154.092 121.173 154.008 120.951 154.008 120.687V109.203C154.008 108.939 154.092 108.723 154.26 108.555C154.428 108.375 154.644 108.285 154.908 108.285C155.16 108.285 155.37 108.375 155.538 108.555C155.718 108.723 155.808 108.939 155.808 109.203V114.117L155.484 114.297C155.568 114.033 155.706 113.763 155.898 113.487C156.102 113.211 156.348 112.959 156.636 112.731C156.936 112.503 157.266 112.323 157.626 112.191C157.986 112.047 158.37 111.975 158.778 111.975ZM173.761 121.605C173.473 121.605 173.239 121.521 173.059 121.353C172.891 121.173 172.807 120.951 172.807 120.687V109.905H174.733V120.687C174.733 120.951 174.637 121.173 174.445 121.353C174.265 121.521 174.037 121.605 173.761 121.605ZM169.675 110.733C169.423 110.733 169.207 110.655 169.027 110.499C168.847 110.331 168.757 110.115 168.757 109.851C168.757 109.599 168.847 109.395 169.027 109.239C169.207 109.083 169.423 109.005 169.675 109.005H177.865C178.117 109.005 178.327 109.089 178.495 109.257C178.675 109.413 178.765 109.617 178.765 109.869C178.765 110.133 178.675 110.343 178.495 110.499C178.327 110.655 178.117 110.733 177.865 110.733H169.675ZM182.852 121.785C181.856 121.785 180.992 121.581 180.26 121.173C179.528 120.753 178.958 120.183 178.55 119.463C178.154 118.731 177.956 117.897 177.956 116.961C177.956 115.905 178.166 115.005 178.586 114.261C179.018 113.505 179.576 112.929 180.26 112.533C180.944 112.125 181.67 111.921 182.438 111.921C183.026 111.921 183.584 112.041 184.112 112.281C184.64 112.509 185.108 112.833 185.516 113.253C185.936 113.661 186.266 114.147 186.506 114.711C186.746 115.263 186.872 115.869 186.884 116.529C186.872 116.769 186.776 116.967 186.596 117.123C186.416 117.279 186.206 117.357 185.966 117.357H178.964L178.532 115.827H185.3L184.958 116.151V115.701C184.934 115.281 184.796 114.915 184.544 114.603C184.292 114.279 183.98 114.033 183.608 113.865C183.236 113.685 182.846 113.595 182.438 113.595C182.078 113.595 181.73 113.655 181.394 113.775C181.07 113.883 180.776 114.063 180.512 114.315C180.26 114.567 180.056 114.903 179.9 115.323C179.756 115.731 179.684 116.241 179.684 116.853C179.684 117.513 179.822 118.089 180.098 118.581C180.374 119.073 180.746 119.457 181.214 119.733C181.682 119.997 182.198 120.129 182.762 120.129C183.206 120.129 183.572 120.087 183.86 120.003C184.148 119.907 184.388 119.793 184.58 119.661C184.772 119.529 184.94 119.403 185.084 119.283C185.264 119.175 185.444 119.121 185.624 119.121C185.84 119.121 186.02 119.199 186.164 119.355C186.308 119.499 186.38 119.673 186.38 119.877C186.38 120.141 186.248 120.381 185.984 120.597C185.66 120.909 185.21 121.185 184.634 121.425C184.07 121.665 183.476 121.785 182.852 121.785ZM193.112 111.921C193.76 111.921 194.336 111.993 194.84 112.137C195.344 112.269 195.734 112.461 196.01 112.713C196.298 112.953 196.442 113.235 196.442 113.559C196.442 113.763 196.382 113.955 196.262 114.135C196.142 114.303 195.962 114.387 195.722 114.387C195.554 114.387 195.41 114.357 195.29 114.297C195.182 114.237 195.08 114.165 194.984 114.081C194.888 113.997 194.768 113.913 194.624 113.829C194.492 113.757 194.294 113.697 194.03 113.649C193.778 113.601 193.55 113.577 193.346 113.577C192.71 113.577 192.158 113.721 191.69 114.009C191.234 114.297 190.874 114.687 190.61 115.179C190.358 115.671 190.232 116.229 190.232 116.853C190.232 117.477 190.358 118.035 190.61 118.527C190.874 119.019 191.228 119.409 191.672 119.697C192.128 119.985 192.656 120.129 193.256 120.129C193.616 120.129 193.91 120.105 194.138 120.057C194.366 119.997 194.564 119.925 194.732 119.841C194.912 119.733 195.062 119.625 195.182 119.517C195.314 119.397 195.494 119.337 195.722 119.337C195.986 119.337 196.184 119.421 196.316 119.589C196.46 119.745 196.532 119.943 196.532 120.183C196.532 120.447 196.37 120.705 196.046 120.957C195.734 121.197 195.314 121.395 194.786 121.551C194.258 121.707 193.676 121.785 193.04 121.785C192.104 121.785 191.288 121.569 190.592 121.137C189.908 120.705 189.374 120.117 188.99 119.373C188.618 118.629 188.432 117.789 188.432 116.853C188.432 115.905 188.63 115.065 189.026 114.333C189.422 113.589 189.974 113.001 190.682 112.569C191.39 112.137 192.2 111.921 193.112 111.921ZM203.022 111.975C203.85 111.975 204.492 112.155 204.948 112.515C205.404 112.863 205.722 113.337 205.902 113.937C206.094 114.537 206.19 115.197 206.19 115.917V120.687C206.19 120.951 206.1 121.173 205.92 121.353C205.752 121.521 205.542 121.605 205.29 121.605C205.026 121.605 204.81 121.521 204.642 121.353C204.474 121.173 204.39 120.951 204.39 120.687V115.917C204.39 115.497 204.33 115.113 204.21 114.765C204.102 114.417 203.904 114.141 203.616 113.937C203.34 113.733 202.95 113.631 202.446 113.631C201.978 113.631 201.558 113.733 201.186 113.937C200.826 114.141 200.544 114.417 200.34 114.765C200.148 115.113 200.052 115.497 200.052 115.917V120.687C200.052 120.951 199.962 121.173 199.782 121.353C199.614 121.521 199.404 121.605 199.152 121.605C198.888 121.605 198.672 121.521 198.504 121.353C198.336 121.173 198.252 120.951 198.252 120.687V109.203C198.252 108.939 198.336 108.723 198.504 108.555C198.672 108.375 198.888 108.285 199.152 108.285C199.404 108.285 199.614 108.375 199.782 108.555C199.962 108.723 200.052 108.939 200.052 109.203V114.117L199.728 114.297C199.812 114.033 199.95 113.763 200.142 113.487C200.346 113.211 200.592 112.959 200.88 112.731C201.18 112.503 201.51 112.323 201.87 112.191C202.23 112.047 202.614 111.975 203.022 111.975Z" fill="black"/>
<rect x="46.502" y="141.605" width="221" height="34" rx="17" fill="white" fill-opacity="0.85"/>
<path d="M70.1654 164.687C70.1534 164.951 70.0514 165.173 69.8594 165.353C69.6794 165.521 69.4634 165.605 69.2114 165.605C68.9354 165.605 68.7074 165.521 68.5274 165.353C68.3594 165.173 68.2754 164.951 68.2754 164.687V153.923C68.2754 153.659 68.3654 153.443 68.5454 153.275C68.7254 153.095 68.9594 153.005 69.2474 153.005C69.4874 153.005 69.6974 153.095 69.8774 153.275C70.0694 153.443 70.1654 153.659 70.1654 153.923V164.687ZM77.7542 155.921C78.6062 155.921 79.2662 156.101 79.7342 156.461C80.2022 156.809 80.5262 157.283 80.7062 157.883C80.8982 158.471 80.9942 159.131 80.9942 159.863V164.687C80.9942 164.951 80.9042 165.173 80.7242 165.353C80.5562 165.521 80.3462 165.605 80.0942 165.605C79.8302 165.605 79.6142 165.521 79.4462 165.353C79.2782 165.173 79.1942 164.951 79.1942 164.687V159.881C79.1942 159.449 79.1342 159.065 79.0142 158.729C78.8942 158.381 78.6842 158.105 78.3842 157.901C78.0962 157.685 77.6882 157.577 77.1602 157.577C76.6682 157.577 76.2362 157.685 75.8642 157.901C75.4922 158.105 75.1982 158.381 74.9822 158.729C74.7782 159.065 74.6762 159.449 74.6762 159.881V164.687C74.6762 164.951 74.5862 165.173 74.4062 165.353C74.2382 165.521 74.0282 165.605 73.7762 165.605C73.5122 165.605 73.2962 165.521 73.1282 165.353C72.9602 165.173 72.8762 164.951 72.8762 164.687V157.055C72.8762 156.791 72.9602 156.575 73.1282 156.407C73.2962 156.227 73.5122 156.137 73.7762 156.137C74.0282 156.137 74.2382 156.227 74.4062 156.407C74.5862 156.575 74.6762 156.791 74.6762 157.055V158.063L74.3522 158.243C74.4362 157.979 74.5802 157.715 74.7842 157.451C75.0002 157.175 75.2582 156.923 75.5582 156.695C75.8582 156.455 76.1942 156.269 76.5662 156.137C76.9382 155.993 77.3342 155.921 77.7542 155.921ZM83.3674 156.245H87.5974C87.8374 156.245 88.0354 156.329 88.1914 156.497C88.3594 156.653 88.4434 156.851 88.4434 157.091C88.4434 157.319 88.3594 157.511 88.1914 157.667C88.0354 157.823 87.8374 157.901 87.5974 157.901H83.3674C83.1274 157.901 82.9234 157.823 82.7554 157.667C82.5994 157.499 82.5214 157.301 82.5214 157.073C82.5214 156.833 82.5994 156.635 82.7554 156.479C82.9234 156.323 83.1274 156.245 83.3674 156.245ZM85.2574 153.905C85.5214 153.905 85.7374 153.995 85.9054 154.175C86.0734 154.343 86.1574 154.559 86.1574 154.823V163.175C86.1574 163.391 86.1934 163.565 86.2654 163.697C86.3374 163.829 86.4334 163.919 86.5534 163.967C86.6854 164.015 86.8174 164.039 86.9494 164.039C87.0814 164.039 87.1954 164.015 87.2914 163.967C87.3994 163.919 87.5254 163.895 87.6694 163.895C87.8134 163.895 87.9454 163.961 88.0654 164.093C88.1854 164.225 88.2454 164.405 88.2454 164.633C88.2454 164.921 88.0894 165.155 87.7774 165.335C87.4654 165.515 87.1294 165.605 86.7694 165.605C86.5654 165.605 86.3254 165.587 86.0494 165.551C85.7734 165.515 85.5034 165.425 85.2394 165.281C84.9874 165.137 84.7774 164.909 84.6094 164.597C84.4414 164.273 84.3574 163.823 84.3574 163.247V154.823C84.3574 154.559 84.4414 154.343 84.6094 154.175C84.7894 153.995 85.0054 153.905 85.2574 153.905ZM94.7589 165.785C93.7629 165.785 92.8989 165.581 92.1669 165.173C91.4349 164.753 90.8649 164.183 90.4569 163.463C90.0609 162.731 89.8629 161.897 89.8629 160.961C89.8629 159.905 90.0729 159.005 90.4929 158.261C90.9249 157.505 91.4829 156.929 92.1669 156.533C92.8509 156.125 93.5769 155.921 94.3449 155.921C94.9329 155.921 95.4909 156.041 96.0189 156.281C96.5469 156.509 97.0149 156.833 97.4229 157.253C97.8429 157.661 98.1729 158.147 98.4129 158.711C98.6529 159.263 98.7789 159.869 98.7909 160.529C98.7789 160.769 98.6829 160.967 98.5029 161.123C98.3229 161.279 98.1129 161.357 97.8729 161.357H90.8709L90.4389 159.827H97.2069L96.8649 160.151V159.701C96.8409 159.281 96.7029 158.915 96.4509 158.603C96.1989 158.279 95.8869 158.033 95.5149 157.865C95.1429 157.685 94.7529 157.595 94.3449 157.595C93.9849 157.595 93.6369 157.655 93.3009 157.775C92.9769 157.883 92.6829 158.063 92.4189 158.315C92.1669 158.567 91.9629 158.903 91.8069 159.323C91.6629 159.731 91.5909 160.241 91.5909 160.853C91.5909 161.513 91.7289 162.089 92.0049 162.581C92.2809 163.073 92.6529 163.457 93.1209 163.733C93.5889 163.997 94.1049 164.129 94.6689 164.129C95.1129 164.129 95.4789 164.087 95.7669 164.003C96.0549 163.907 96.2949 163.793 96.4869 163.661C96.6789 163.529 96.8469 163.403 96.9909 163.283C97.1709 163.175 97.3509 163.121 97.5309 163.121C97.7469 163.121 97.9269 163.199 98.0709 163.355C98.2149 163.499 98.2869 163.673 98.2869 163.877C98.2869 164.141 98.1549 164.381 97.8909 164.597C97.5669 164.909 97.1169 165.185 96.5409 165.425C95.9769 165.665 95.3829 165.785 94.7589 165.785ZM101.725 165.605C101.461 165.605 101.245 165.521 101.077 165.353C100.909 165.173 100.825 164.951 100.825 164.687V157.055C100.825 156.791 100.909 156.575 101.077 156.407C101.245 156.227 101.461 156.137 101.725 156.137C101.977 156.137 102.187 156.227 102.355 156.407C102.535 156.575 102.625 156.791 102.625 157.055V159.071L102.445 158.297C102.541 157.961 102.685 157.649 102.877 157.361C103.081 157.073 103.321 156.821 103.597 156.605C103.873 156.389 104.179 156.221 104.515 156.101C104.863 155.981 105.223 155.921 105.595 155.921C105.907 155.921 106.177 156.005 106.405 156.173C106.633 156.341 106.747 156.551 106.747 156.803C106.747 157.127 106.663 157.367 106.495 157.523C106.327 157.667 106.141 157.739 105.937 157.739C105.757 157.739 105.583 157.703 105.415 157.631C105.247 157.547 105.049 157.505 104.821 157.505C104.569 157.505 104.311 157.571 104.047 157.703C103.783 157.835 103.543 158.033 103.327 158.297C103.111 158.549 102.937 158.849 102.805 159.197C102.685 159.545 102.625 159.935 102.625 160.367V164.687C102.625 164.951 102.535 165.173 102.355 165.353C102.187 165.521 101.977 165.605 101.725 165.605ZM109.461 156.047C109.641 156.047 109.809 156.095 109.965 156.191C110.133 156.287 110.253 156.431 110.325 156.623L113.151 163.157L112.809 163.319L115.671 156.641C115.839 156.245 116.109 156.053 116.481 156.065C116.721 156.065 116.919 156.143 117.075 156.299C117.243 156.443 117.327 156.635 117.327 156.875C117.327 156.947 117.315 157.025 117.291 157.109C117.267 157.181 117.237 157.253 117.201 157.325L113.781 165.029C113.625 165.389 113.367 165.581 113.007 165.605C112.827 165.629 112.647 165.593 112.467 165.497C112.299 165.389 112.167 165.233 112.071 165.029L108.669 157.325C108.645 157.277 108.621 157.217 108.597 157.145C108.573 157.061 108.561 156.965 108.561 156.857C108.561 156.677 108.639 156.497 108.795 156.317C108.963 156.137 109.185 156.047 109.461 156.047ZM123.482 165.785C122.486 165.785 121.622 165.581 120.89 165.173C120.158 164.753 119.588 164.183 119.18 163.463C118.784 162.731 118.586 161.897 118.586 160.961C118.586 159.905 118.796 159.005 119.216 158.261C119.648 157.505 120.206 156.929 120.89 156.533C121.574 156.125 122.3 155.921 123.068 155.921C123.656 155.921 124.214 156.041 124.742 156.281C125.27 156.509 125.738 156.833 126.146 157.253C126.566 157.661 126.896 158.147 127.136 158.711C127.376 159.263 127.502 159.869 127.514 160.529C127.502 160.769 127.406 160.967 127.226 161.123C127.046 161.279 126.836 161.357 126.596 161.357H119.594L119.162 159.827H125.93L125.588 160.151V159.701C125.564 159.281 125.426 158.915 125.174 158.603C124.922 158.279 124.61 158.033 124.238 157.865C123.866 157.685 123.476 157.595 123.068 157.595C122.708 157.595 122.36 157.655 122.024 157.775C121.7 157.883 121.406 158.063 121.142 158.315C120.89 158.567 120.686 158.903 120.53 159.323C120.386 159.731 120.314 160.241 120.314 160.853C120.314 161.513 120.452 162.089 120.728 162.581C121.004 163.073 121.376 163.457 121.844 163.733C122.312 163.997 122.828 164.129 123.392 164.129C123.836 164.129 124.202 164.087 124.49 164.003C124.778 163.907 125.018 163.793 125.21 163.661C125.402 163.529 125.57 163.403 125.714 163.283C125.894 163.175 126.074 163.121 126.254 163.121C126.47 163.121 126.65 163.199 126.794 163.355C126.938 163.499 127.01 163.673 127.01 163.877C127.01 164.141 126.878 164.381 126.614 164.597C126.29 164.909 125.84 165.185 125.264 165.425C124.7 165.665 124.106 165.785 123.482 165.785ZM134.426 155.921C135.278 155.921 135.938 156.101 136.406 156.461C136.874 156.809 137.198 157.283 137.378 157.883C137.57 158.471 137.666 159.131 137.666 159.863V164.687C137.666 164.951 137.576 165.173 137.396 165.353C137.228 165.521 137.018 165.605 136.766 165.605C136.502 165.605 136.286 165.521 136.118 165.353C135.95 165.173 135.866 164.951 135.866 164.687V159.881C135.866 159.449 135.806 159.065 135.686 158.729C135.566 158.381 135.356 158.105 135.056 157.901C134.768 157.685 134.36 157.577 133.832 157.577C133.34 157.577 132.908 157.685 132.536 157.901C132.164 158.105 131.87 158.381 131.654 158.729C131.45 159.065 131.348 159.449 131.348 159.881V164.687C131.348 164.951 131.258 165.173 131.078 165.353C130.91 165.521 130.7 165.605 130.448 165.605C130.184 165.605 129.968 165.521 129.8 165.353C129.632 165.173 129.548 164.951 129.548 164.687V157.055C129.548 156.791 129.632 156.575 129.8 156.407C129.968 156.227 130.184 156.137 130.448 156.137C130.7 156.137 130.91 156.227 131.078 156.407C131.258 156.575 131.348 156.791 131.348 157.055V158.063L131.024 158.243C131.108 157.979 131.252 157.715 131.456 157.451C131.672 157.175 131.93 156.923 132.23 156.695C132.53 156.455 132.866 156.269 133.238 156.137C133.61 155.993 134.006 155.921 134.426 155.921ZM140.039 156.245H144.269C144.509 156.245 144.707 156.329 144.863 156.497C145.031 156.653 145.115 156.851 145.115 157.091C145.115 157.319 145.031 157.511 144.863 157.667C144.707 157.823 144.509 157.901 144.269 157.901H140.039C139.799 157.901 139.595 157.823 139.427 157.667C139.271 157.499 139.193 157.301 139.193 157.073C139.193 156.833 139.271 156.635 139.427 156.479C139.595 156.323 139.799 156.245 140.039 156.245ZM141.929 153.905C142.193 153.905 142.409 153.995 142.577 154.175C142.745 154.343 142.829 154.559 142.829 154.823V163.175C142.829 163.391 142.865 163.565 142.937 163.697C143.009 163.829 143.105 163.919 143.225 163.967C143.357 164.015 143.489 164.039 143.621 164.039C143.753 164.039 143.867 164.015 143.963 163.967C144.071 163.919 144.197 163.895 144.341 163.895C144.485 163.895 144.617 163.961 144.737 164.093C144.857 164.225 144.917 164.405 144.917 164.633C144.917 164.921 144.761 165.155 144.449 165.335C144.137 165.515 143.801 165.605 143.441 165.605C143.237 165.605 142.997 165.587 142.721 165.551C142.445 165.515 142.175 165.425 141.911 165.281C141.659 165.137 141.449 164.909 141.281 164.597C141.113 164.273 141.029 163.823 141.029 163.247V154.823C141.029 154.559 141.113 154.343 141.281 154.175C141.461 153.995 141.677 153.905 141.929 153.905ZM148.801 164.687C148.801 164.951 148.717 165.173 148.549 165.353C148.381 165.521 148.165 165.605 147.901 165.605C147.649 165.605 147.433 165.521 147.253 165.353C147.085 165.173 147.001 164.951 147.001 164.687V156.983C147.001 156.719 147.085 156.503 147.253 156.335C147.433 156.155 147.649 156.065 147.901 156.065C148.165 156.065 148.381 156.155 148.549 156.335C148.717 156.503 148.801 156.719 148.801 156.983V164.687ZM147.883 154.877C147.535 154.877 147.283 154.817 147.127 154.697C146.971 154.565 146.893 154.349 146.893 154.049V153.761C146.893 153.461 146.977 153.251 147.145 153.131C147.313 153.011 147.565 152.951 147.901 152.951C148.261 152.951 148.519 153.017 148.675 153.149C148.831 153.269 148.909 153.473 148.909 153.761V154.049C148.909 154.361 148.825 154.577 148.657 154.697C148.501 154.817 148.243 154.877 147.883 154.877ZM160.294 160.871C160.294 161.831 160.084 162.683 159.664 163.427C159.244 164.159 158.674 164.735 157.954 165.155C157.234 165.575 156.424 165.785 155.524 165.785C154.624 165.785 153.814 165.575 153.094 165.155C152.374 164.735 151.798 164.159 151.366 163.427C150.946 162.683 150.736 161.831 150.736 160.871C150.736 159.899 150.946 159.047 151.366 158.315C151.798 157.571 152.374 156.989 153.094 156.569C153.814 156.137 154.624 155.921 155.524 155.921C156.424 155.921 157.234 156.137 157.954 156.569C158.674 156.989 159.244 157.571 159.664 158.315C160.084 159.047 160.294 159.899 160.294 160.871ZM158.494 160.871C158.494 160.211 158.362 159.641 158.098 159.161C157.834 158.669 157.474 158.285 157.018 158.009C156.574 157.721 156.076 157.577 155.524 157.577C154.972 157.577 154.468 157.721 154.012 158.009C153.556 158.285 153.196 158.669 152.932 159.161C152.668 159.641 152.536 160.211 152.536 160.871C152.536 161.507 152.668 162.071 152.932 162.563C153.196 163.055 153.556 163.439 154.012 163.715C154.468 163.991 154.972 164.129 155.524 164.129C156.076 164.129 156.574 163.991 157.018 163.715C157.474 163.439 157.834 163.055 158.098 162.563C158.362 162.071 158.494 161.507 158.494 160.871ZM167.209 155.921C168.061 155.921 168.721 156.101 169.189 156.461C169.657 156.809 169.981 157.283 170.161 157.883C170.353 158.471 170.449 159.131 170.449 159.863V164.687C170.449 164.951 170.359 165.173 170.179 165.353C170.011 165.521 169.801 165.605 169.549 165.605C169.285 165.605 169.069 165.521 168.901 165.353C168.733 165.173 168.649 164.951 168.649 164.687V159.881C168.649 159.449 168.589 159.065 168.469 158.729C168.349 158.381 168.139 158.105 167.839 157.901C167.551 157.685 167.143 157.577 166.615 157.577C166.123 157.577 165.691 157.685 165.319 157.901C164.947 158.105 164.653 158.381 164.437 158.729C164.233 159.065 164.131 159.449 164.131 159.881V164.687C164.131 164.951 164.041 165.173 163.861 165.353C163.693 165.521 163.483 165.605 163.231 165.605C162.967 165.605 162.751 165.521 162.583 165.353C162.415 165.173 162.331 164.951 162.331 164.687V157.055C162.331 156.791 162.415 156.575 162.583 156.407C162.751 156.227 162.967 156.137 163.231 156.137C163.483 156.137 163.693 156.227 163.861 156.407C164.041 156.575 164.131 156.791 164.131 157.055V158.063L163.807 158.243C163.891 157.979 164.035 157.715 164.239 157.451C164.455 157.175 164.713 156.923 165.013 156.695C165.313 156.455 165.649 156.269 166.021 156.137C166.393 155.993 166.789 155.921 167.209 155.921ZM180.046 164.687C180.034 164.951 179.932 165.173 179.74 165.353C179.56 165.521 179.344 165.605 179.092 165.605C178.816 165.605 178.588 165.521 178.408 165.353C178.24 165.173 178.156 164.951 178.156 164.687V153.923C178.156 153.659 178.246 153.443 178.426 153.275C178.606 153.095 178.84 153.005 179.128 153.005C179.368 153.005 179.578 153.095 179.758 153.275C179.95 153.443 180.046 153.659 180.046 153.923V164.687ZM190.515 152.285C190.779 152.285 190.995 152.369 191.163 152.537C191.331 152.705 191.415 152.927 191.415 153.203V164.687C191.415 164.951 191.331 165.173 191.163 165.353C190.995 165.521 190.779 165.605 190.515 165.605C190.263 165.605 190.047 165.521 189.867 165.353C189.699 165.173 189.615 164.951 189.615 164.687V163.391L189.993 163.409C189.993 163.625 189.903 163.871 189.723 164.147C189.555 164.411 189.321 164.669 189.021 164.921C188.721 165.173 188.367 165.383 187.959 165.551C187.551 165.707 187.113 165.785 186.645 165.785C185.817 165.785 185.073 165.575 184.413 165.155C183.753 164.723 183.231 164.141 182.847 163.409C182.463 162.665 182.271 161.813 182.271 160.853C182.271 159.893 182.463 159.047 182.847 158.315C183.231 157.571 183.747 156.989 184.395 156.569C185.055 156.137 185.787 155.921 186.591 155.921C187.095 155.921 187.563 156.005 187.995 156.173C188.439 156.341 188.823 156.557 189.147 156.821C189.471 157.085 189.723 157.367 189.903 157.667C190.083 157.955 190.173 158.231 190.173 158.495L189.615 158.549V153.203C189.615 152.939 189.699 152.723 189.867 152.555C190.047 152.375 190.263 152.285 190.515 152.285ZM186.843 164.129C187.419 164.129 187.917 163.985 188.337 163.697C188.769 163.409 189.105 163.019 189.345 162.527C189.585 162.035 189.705 161.477 189.705 160.853C189.705 160.229 189.585 159.671 189.345 159.179C189.105 158.687 188.769 158.297 188.337 158.009C187.905 157.721 187.407 157.577 186.843 157.577C186.291 157.577 185.799 157.721 185.367 158.009C184.947 158.297 184.611 158.687 184.359 159.179C184.119 159.671 183.999 160.229 183.999 160.853C183.999 161.477 184.119 162.035 184.359 162.527C184.611 163.019 184.947 163.409 185.367 163.697C185.799 163.985 186.291 164.129 186.843 164.129ZM198.347 165.785C197.351 165.785 196.487 165.581 195.755 165.173C195.023 164.753 194.453 164.183 194.045 163.463C193.649 162.731 193.451 161.897 193.451 160.961C193.451 159.905 193.661 159.005 194.081 158.261C194.513 157.505 195.071 156.929 195.755 156.533C196.439 156.125 197.165 155.921 197.933 155.921C198.521 155.921 199.079 156.041 199.607 156.281C200.135 156.509 200.603 156.833 201.011 157.253C201.431 157.661 201.761 158.147 202.001 158.711C202.241 159.263 202.367 159.869 202.379 160.529C202.367 160.769 202.271 160.967 202.091 161.123C201.911 161.279 201.701 161.357 201.461 161.357H194.459L194.027 159.827H200.795L200.453 160.151V159.701C200.429 159.281 200.291 158.915 200.039 158.603C199.787 158.279 199.475 158.033 199.103 157.865C198.731 157.685 198.341 157.595 197.933 157.595C197.573 157.595 197.225 157.655 196.889 157.775C196.565 157.883 196.271 158.063 196.007 158.315C195.755 158.567 195.551 158.903 195.395 159.323C195.251 159.731 195.179 160.241 195.179 160.853C195.179 161.513 195.317 162.089 195.593 162.581C195.869 163.073 196.241 163.457 196.709 163.733C197.177 163.997 197.693 164.129 198.257 164.129C198.701 164.129 199.067 164.087 199.355 164.003C199.643 163.907 199.883 163.793 200.075 163.661C200.267 163.529 200.435 163.403 200.579 163.283C200.759 163.175 200.939 163.121 201.119 163.121C201.335 163.121 201.515 163.199 201.659 163.355C201.803 163.499 201.875 163.673 201.875 163.877C201.875 164.141 201.743 164.381 201.479 164.597C201.155 164.909 200.705 165.185 200.129 165.425C199.565 165.665 198.971 165.785 198.347 165.785ZM212.242 155.993C212.506 155.993 212.722 156.083 212.89 156.263C213.058 156.431 213.142 156.647 213.142 156.911V164.687C213.142 164.951 213.058 165.173 212.89 165.353C212.722 165.521 212.506 165.605 212.242 165.605C211.99 165.605 211.774 165.521 211.594 165.353C211.426 165.173 211.342 164.951 211.342 164.687V163.391L211.72 163.445C211.72 163.661 211.63 163.901 211.45 164.165C211.282 164.429 211.048 164.687 210.748 164.939C210.448 165.179 210.094 165.383 209.686 165.551C209.278 165.707 208.84 165.785 208.372 165.785C207.544 165.785 206.8 165.575 206.14 165.155C205.48 164.723 204.958 164.135 204.574 163.391C204.19 162.647 203.998 161.801 203.998 160.853C203.998 159.881 204.19 159.029 204.574 158.297C204.958 157.553 205.474 156.971 206.122 156.551C206.782 156.131 207.514 155.921 208.318 155.921C208.834 155.921 209.308 156.005 209.74 156.173C210.184 156.341 210.568 156.557 210.892 156.821C211.216 157.085 211.462 157.367 211.63 157.667C211.81 157.955 211.9 158.231 211.9 158.495L211.342 158.549V156.911C211.342 156.659 211.426 156.443 211.594 156.263C211.774 156.083 211.99 155.993 212.242 155.993ZM208.57 164.129C209.134 164.129 209.632 163.985 210.064 163.697C210.496 163.409 210.832 163.019 211.072 162.527C211.312 162.023 211.432 161.465 211.432 160.853C211.432 160.229 211.312 159.671 211.072 159.179C210.832 158.687 210.496 158.297 210.064 158.009C209.632 157.721 209.134 157.577 208.57 157.577C208.018 157.577 207.526 157.721 207.094 158.009C206.674 158.297 206.338 158.687 206.086 159.179C205.846 159.671 205.726 160.229 205.726 160.853C205.726 161.465 205.846 162.023 206.086 162.527C206.338 163.019 206.674 163.409 207.094 163.697C207.526 163.985 208.018 164.129 208.57 164.129ZM215.537 156.245H219.767C220.007 156.245 220.205 156.329 220.361 156.497C220.529 156.653 220.613 156.851 220.613 157.091C220.613 157.319 220.529 157.511 220.361 157.667C220.205 157.823 220.007 157.901 219.767 157.901H215.537C215.297 157.901 215.093 157.823 214.925 157.667C214.769 157.499 214.691 157.301 214.691 157.073C214.691 156.833 214.769 156.635 214.925 156.479C215.093 156.323 215.297 156.245 215.537 156.245ZM217.427 153.905C217.691 153.905 217.907 153.995 218.075 154.175C218.243 154.343 218.327 154.559 218.327 154.823V163.175C218.327 163.391 218.363 163.565 218.435 163.697C218.507 163.829 218.603 163.919 218.723 163.967C218.855 164.015 218.987 164.039 219.119 164.039C219.251 164.039 219.365 164.015 219.461 163.967C219.569 163.919 219.695 163.895 219.839 163.895C219.983 163.895 220.115 163.961 220.235 164.093C220.355 164.225 220.415 164.405 220.415 164.633C220.415 164.921 220.259 165.155 219.947 165.335C219.635 165.515 219.299 165.605 218.939 165.605C218.735 165.605 218.495 165.587 218.219 165.551C217.943 165.515 217.673 165.425 217.409 165.281C217.157 165.137 216.947 164.909 216.779 164.597C216.611 164.273 216.527 163.823 216.527 163.247V154.823C216.527 154.559 216.611 154.343 216.779 154.175C216.959 153.995 217.175 153.905 217.427 153.905ZM224.299 164.687C224.299 164.951 224.215 165.173 224.047 165.353C223.879 165.521 223.663 165.605 223.399 165.605C223.147 165.605 222.931 165.521 222.751 165.353C222.583 165.173 222.499 164.951 222.499 164.687V156.983C222.499 156.719 222.583 156.503 222.751 156.335C222.931 156.155 223.147 156.065 223.399 156.065C223.663 156.065 223.879 156.155 224.047 156.335C224.215 156.503 224.299 156.719 224.299 156.983V164.687ZM223.381 154.877C223.033 154.877 222.781 154.817 222.625 154.697C222.469 154.565 222.391 154.349 222.391 154.049V153.761C222.391 153.461 222.475 153.251 222.643 153.131C222.811 153.011 223.063 152.951 223.399 152.951C223.759 152.951 224.017 153.017 224.173 153.149C224.329 153.269 224.407 153.473 224.407 153.761V154.049C224.407 154.361 224.323 154.577 224.155 154.697C223.999 154.817 223.741 154.877 223.381 154.877ZM235.792 160.871C235.792 161.831 235.582 162.683 235.162 163.427C234.742 164.159 234.172 164.735 233.452 165.155C232.732 165.575 231.922 165.785 231.022 165.785C230.122 165.785 229.312 165.575 228.592 165.155C227.872 164.735 227.296 164.159 226.864 163.427C226.444 162.683 226.234 161.831 226.234 160.871C226.234 159.899 226.444 159.047 226.864 158.315C227.296 157.571 227.872 156.989 228.592 156.569C229.312 156.137 230.122 155.921 231.022 155.921C231.922 155.921 232.732 156.137 233.452 156.569C234.172 156.989 234.742 157.571 235.162 158.315C235.582 159.047 235.792 159.899 235.792 160.871ZM233.992 160.871C233.992 160.211 233.86 159.641 233.596 159.161C233.332 158.669 232.972 158.285 232.516 158.009C232.072 157.721 231.574 157.577 231.022 157.577C230.47 157.577 229.966 157.721 229.51 158.009C229.054 158.285 228.694 158.669 228.43 159.161C228.166 159.641 228.034 160.211 228.034 160.871C228.034 161.507 228.166 162.071 228.43 162.563C228.694 163.055 229.054 163.439 229.51 163.715C229.966 163.991 230.47 164.129 231.022 164.129C231.574 164.129 232.072 163.991 232.516 163.715C232.972 163.439 233.332 163.055 233.596 162.563C233.86 162.071 233.992 161.507 233.992 160.871ZM242.707 155.921C243.559 155.921 244.219 156.101 244.687 156.461C245.155 156.809 245.479 157.283 245.659 157.883C245.851 158.471 245.947 159.131 245.947 159.863V164.687C245.947 164.951 245.857 165.173 245.677 165.353C245.509 165.521 245.299 165.605 245.047 165.605C244.783 165.605 244.567 165.521 244.399 165.353C244.231 165.173 244.147 164.951 244.147 164.687V159.881C244.147 159.449 244.087 159.065 243.967 158.729C243.847 158.381 243.637 158.105 243.337 157.901C243.049 157.685 242.641 157.577 242.113 157.577C241.621 157.577 241.189 157.685 240.817 157.901C240.445 158.105 240.151 158.381 239.935 158.729C239.731 159.065 239.629 159.449 239.629 159.881V164.687C239.629 164.951 239.539 165.173 239.359 165.353C239.191 165.521 238.981 165.605 238.729 165.605C238.465 165.605 238.249 165.521 238.081 165.353C237.913 165.173 237.829 164.951 237.829 164.687V157.055C237.829 156.791 237.913 156.575 238.081 156.407C238.249 156.227 238.465 156.137 238.729 156.137C238.981 156.137 239.191 156.227 239.359 156.407C239.539 156.575 239.629 156.791 239.629 157.055V158.063L239.305 158.243C239.389 157.979 239.533 157.715 239.737 157.451C239.953 157.175 240.211 156.923 240.511 156.695C240.811 156.455 241.147 156.269 241.519 156.137C241.891 155.993 242.287 155.921 242.707 155.921Z" fill="black"/>
</svg>
