<svg width="32" height="32" viewBox="0 0 32 32" fill="none" xmlns="http://www.w3.org/2000/svg">
<mask id="path-1-inside-1_407_4058" fill="white">
<path fill-rule="evenodd" clip-rule="evenodd" d="M16.9567 30.3499C25.1971 30.3499 31.8772 23.6698 31.8772 15.4295C31.8772 7.18914 25.1971 0.509033 16.9567 0.509033C8.7164 0.509033 2.03629 7.18914 2.03629 15.4295C2.03629 17.2643 2.36748 19.0217 2.97334 20.6453C3.14774 21.1127 3.17363 21.626 3.01187 22.0979L0.862243 28.3687C0.322723 29.9426 1.82884 31.4487 3.40272 30.9092L9.20137 28.9214C9.72237 28.7428 10.2911 28.7933 10.7926 29.0211C12.6715 29.8746 14.7586 30.3499 16.9567 30.3499Z"/>
</mask>
<path fill-rule="evenodd" clip-rule="evenodd" d="M16.9567 30.3499C25.1971 30.3499 31.8772 23.6698 31.8772 15.4295C31.8772 7.18914 25.1971 0.509033 16.9567 0.509033C8.7164 0.509033 2.03629 7.18914 2.03629 15.4295C2.03629 17.2643 2.36748 19.0217 2.97334 20.6453C3.14774 21.1127 3.17363 21.626 3.01187 22.0979L0.862243 28.3687C0.322723 29.9426 1.82884 31.4487 3.40272 30.9092L9.20137 28.9214C9.72237 28.7428 10.2911 28.7933 10.7926 29.0211C12.6715 29.8746 14.7586 30.3499 16.9567 30.3499Z" fill="white"/>
<path d="M9.20137 28.9214L9.84991 30.8133L9.20137 28.9214ZM10.7926 29.0211L11.6198 27.2002L10.7926 29.0211ZM3.40272 30.9092L4.05126 32.8011L3.40272 30.9092ZM3.01187 22.0979L4.90379 22.7464L3.01187 22.0979ZM29.8772 15.4295C29.8772 22.5652 24.0925 28.3499 16.9567 28.3499V32.3499C26.3016 32.3499 33.8772 24.7744 33.8772 15.4295H29.8772ZM16.9567 2.50903C24.0925 2.50903 29.8772 8.29371 29.8772 15.4295H33.8772C33.8772 6.08458 26.3016 -1.49097 16.9567 -1.49097V2.50903ZM4.03629 15.4295C4.03629 8.29371 9.82097 2.50903 16.9567 2.50903V-1.49097C7.61183 -1.49097 0.0362914 6.08458 0.0362914 15.4295H4.03629ZM4.84713 19.9461C4.32348 18.5428 4.03629 17.022 4.03629 15.4295H0.0362914C0.0362914 17.5066 0.411486 19.5007 1.09955 21.3446L4.84713 19.9461ZM2.75417 29.0173L4.90379 22.7464L1.11994 21.4493L-1.02968 27.7202L2.75417 29.0173ZM8.55282 27.0295L2.75417 29.0173L4.05126 32.8011L9.84991 30.8133L8.55282 27.0295ZM16.9567 28.3499C15.0496 28.3499 13.244 27.938 11.6198 27.2002L9.96544 30.842C12.099 31.8112 14.4676 32.3499 16.9567 32.3499V28.3499ZM9.84991 30.8133C9.84253 30.8159 9.84598 30.8127 9.86559 30.8141C9.8867 30.8155 9.92182 30.8222 9.96544 30.842L11.6198 27.2002C10.7108 26.7873 9.61315 26.666 8.55282 27.0295L9.84991 30.8133ZM-1.02968 27.7202C-2.10872 30.8679 0.903511 33.8801 4.05126 32.8011L2.75417 29.0173L-1.02968 27.7202ZM1.09955 21.3446C1.13176 21.4309 1.11437 21.4656 1.11994 21.4493L4.90379 22.7464C5.23288 21.7864 5.16372 20.7945 4.84713 19.9461L1.09955 21.3446Z" fill="black" mask="url(#path-1-inside-1_407_4058)"/>
<circle cx="10.5823" cy="15.7425" r="1.83185" fill="black"/>
<circle cx="17.2459" cy="15.7425" r="1.83185" fill="black"/>
<circle cx="23.91" cy="15.7425" r="1.83185" fill="black"/>
</svg>
