<svg width="64" height="61" viewBox="0 0 64 61" fill="none" xmlns="http://www.w3.org/2000/svg">
<path d="M19.0723 28.6477C19.0723 26.6569 19.0822 24.6662 19.0636 22.6754C19.0636 22.3334 19.1476 22.2098 19.538 22.2385C19.9733 22.2722 20.4111 22.2722 20.8465 22.2385C21.2608 22.2049 21.3524 22.3304 21.3503 22.6981C21.3339 26.5314 21.3405 30.3646 21.3405 34.1979C21.3405 34.3135 21.3405 34.4282 21.3405 34.5439C21.3666 35.7834 22.2771 36.4032 23.5987 36.0809C24.2955 35.9109 24.6892 35.4256 24.7153 34.6763C24.7328 34.101 24.7153 33.5248 24.7153 32.9495C24.7153 29.56 24.723 26.1706 24.7055 22.7821C24.7055 22.3739 24.7655 22.1742 25.2802 22.2395C25.8254 22.3087 26.5724 22.026 26.8853 22.3561C27.1579 22.6448 26.9715 23.2961 26.9715 23.7874C26.9715 27.2918 26.9715 30.7959 26.9715 34.2997C26.9808 34.7438 26.9325 35.1874 26.8275 35.6213C26.4557 37.0269 25.4994 37.8285 23.9281 38.0667C23.228 38.173 22.5121 38.1583 21.8181 38.0232C20.3645 37.7494 19.3831 36.7541 19.165 35.3544C18.9786 34.1425 19.0985 32.9238 19.0767 31.707C19.056 30.6879 19.0723 29.6678 19.0723 28.6477Z" fill="black"/>
<path d="M19.0727 50.5372C19.0727 48.5603 19.0869 46.5834 19.0607 44.6144C19.0552 44.2101 19.1926 44.1122 19.6059 44.1429C20.0223 44.177 20.4413 44.177 20.8577 44.1429C21.2863 44.1033 21.3528 44.2526 21.3506 44.6065C21.3364 48.4229 21.3419 52.2404 21.3419 56.0568C21.3419 56.1883 21.3419 56.3207 21.3419 56.4522C21.3659 57.499 21.9405 58.0337 23.0321 58.0337C24.1236 58.0337 24.7168 57.4832 24.7179 56.4463C24.7233 52.5142 24.7277 48.5821 24.7092 44.65C24.7092 44.2427 24.804 44.1004 25.2653 44.1439C25.7007 44.1776 26.1384 44.1776 26.5738 44.1439C26.9249 44.1211 26.9882 44.2427 26.9871 44.5392C26.9762 48.4931 26.9871 52.4361 26.9773 56.385C26.9866 56.9277 26.8891 57.4676 26.6894 57.9794C26.3415 58.8255 25.7233 59.4453 24.7779 59.7527C23.6259 60.1456 22.3541 60.1368 21.2089 59.728C19.9756 59.292 19.3649 58.3925 19.1708 57.244C18.9822 56.1319 19.0978 55.01 19.0803 53.8931C19.0629 52.7761 19.0727 51.6562 19.0727 50.5372Z" fill="black"/>
<path d="M55.3204 52.1158C55.3204 49.6298 55.328 47.1448 55.3105 44.6588C55.3105 44.3119 55.4087 44.2239 55.7892 44.2269C57.9505 44.244 60.1125 44.244 62.2752 44.2269C62.6535 44.2269 62.7964 44.3129 62.7528 44.6628C62.6928 45.1481 62.985 45.8005 62.6372 46.0773C62.3362 46.3175 61.6329 46.1504 61.1106 46.1524C60.0758 46.1524 59.0387 46.1623 58.0039 46.1524C57.6964 46.1524 57.5547 46.188 57.5601 46.5201C57.5819 47.9514 57.5819 49.3833 57.5601 50.816C57.5547 51.1402 57.6822 51.1906 57.9963 51.1876C59.2503 51.1728 60.5043 51.1876 61.7572 51.1748C62.0658 51.1748 62.1672 51.2499 62.1498 51.5306C62.1171 52.0377 62.3308 52.7049 62.0494 53.0133C61.7681 53.3217 60.9961 53.0973 60.4411 53.1072C59.6047 53.1211 58.7694 53.1191 57.9331 53.1072C57.655 53.1072 57.559 53.1705 57.5612 53.4374C57.5754 54.8528 57.5787 56.2683 57.5612 57.6877C57.5612 58.0031 57.7084 58.0238 57.9821 58.0218C59.4182 58.0139 60.8532 58.0317 62.2883 58.01C62.683 58.0031 62.7866 58.1148 62.7604 58.4538C62.737 58.8647 62.737 59.2765 62.7604 59.6874C62.7691 59.9068 62.6797 59.9701 62.4464 59.9691C60.175 59.9632 57.9036 59.9602 55.6322 59.9691C55.2179 59.9691 55.3313 59.724 55.3302 59.5342C55.3207 57.0571 55.3175 54.5843 55.3204 52.1158Z" fill="black"/>
<path d="M0.974425 30.1719C1.03658 28.5903 0.888282 27.0088 1.0573 25.4361C1.36044 22.6131 4.76478 21.167 7.38183 22.7485C8.48426 23.4167 8.90844 24.4289 9.02403 25.5686C9.15488 26.8536 9.14288 26.8536 7.73949 26.8536C6.80063 26.8536 6.80063 26.8536 6.769 25.9877C6.72757 24.8342 6.09293 24.166 5.0363 24.162C4.2948 24.162 3.74741 24.4882 3.47807 25.1149C3.34212 25.4387 3.27443 25.7827 3.27852 26.1291C3.27852 28.844 3.27852 31.5593 3.27852 34.275C3.27393 34.605 3.33754 34.9329 3.46607 35.2417C3.74413 35.8941 4.31443 36.2499 5.05266 36.2381C5.81596 36.2252 6.37972 35.8427 6.63379 35.1626C6.78972 34.7475 6.78209 34.3195 6.76355 33.8924C6.75265 33.6315 6.8039 33.4971 7.14302 33.5168C7.66752 33.5425 8.19639 33.5346 8.72198 33.5168C8.98695 33.5079 9.07091 33.589 9.06437 33.8252C9.0491 34.4183 9.0502 35.0114 8.88772 35.5906C8.39048 37.3698 6.85515 38.3346 4.73098 38.211C2.65915 38.0894 1.2852 36.9211 1.07038 35.0479C0.879558 33.4318 1.03876 31.7999 0.974425 30.1719Z" fill="black"/>
<path d="M42.1603 9.26102C42.1603 11.4 42.1516 13.5391 42.1679 15.6781C42.1679 16.0369 42.1178 16.2267 41.6521 16.1723C41.0808 16.1101 40.3087 16.3888 39.9838 16.0597C39.7003 15.774 39.8998 15.09 39.8998 14.577C39.8998 10.6775 39.8911 6.778 39.9096 2.87852C39.9096 2.47127 39.8115 2.34277 39.3502 2.36847C38.6447 2.40801 37.9327 2.36847 37.2261 2.38429C36.9349 2.39121 36.7997 2.3408 36.8204 2.04129C36.8461 1.61328 36.8461 1.18431 36.8204 0.756292C36.8052 0.489407 36.9131 0.426147 37.1923 0.427135C39.7526 0.436361 42.3133 0.436361 44.8744 0.427135C45.1699 0.427135 45.2473 0.515108 45.2353 0.766177C45.2168 1.19319 45.2146 1.62218 45.2353 2.05118C45.2473 2.30521 45.1721 2.39319 44.8766 2.38528C44.1318 2.36551 43.3849 2.40603 42.6434 2.36847C42.2072 2.34673 42.1461 2.48412 42.1483 2.837C42.1734 4.98295 42.1603 7.12199 42.1603 9.26102Z" fill="black"/>
<path d="M60.1654 31.1752C60.1654 33.2974 60.1468 35.4256 60.1806 37.5429C60.1883 38.0045 60.0301 38.0974 59.5776 38.0598C59.161 38.0302 58.7424 38.0302 58.3258 38.0598C57.9987 38.0796 57.8842 37.9936 57.8973 37.6803C57.9245 36.9883 57.9049 36.2964 57.9049 35.6045C57.9049 31.9837 57.9049 28.364 57.9147 24.7433C57.9147 24.3677 57.8307 24.2322 57.3869 24.254C56.6444 24.2915 55.8985 24.254 55.1537 24.2688C54.8931 24.2737 54.8015 24.2036 54.8146 23.9614C54.8419 23.4395 54.6314 22.7683 54.9138 22.4342C55.1832 22.1159 55.9661 22.3433 56.5211 22.3403C58.6104 22.3294 60.6997 22.3403 62.7879 22.3294C63.1303 22.3294 63.2742 22.3887 63.2448 22.7248C63.2044 23.2191 63.4203 23.8586 63.1499 24.1601C62.8795 24.4616 62.1292 24.2253 61.5927 24.2589C61.1293 24.2896 60.511 24.0741 60.245 24.3499C60.016 24.5851 60.1675 25.1307 60.1675 25.536C60.161 27.418 60.1603 29.2978 60.1654 31.1752Z" fill="black"/>
<path d="M37.4217 30.2055C37.4217 27.7541 37.438 25.3037 37.4075 22.8533C37.4075 22.3947 37.5536 22.2909 38.0138 22.3305C38.43 22.3626 38.8484 22.3626 39.2645 22.3305C39.6102 22.3057 39.6876 22.4135 39.6833 22.713C39.6647 23.9634 39.6756 25.2128 39.6756 26.4632C39.6756 29.5225 39.6843 32.5818 39.6647 35.6411C39.6647 36.0365 39.7738 36.1353 40.2012 36.1244C41.5261 36.0987 42.8521 36.1244 44.1769 36.1066C44.5346 36.1066 44.6644 36.1798 44.6262 36.5149C44.5684 37.0141 44.8563 37.6882 44.5106 37.9709C44.2064 38.22 43.4769 38.049 42.9349 38.05C41.2644 38.05 39.5938 38.0391 37.9189 38.0608C37.5177 38.0658 37.4021 37.9857 37.4053 37.6052C37.4326 35.1399 37.4217 32.6727 37.4217 30.2055Z" fill="black"/>
<path fill-rule="evenodd" clip-rule="evenodd" d="M36.5504 50.2558C36.5498 50.8586 36.5491 51.4615 36.5491 52.0644C36.5491 52.7141 36.5495 53.3631 36.55 54.0119C36.5513 55.8485 36.5525 57.6825 36.5437 59.5203C36.5415 59.8574 36.6222 59.9909 37.018 59.9612C37.4532 59.9249 37.8913 59.9249 38.3265 59.9612C38.766 60.0027 38.8205 59.8386 38.8205 59.4897C38.8052 57.8647 38.8096 56.2317 38.8205 54.6027C38.8211 54.4777 38.8032 54.3414 38.7852 54.2047C38.7425 53.8803 38.6996 53.554 38.9044 53.3711C39.0901 53.2054 39.405 53.2357 39.7294 53.2669C39.9138 53.2846 40.1013 53.3027 40.2697 53.2851C40.6699 53.2436 40.8356 53.385 40.9447 53.7319C41.2979 54.8142 41.6645 55.8929 42.0312 56.9716C42.3256 57.8377 42.62 58.7037 42.9074 59.5717C42.9969 59.8544 43.1048 59.982 43.4527 59.9612C43.9789 59.9345 44.5064 59.9345 45.0327 59.9612C45.3893 59.9731 45.4972 59.9325 45.3598 59.5658C44.8797 58.2808 44.4131 56.9921 43.9465 55.7033C43.6511 54.8874 43.3557 54.0715 43.0568 53.2565C42.9674 53.0123 42.9391 52.8729 43.2509 52.7158C44.1952 52.2383 44.7165 51.4723 44.9149 50.5155C45.0449 49.8824 45.0291 49.2452 45.0134 48.6084C45.0076 48.3741 45.0018 48.1399 45.0033 47.9059C45.0153 45.6997 43.6806 44.382 41.2445 44.2585C40.4171 44.2163 39.5873 44.2172 38.7573 44.2181C38.1883 44.2187 37.6193 44.2194 37.0507 44.2061C36.6527 44.1972 36.5371 44.2753 36.5371 44.6588C36.5544 46.5211 36.5524 48.3879 36.5504 50.2558ZM38.8069 48.1208C38.806 48.3306 38.8052 48.5404 38.8052 48.7501C38.8059 49.5066 38.8045 50.2638 38.8008 51.0216C38.8008 51.0416 38.8003 51.0617 38.7997 51.0815C38.7953 51.2406 38.7912 51.3843 39.0822 51.3755C39.3601 51.3668 39.6377 51.3679 39.9145 51.369C40.3297 51.3707 40.7432 51.3723 41.154 51.3409C42.0645 51.2677 42.6675 50.7399 42.7188 49.957C42.7737 49.17 42.7718 48.3805 42.7133 47.5936C42.6446 46.7347 41.9696 46.193 41.0177 46.1584C40.6954 46.1466 40.374 46.1492 40.0532 46.1518C39.7564 46.1542 39.46 46.1565 39.164 46.1475C38.8739 46.1386 38.7921 46.2236 38.7987 46.4826C38.8113 47.0288 38.8091 47.575 38.8069 48.1208Z" fill="black"/>
<path fill-rule="evenodd" clip-rule="evenodd" d="M0.948541 6.44713C0.947927 7.06456 0.947314 7.68224 0.947314 8.30028C0.952402 10.7853 0.952402 13.2693 0.947314 15.7523C0.947261 15.7643 0.94716 15.7762 0.947061 15.7878C0.945101 16.0185 0.943704 16.1829 1.32461 16.1763C1.97598 16.1665 2.62736 16.1696 3.27863 16.1728C4.06214 16.1766 4.84551 16.1804 5.62856 16.1615C7.7778 16.1111 9.06997 14.9922 9.09396 13.0973C9.13104 9.90555 9.12559 6.71281 9.09396 3.52107C9.07652 1.72405 7.93592 0.606096 5.96332 0.489458C5.05436 0.435605 4.14181 0.438984 3.22905 0.442364C2.63399 0.444567 2.03885 0.446771 1.44455 0.433118C1.02801 0.423233 0.9375 0.528999 0.9375 0.896707C0.952219 2.74685 0.950381 4.59588 0.948541 6.44713ZM3.20533 6.88193C3.20437 7.35638 3.20342 7.83084 3.20342 8.30531C3.20342 8.78278 3.20393 9.26019 3.20444 9.73756C3.20591 11.1013 3.20737 12.4648 3.19687 13.8288C3.19687 14.1343 3.25139 14.2657 3.63305 14.247C4.00007 14.2287 4.3671 14.2318 4.73412 14.235C5.02136 14.2375 5.3086 14.2399 5.59583 14.2321C6.32752 14.2104 6.82039 13.8644 6.82694 13.2219C6.85529 9.95143 6.85529 6.68061 6.82694 3.40946C6.82039 2.74323 6.31116 2.3953 5.55876 2.38838C5.31275 2.38446 5.06709 2.38707 4.82184 2.38967C4.44853 2.39363 4.07618 2.39758 3.70502 2.37849C3.30592 2.35872 3.18597 2.44966 3.19142 2.8322C3.21079 4.1817 3.20806 5.53174 3.20533 6.88193Z" fill="black"/>
<path fill-rule="evenodd" clip-rule="evenodd" d="M25.4434 15.1513C25.6691 16.1684 25.6735 16.1684 26.8457 16.1684L27.3931 16.1645C28.0626 16.1645 28.0626 16.1645 27.91 15.5665L24.4206 1.87823C24.3862 1.74309 24.3643 1.59745 24.3424 1.45156C24.289 1.09702 24.2355 0.741054 24.0029 0.53096C23.7958 0.343804 23.4505 0.377928 23.094 0.41316C22.8857 0.433751 22.6735 0.45472 22.4829 0.432114C22.0761 0.380714 21.9638 0.550731 21.8842 0.874946C21.5156 2.36623 21.1339 3.85572 20.7523 5.34482C20.6417 5.77645 20.5311 6.20805 20.4208 6.63965C20.2534 7.29484 20.0863 7.95008 19.9191 8.60531C19.3143 10.976 18.7096 13.3466 18.0928 15.7147C17.9957 16.0834 18.0426 16.2099 18.4951 16.1734C18.9845 16.1422 19.4757 16.1422 19.965 16.1734C20.2943 16.1852 20.4405 16.118 20.4961 15.7898C20.5801 15.2938 20.6856 14.8007 20.791 14.3082C20.8757 13.9126 20.9603 13.5173 21.0337 13.121C21.0893 12.8195 21.219 12.7236 21.5593 12.7315C22.5047 12.7572 23.4512 12.7652 24.3944 12.7315C24.8153 12.7177 24.9909 12.8166 25.0487 13.2119C25.1261 13.7525 25.2467 14.2835 25.3675 14.8152C25.3929 14.9272 25.4184 15.0392 25.4434 15.1513ZM23.4378 5.58505C23.3155 5.00212 23.1932 4.41919 23.0706 3.8364L22.9877 3.81465C22.5181 6.06834 22.0456 8.32138 21.5702 10.5738C21.5232 10.801 21.6632 10.8006 21.8265 10.8001C21.8337 10.8001 21.8409 10.8001 21.8482 10.8001C22.1081 10.8001 22.368 10.7988 22.6279 10.7975C23.1477 10.7948 23.6674 10.7922 24.1872 10.8001C24.4478 10.809 24.534 10.7635 24.4784 10.5036C24.126 8.86623 23.7819 7.22567 23.4378 5.58505Z" fill="black"/>
<path fill-rule="evenodd" clip-rule="evenodd" d="M61.4387 15.1068C61.6666 16.1684 61.6677 16.1684 62.8563 16.1684C63.0742 16.1562 63.2929 16.1578 63.5106 16.1733C63.9904 16.2346 64.0656 16.0814 63.9566 15.6712C63.2565 12.9683 62.564 10.262 61.8715 7.55595C61.3795 5.63352 60.8876 3.71118 60.393 1.7902C60.3595 1.6593 60.3406 1.51312 60.3217 1.36649C60.2761 1.01265 60.2301 0.656155 59.9765 0.505203C59.7469 0.368604 59.4076 0.392228 59.061 0.416358C58.8658 0.429944 58.6684 0.443691 58.4869 0.429092C58.0987 0.39845 57.957 0.522996 57.8752 0.86105C57.5511 2.20219 57.2094 3.5395 56.8676 4.87709C56.7839 5.20459 56.7003 5.53211 56.6168 5.8597C55.7786 9.15985 54.9339 12.4574 54.0827 15.7522C54.002 16.0636 54.027 16.2 54.4381 16.1723C54.9465 16.1441 55.4563 16.1441 55.9647 16.1723C56.2919 16.1832 56.4358 16.117 56.4914 15.7878C56.5852 15.2372 56.7029 14.6902 56.8207 14.1431C56.8974 13.7866 56.9742 13.4301 57.0443 13.0725C57.0933 12.8205 57.1948 12.7265 57.4957 12.7325C58.4946 12.7542 59.4956 12.7611 60.4933 12.7325C60.8848 12.7216 60.9851 12.863 61.0385 13.1684C61.1271 13.6748 61.237 14.1788 61.3468 14.6827C61.3776 14.824 61.4084 14.9654 61.4387 15.1068ZM59.6973 6.79479C59.4865 5.80105 59.2753 4.80798 59.0638 3.81556L58.9907 3.82347C58.9187 4.16799 58.8467 4.51231 58.7747 4.85649C58.3809 6.74107 57.9879 8.62108 57.5841 10.5025C57.5295 10.7565 57.5982 10.807 57.8687 10.807C58.5971 10.7901 59.3244 10.7822 60.0495 10.807C60.4345 10.8208 60.5457 10.7467 60.4606 10.377C60.2642 9.53965 60.091 8.69842 59.9179 7.8574C59.8449 7.50306 59.772 7.14875 59.6973 6.79479Z" fill="black"/>
</svg>
